G04 #@! TF.GenerationSoftware,KiCad,Pcbnew,(5.1.9)-1*
G04 #@! TF.CreationDate,2021-06-24T21:47:46+02:00*
G04 #@! TF.ProjectId,cypress_inp,63797072-6573-4735-9f69-6e702e6b6963,1.0*
G04 #@! TF.SameCoordinates,Original*
G04 #@! TF.FileFunction,Soldermask,Bot*
G04 #@! TF.FilePolarity,Negative*
%FSLAX46Y46*%
G04 Gerber Fmt 4.6, Leading zero omitted, Abs format (unit mm)*
G04 Created by KiCad (PCBNEW (5.1.9)-1) date 2021-06-24 21:47:46*
%MOMM*%
%LPD*%
G01*
G04 APERTURE LIST*
%ADD10C,1.800000*%
%ADD11R,1.800000X1.800000*%
%ADD12O,1.700000X1.700000*%
%ADD13R,1.700000X1.700000*%
%ADD14C,1.400000*%
%ADD15C,3.000000*%
%ADD16R,1.400000X1.400000*%
G04 APERTURE END LIST*
D10*
X63246000Y-129286000D03*
D11*
X60706000Y-129286000D03*
D10*
X63246000Y-124714000D03*
D11*
X60706000Y-124714000D03*
D12*
X97790000Y-95123000D03*
X95250000Y-95123000D03*
X97790000Y-97663000D03*
X95250000Y-97663000D03*
X97790000Y-100203000D03*
X95250000Y-100203000D03*
X97790000Y-102743000D03*
X95250000Y-102743000D03*
X97790000Y-105283000D03*
X95250000Y-105283000D03*
X97790000Y-107823000D03*
X95250000Y-107823000D03*
X97790000Y-110363000D03*
X95250000Y-110363000D03*
X97790000Y-112903000D03*
X95250000Y-112903000D03*
X97790000Y-115443000D03*
X95250000Y-115443000D03*
X97790000Y-117983000D03*
D13*
X95250000Y-117983000D03*
D12*
X126238000Y-95123000D03*
X123698000Y-95123000D03*
X126238000Y-97663000D03*
X123698000Y-97663000D03*
X126238000Y-100203000D03*
X123698000Y-100203000D03*
X126238000Y-102743000D03*
X123698000Y-102743000D03*
X126238000Y-105283000D03*
X123698000Y-105283000D03*
X126238000Y-107823000D03*
X123698000Y-107823000D03*
X126238000Y-110363000D03*
X123698000Y-110363000D03*
X126238000Y-112903000D03*
X123698000Y-112903000D03*
X126238000Y-115443000D03*
X123698000Y-115443000D03*
X126238000Y-117983000D03*
D13*
X123698000Y-117983000D03*
D14*
X146812000Y-105116000D03*
D15*
X149522000Y-109886000D03*
D16*
X146812000Y-102616000D03*
D14*
X150012000Y-105116000D03*
X150012000Y-102616000D03*
D15*
X149522000Y-97846000D03*
D12*
X138430000Y-99822000D03*
X138430000Y-102362000D03*
X138430000Y-104902000D03*
D13*
X138430000Y-107442000D03*
D12*
X60706000Y-74168000D03*
X63246000Y-74168000D03*
X60706000Y-71628000D03*
D13*
X63246000Y-71628000D03*
D12*
X60706000Y-97536000D03*
X63246000Y-97536000D03*
X60706000Y-94996000D03*
X63246000Y-94996000D03*
X60706000Y-92456000D03*
X63246000Y-92456000D03*
X60706000Y-89916000D03*
X63246000Y-89916000D03*
X60706000Y-87376000D03*
X63246000Y-87376000D03*
X60706000Y-84836000D03*
X63246000Y-84836000D03*
X60706000Y-82296000D03*
X63246000Y-82296000D03*
X60706000Y-79756000D03*
D13*
X63246000Y-79756000D03*
D12*
X60706000Y-120650000D03*
X63246000Y-120650000D03*
X60706000Y-118110000D03*
X63246000Y-118110000D03*
X60706000Y-115570000D03*
X63246000Y-115570000D03*
X60706000Y-113030000D03*
X63246000Y-113030000D03*
X60706000Y-110490000D03*
X63246000Y-110490000D03*
X60706000Y-107950000D03*
X63246000Y-107950000D03*
X60706000Y-105410000D03*
X63246000Y-105410000D03*
X60706000Y-102870000D03*
D13*
X63246000Y-102870000D03*
M02*
