M48
; DRILL file {KiCad (5.1.9)-1} date 06/24/21 21:47:51
; FORMAT={-:-/ absolute / metric / decimal}
; #@! TF.CreationDate,2021-06-24T21:47:51+02:00
; #@! TF.GenerationSoftware,Kicad,Pcbnew,(5.1.9)-1
; #@! TF.FileFunction,Plated,1,2,PTH
FMAT,2
METRIC
T1C0.400
T2C0.900
T3C0.920
T4C1.000
T5C2.300
%
G90
G05
T1
X77.597Y-81.026
X77.597Y-86.106
X77.597Y-91.186
X77.597Y-96.266
X77.597Y-104.14
X77.597Y-109.22
X77.597Y-114.3
X77.597Y-119.38
X77.597Y-121.539
X80.518Y-118.872
X82.969Y-100.965
X83.566Y-114.935
X84.074Y-90.043
X84.074Y-91.948
X84.074Y-111.252
X85.636Y-76.873
X89.281Y-90.551
X89.344Y-92.9
T2
X60.706Y-124.714
X60.706Y-129.286
X63.246Y-124.714
X63.246Y-129.286
T3
X146.812Y-102.616
X146.812Y-105.116
X150.012Y-102.616
X150.012Y-105.116
T4
X60.706Y-71.628
X60.706Y-74.168
X60.706Y-79.756
X60.706Y-82.296
X60.706Y-84.836
X60.706Y-87.376
X60.706Y-89.916
X60.706Y-92.456
X60.706Y-94.996
X60.706Y-97.536
X60.706Y-102.87
X60.706Y-105.41
X60.706Y-107.95
X60.706Y-110.49
X60.706Y-113.03
X60.706Y-115.57
X60.706Y-118.11
X60.706Y-120.65
X63.246Y-71.628
X63.246Y-74.168
X63.246Y-79.756
X63.246Y-82.296
X63.246Y-84.836
X63.246Y-87.376
X63.246Y-89.916
X63.246Y-92.456
X63.246Y-94.996
X63.246Y-97.536
X63.246Y-102.87
X63.246Y-105.41
X63.246Y-107.95
X63.246Y-110.49
X63.246Y-113.03
X63.246Y-115.57
X63.246Y-118.11
X63.246Y-120.65
X95.25Y-95.123
X95.25Y-97.663
X95.25Y-100.203
X95.25Y-102.743
X95.25Y-105.283
X95.25Y-107.823
X95.25Y-110.363
X95.25Y-112.903
X95.25Y-115.443
X95.25Y-117.983
X97.79Y-95.123
X97.79Y-97.663
X97.79Y-100.203
X97.79Y-102.743
X97.79Y-105.283
X97.79Y-107.823
X97.79Y-110.363
X97.79Y-112.903
X97.79Y-115.443
X97.79Y-117.983
X123.698Y-95.123
X123.698Y-97.663
X123.698Y-100.203
X123.698Y-102.743
X123.698Y-105.283
X123.698Y-107.823
X123.698Y-110.363
X123.698Y-112.903
X123.698Y-115.443
X123.698Y-117.983
X126.238Y-95.123
X126.238Y-97.663
X126.238Y-100.203
X126.238Y-102.743
X126.238Y-105.283
X126.238Y-107.823
X126.238Y-110.363
X126.238Y-112.903
X126.238Y-115.443
X126.238Y-117.983
X138.43Y-99.822
X138.43Y-102.362
X138.43Y-104.902
X138.43Y-107.442
T5
X149.522Y-97.846
X149.522Y-109.886
T0
M30
