G04 #@! TF.GenerationSoftware,KiCad,Pcbnew,(5.1.9)-1*
G04 #@! TF.CreationDate,2021-06-24T21:47:46+02:00*
G04 #@! TF.ProjectId,cypress_inp,63797072-6573-4735-9f69-6e702e6b6963,1.0*
G04 #@! TF.SameCoordinates,Original*
G04 #@! TF.FileFunction,Legend,Top*
G04 #@! TF.FilePolarity,Positive*
%FSLAX46Y46*%
G04 Gerber Fmt 4.6, Leading zero omitted, Abs format (unit mm)*
G04 Created by KiCad (PCBNEW (5.1.9)-1) date 2021-06-24 21:47:46*
%MOMM*%
%LPD*%
G01*
G04 APERTURE LIST*
%ADD10C,0.150000*%
%ADD11C,0.120000*%
%ADD12C,1.800000*%
%ADD13R,1.800000X1.800000*%
%ADD14R,1.900000X0.800000*%
%ADD15O,1.700000X1.700000*%
%ADD16R,1.700000X1.700000*%
%ADD17C,1.400000*%
%ADD18C,3.000000*%
%ADD19R,1.400000X1.400000*%
G04 APERTURE END LIST*
D10*
X64818000Y-127674666D02*
X65294190Y-127674666D01*
X64722761Y-127960380D02*
X65056095Y-126960380D01*
X65389428Y-127960380D01*
X66294190Y-127865142D02*
X66246571Y-127912761D01*
X66103714Y-127960380D01*
X66008476Y-127960380D01*
X65865619Y-127912761D01*
X65770380Y-127817523D01*
X65722761Y-127722285D01*
X65675142Y-127531809D01*
X65675142Y-127388952D01*
X65722761Y-127198476D01*
X65770380Y-127103238D01*
X65865619Y-127008000D01*
X66008476Y-126960380D01*
X66103714Y-126960380D01*
X66246571Y-127008000D01*
X66294190Y-127055619D01*
X67389428Y-128055619D02*
X67294190Y-128008000D01*
X67198952Y-127912761D01*
X67056095Y-127769904D01*
X66960857Y-127722285D01*
X66865619Y-127722285D01*
X66913238Y-127960380D02*
X66818000Y-127912761D01*
X66722761Y-127817523D01*
X66675142Y-127627047D01*
X66675142Y-127293714D01*
X66722761Y-127103238D01*
X66818000Y-127008000D01*
X66913238Y-126960380D01*
X67103714Y-126960380D01*
X67198952Y-127008000D01*
X67294190Y-127103238D01*
X67341809Y-127293714D01*
X67341809Y-127627047D01*
X67294190Y-127817523D01*
X67198952Y-127912761D01*
X67103714Y-127960380D01*
X66913238Y-127960380D01*
X67532285Y-128055619D02*
X68294190Y-128055619D01*
X69008476Y-127960380D02*
X68532285Y-127960380D01*
X68532285Y-126960380D01*
X69341809Y-127436571D02*
X69675142Y-127436571D01*
X69818000Y-127960380D02*
X69341809Y-127960380D01*
X69341809Y-126960380D01*
X69818000Y-126960380D01*
X70246571Y-127960380D02*
X70246571Y-126960380D01*
X70484666Y-126960380D01*
X70627523Y-127008000D01*
X70722761Y-127103238D01*
X70770380Y-127198476D01*
X70818000Y-127388952D01*
X70818000Y-127531809D01*
X70770380Y-127722285D01*
X70722761Y-127817523D01*
X70627523Y-127912761D01*
X70484666Y-127960380D01*
X70246571Y-127960380D01*
X64738571Y-123642380D02*
X64738571Y-122642380D01*
X65119523Y-122642380D01*
X65214761Y-122690000D01*
X65262380Y-122737619D01*
X65310000Y-122832857D01*
X65310000Y-122975714D01*
X65262380Y-123070952D01*
X65214761Y-123118571D01*
X65119523Y-123166190D01*
X64738571Y-123166190D01*
X65643333Y-122642380D02*
X65881428Y-123642380D01*
X66071904Y-122928095D01*
X66262380Y-123642380D01*
X66500476Y-122642380D01*
X66643333Y-123737619D02*
X67405238Y-123737619D01*
X68119523Y-123642380D02*
X67643333Y-123642380D01*
X67643333Y-122642380D01*
X68452857Y-123118571D02*
X68786190Y-123118571D01*
X68929047Y-123642380D02*
X68452857Y-123642380D01*
X68452857Y-122642380D01*
X68929047Y-122642380D01*
X69357619Y-123642380D02*
X69357619Y-122642380D01*
X69595714Y-122642380D01*
X69738571Y-122690000D01*
X69833809Y-122785238D01*
X69881428Y-122880476D01*
X69929047Y-123070952D01*
X69929047Y-123213809D01*
X69881428Y-123404285D01*
X69833809Y-123499523D01*
X69738571Y-123594761D01*
X69595714Y-123642380D01*
X69357619Y-123642380D01*
X59523714Y-77414380D02*
X59523714Y-76414380D01*
X59761809Y-76414380D01*
X59904666Y-76462000D01*
X59999904Y-76557238D01*
X60047523Y-76652476D01*
X60095142Y-76842952D01*
X60095142Y-76985809D01*
X60047523Y-77176285D01*
X59999904Y-77271523D01*
X59904666Y-77366761D01*
X59761809Y-77414380D01*
X59523714Y-77414380D01*
X60714190Y-76414380D02*
X60809428Y-76414380D01*
X60904666Y-76462000D01*
X60952285Y-76509619D01*
X60999904Y-76604857D01*
X61047523Y-76795333D01*
X61047523Y-77033428D01*
X60999904Y-77223904D01*
X60952285Y-77319142D01*
X60904666Y-77366761D01*
X60809428Y-77414380D01*
X60714190Y-77414380D01*
X60618952Y-77366761D01*
X60571333Y-77319142D01*
X60523714Y-77223904D01*
X60476095Y-77033428D01*
X60476095Y-76795333D01*
X60523714Y-76604857D01*
X60571333Y-76509619D01*
X60618952Y-76462000D01*
X60714190Y-76414380D01*
X61476095Y-77319142D02*
X61523714Y-77366761D01*
X61476095Y-77414380D01*
X61428476Y-77366761D01*
X61476095Y-77319142D01*
X61476095Y-77414380D01*
X61952285Y-77319142D02*
X61999904Y-77366761D01*
X61952285Y-77414380D01*
X61904666Y-77366761D01*
X61952285Y-77319142D01*
X61952285Y-77414380D01*
X62333238Y-76414380D02*
X62999904Y-76414380D01*
X62571333Y-77414380D01*
X64095142Y-76366761D02*
X63238000Y-77652476D01*
X64428476Y-77414380D02*
X64428476Y-76414380D01*
X64809428Y-76414380D01*
X64904666Y-76462000D01*
X64952285Y-76509619D01*
X64999904Y-76604857D01*
X64999904Y-76747714D01*
X64952285Y-76842952D01*
X64904666Y-76890571D01*
X64809428Y-76938190D01*
X64428476Y-76938190D01*
X65761809Y-76890571D02*
X65904666Y-76938190D01*
X65952285Y-76985809D01*
X65999904Y-77081047D01*
X65999904Y-77223904D01*
X65952285Y-77319142D01*
X65904666Y-77366761D01*
X65809428Y-77414380D01*
X65428476Y-77414380D01*
X65428476Y-76414380D01*
X65761809Y-76414380D01*
X65857047Y-76462000D01*
X65904666Y-76509619D01*
X65952285Y-76604857D01*
X65952285Y-76700095D01*
X65904666Y-76795333D01*
X65857047Y-76842952D01*
X65761809Y-76890571D01*
X65428476Y-76890571D01*
X135826523Y-107021380D02*
X135350333Y-107021380D01*
X135302714Y-107497571D01*
X135350333Y-107449952D01*
X135445571Y-107402333D01*
X135683666Y-107402333D01*
X135778904Y-107449952D01*
X135826523Y-107497571D01*
X135874142Y-107592809D01*
X135874142Y-107830904D01*
X135826523Y-107926142D01*
X135778904Y-107973761D01*
X135683666Y-108021380D01*
X135445571Y-108021380D01*
X135350333Y-107973761D01*
X135302714Y-107926142D01*
X136159857Y-107021380D02*
X136493190Y-108021380D01*
X136826523Y-107021380D01*
X135009047Y-105354380D02*
X135009047Y-104354380D01*
X135247142Y-104354380D01*
X135390000Y-104402000D01*
X135485238Y-104497238D01*
X135532857Y-104592476D01*
X135580476Y-104782952D01*
X135580476Y-104925809D01*
X135532857Y-105116285D01*
X135485238Y-105211523D01*
X135390000Y-105306761D01*
X135247142Y-105354380D01*
X135009047Y-105354380D01*
X136009047Y-104973428D02*
X136770952Y-104973428D01*
X135009047Y-102814380D02*
X135009047Y-101814380D01*
X135247142Y-101814380D01*
X135390000Y-101862000D01*
X135485238Y-101957238D01*
X135532857Y-102052476D01*
X135580476Y-102242952D01*
X135580476Y-102385809D01*
X135532857Y-102576285D01*
X135485238Y-102671523D01*
X135390000Y-102766761D01*
X135247142Y-102814380D01*
X135009047Y-102814380D01*
X136009047Y-102433428D02*
X136770952Y-102433428D01*
X136390000Y-102814380D02*
X136390000Y-102052476D01*
X134747095Y-99322000D02*
X134651857Y-99274380D01*
X134509000Y-99274380D01*
X134366142Y-99322000D01*
X134270904Y-99417238D01*
X134223285Y-99512476D01*
X134175666Y-99702952D01*
X134175666Y-99845809D01*
X134223285Y-100036285D01*
X134270904Y-100131523D01*
X134366142Y-100226761D01*
X134509000Y-100274380D01*
X134604238Y-100274380D01*
X134747095Y-100226761D01*
X134794714Y-100179142D01*
X134794714Y-99845809D01*
X134604238Y-99845809D01*
X135223285Y-100274380D02*
X135223285Y-99274380D01*
X135794714Y-100274380D01*
X135794714Y-99274380D01*
X136270904Y-100274380D02*
X136270904Y-99274380D01*
X136509000Y-99274380D01*
X136651857Y-99322000D01*
X136747095Y-99417238D01*
X136794714Y-99512476D01*
X136842333Y-99702952D01*
X136842333Y-99845809D01*
X136794714Y-100036285D01*
X136747095Y-100131523D01*
X136651857Y-100226761D01*
X136509000Y-100274380D01*
X136270904Y-100274380D01*
X89901904Y-74652142D02*
X89854285Y-74699761D01*
X89711428Y-74747380D01*
X89616190Y-74747380D01*
X89473333Y-74699761D01*
X89378095Y-74604523D01*
X89330476Y-74509285D01*
X89282857Y-74318809D01*
X89282857Y-74175952D01*
X89330476Y-73985476D01*
X89378095Y-73890238D01*
X89473333Y-73795000D01*
X89616190Y-73747380D01*
X89711428Y-73747380D01*
X89854285Y-73795000D01*
X89901904Y-73842619D01*
X90235238Y-74080714D02*
X90473333Y-74747380D01*
X90711428Y-74080714D02*
X90473333Y-74747380D01*
X90378095Y-74985476D01*
X90330476Y-75033095D01*
X90235238Y-75080714D01*
X91092380Y-74080714D02*
X91092380Y-75080714D01*
X91092380Y-74128333D02*
X91187619Y-74080714D01*
X91378095Y-74080714D01*
X91473333Y-74128333D01*
X91520952Y-74175952D01*
X91568571Y-74271190D01*
X91568571Y-74556904D01*
X91520952Y-74652142D01*
X91473333Y-74699761D01*
X91378095Y-74747380D01*
X91187619Y-74747380D01*
X91092380Y-74699761D01*
X91997142Y-74747380D02*
X91997142Y-74080714D01*
X91997142Y-74271190D02*
X92044761Y-74175952D01*
X92092380Y-74128333D01*
X92187619Y-74080714D01*
X92282857Y-74080714D01*
X92997142Y-74699761D02*
X92901904Y-74747380D01*
X92711428Y-74747380D01*
X92616190Y-74699761D01*
X92568571Y-74604523D01*
X92568571Y-74223571D01*
X92616190Y-74128333D01*
X92711428Y-74080714D01*
X92901904Y-74080714D01*
X92997142Y-74128333D01*
X93044761Y-74223571D01*
X93044761Y-74318809D01*
X92568571Y-74414047D01*
X93425714Y-74699761D02*
X93520952Y-74747380D01*
X93711428Y-74747380D01*
X93806666Y-74699761D01*
X93854285Y-74604523D01*
X93854285Y-74556904D01*
X93806666Y-74461666D01*
X93711428Y-74414047D01*
X93568571Y-74414047D01*
X93473333Y-74366428D01*
X93425714Y-74271190D01*
X93425714Y-74223571D01*
X93473333Y-74128333D01*
X93568571Y-74080714D01*
X93711428Y-74080714D01*
X93806666Y-74128333D01*
X94235238Y-74699761D02*
X94330476Y-74747380D01*
X94520952Y-74747380D01*
X94616190Y-74699761D01*
X94663809Y-74604523D01*
X94663809Y-74556904D01*
X94616190Y-74461666D01*
X94520952Y-74414047D01*
X94378095Y-74414047D01*
X94282857Y-74366428D01*
X94235238Y-74271190D01*
X94235238Y-74223571D01*
X94282857Y-74128333D01*
X94378095Y-74080714D01*
X94520952Y-74080714D01*
X94616190Y-74128333D01*
X96425714Y-74652142D02*
X96378095Y-74699761D01*
X96235238Y-74747380D01*
X96140000Y-74747380D01*
X95997142Y-74699761D01*
X95901904Y-74604523D01*
X95854285Y-74509285D01*
X95806666Y-74318809D01*
X95806666Y-74175952D01*
X95854285Y-73985476D01*
X95901904Y-73890238D01*
X95997142Y-73795000D01*
X96140000Y-73747380D01*
X96235238Y-73747380D01*
X96378095Y-73795000D01*
X96425714Y-73842619D01*
X97044761Y-74271190D02*
X97044761Y-74747380D01*
X96711428Y-73747380D02*
X97044761Y-74271190D01*
X97378095Y-73747380D01*
X97616190Y-73747380D02*
X98282857Y-73747380D01*
X97854285Y-74747380D01*
X99235238Y-74652142D02*
X99187619Y-74699761D01*
X99044761Y-74747380D01*
X98949523Y-74747380D01*
X98806666Y-74699761D01*
X98711428Y-74604523D01*
X98663809Y-74509285D01*
X98616190Y-74318809D01*
X98616190Y-74175952D01*
X98663809Y-73985476D01*
X98711428Y-73890238D01*
X98806666Y-73795000D01*
X98949523Y-73747380D01*
X99044761Y-73747380D01*
X99187619Y-73795000D01*
X99235238Y-73842619D01*
X100092380Y-73747380D02*
X99901904Y-73747380D01*
X99806666Y-73795000D01*
X99759047Y-73842619D01*
X99663809Y-73985476D01*
X99616190Y-74175952D01*
X99616190Y-74556904D01*
X99663809Y-74652142D01*
X99711428Y-74699761D01*
X99806666Y-74747380D01*
X99997142Y-74747380D01*
X100092380Y-74699761D01*
X100140000Y-74652142D01*
X100187619Y-74556904D01*
X100187619Y-74318809D01*
X100140000Y-74223571D01*
X100092380Y-74175952D01*
X99997142Y-74128333D01*
X99806666Y-74128333D01*
X99711428Y-74175952D01*
X99663809Y-74223571D01*
X99616190Y-74318809D01*
X100759047Y-74175952D02*
X100663809Y-74128333D01*
X100616190Y-74080714D01*
X100568571Y-73985476D01*
X100568571Y-73937857D01*
X100616190Y-73842619D01*
X100663809Y-73795000D01*
X100759047Y-73747380D01*
X100949523Y-73747380D01*
X101044761Y-73795000D01*
X101092380Y-73842619D01*
X101140000Y-73937857D01*
X101140000Y-73985476D01*
X101092380Y-74080714D01*
X101044761Y-74128333D01*
X100949523Y-74175952D01*
X100759047Y-74175952D01*
X100663809Y-74223571D01*
X100616190Y-74271190D01*
X100568571Y-74366428D01*
X100568571Y-74556904D01*
X100616190Y-74652142D01*
X100663809Y-74699761D01*
X100759047Y-74747380D01*
X100949523Y-74747380D01*
X101044761Y-74699761D01*
X101092380Y-74652142D01*
X101140000Y-74556904D01*
X101140000Y-74366428D01*
X101092380Y-74271190D01*
X101044761Y-74223571D01*
X100949523Y-74175952D01*
X101759047Y-73747380D02*
X101854285Y-73747380D01*
X101949523Y-73795000D01*
X101997142Y-73842619D01*
X102044761Y-73937857D01*
X102092380Y-74128333D01*
X102092380Y-74366428D01*
X102044761Y-74556904D01*
X101997142Y-74652142D01*
X101949523Y-74699761D01*
X101854285Y-74747380D01*
X101759047Y-74747380D01*
X101663809Y-74699761D01*
X101616190Y-74652142D01*
X101568571Y-74556904D01*
X101520952Y-74366428D01*
X101520952Y-74128333D01*
X101568571Y-73937857D01*
X101616190Y-73842619D01*
X101663809Y-73795000D01*
X101759047Y-73747380D01*
X103044761Y-74747380D02*
X102473333Y-74747380D01*
X102759047Y-74747380D02*
X102759047Y-73747380D01*
X102663809Y-73890238D01*
X102568571Y-73985476D01*
X102473333Y-74033095D01*
X103378095Y-73747380D02*
X103997142Y-73747380D01*
X103663809Y-74128333D01*
X103806666Y-74128333D01*
X103901904Y-74175952D01*
X103949523Y-74223571D01*
X103997142Y-74318809D01*
X103997142Y-74556904D01*
X103949523Y-74652142D01*
X103901904Y-74699761D01*
X103806666Y-74747380D01*
X103520952Y-74747380D01*
X103425714Y-74699761D01*
X103378095Y-74652142D01*
X104378095Y-74461666D02*
X104854285Y-74461666D01*
X104282857Y-74747380D02*
X104616190Y-73747380D01*
X104949523Y-74747380D01*
X106520952Y-74747380D02*
X106044761Y-74747380D01*
X106044761Y-73747380D01*
X107282857Y-74699761D02*
X107187619Y-74747380D01*
X106997142Y-74747380D01*
X106901904Y-74699761D01*
X106854285Y-74652142D01*
X106806666Y-74556904D01*
X106806666Y-74271190D01*
X106854285Y-74175952D01*
X106901904Y-74128333D01*
X106997142Y-74080714D01*
X107187619Y-74080714D01*
X107282857Y-74128333D01*
X107663809Y-74699761D02*
X107759047Y-74747380D01*
X107949523Y-74747380D01*
X108044761Y-74699761D01*
X108092380Y-74604523D01*
X108092380Y-74556904D01*
X108044761Y-74461666D01*
X107949523Y-74414047D01*
X107806666Y-74414047D01*
X107711428Y-74366428D01*
X107663809Y-74271190D01*
X107663809Y-74223571D01*
X107711428Y-74128333D01*
X107806666Y-74080714D01*
X107949523Y-74080714D01*
X108044761Y-74128333D01*
X108663809Y-74747380D02*
X108568571Y-74699761D01*
X108520952Y-74652142D01*
X108473333Y-74556904D01*
X108473333Y-74271190D01*
X108520952Y-74175952D01*
X108568571Y-74128333D01*
X108663809Y-74080714D01*
X108806666Y-74080714D01*
X108901904Y-74128333D01*
X108949523Y-74175952D01*
X108997142Y-74271190D01*
X108997142Y-74556904D01*
X108949523Y-74652142D01*
X108901904Y-74699761D01*
X108806666Y-74747380D01*
X108663809Y-74747380D01*
X109282857Y-74080714D02*
X109663809Y-74080714D01*
X109425714Y-74747380D02*
X109425714Y-73890238D01*
X109473333Y-73795000D01*
X109568571Y-73747380D01*
X109663809Y-73747380D01*
X109854285Y-74080714D02*
X110235238Y-74080714D01*
X109997142Y-73747380D02*
X109997142Y-74604523D01*
X110044761Y-74699761D01*
X110140000Y-74747380D01*
X110235238Y-74747380D01*
X111330476Y-74747380D02*
X111330476Y-73747380D01*
X111663809Y-74461666D01*
X111997142Y-73747380D01*
X111997142Y-74747380D01*
X112473333Y-74747380D02*
X112473333Y-74080714D01*
X112473333Y-73747380D02*
X112425714Y-73795000D01*
X112473333Y-73842619D01*
X112520952Y-73795000D01*
X112473333Y-73747380D01*
X112473333Y-73842619D01*
X112949523Y-74080714D02*
X112949523Y-74747380D01*
X112949523Y-74175952D02*
X112997142Y-74128333D01*
X113092380Y-74080714D01*
X113235238Y-74080714D01*
X113330476Y-74128333D01*
X113378095Y-74223571D01*
X113378095Y-74747380D01*
X113854285Y-74747380D02*
X113854285Y-74080714D01*
X113854285Y-73747380D02*
X113806666Y-73795000D01*
X113854285Y-73842619D01*
X113901904Y-73795000D01*
X113854285Y-73747380D01*
X113854285Y-73842619D01*
X115425714Y-74223571D02*
X115568571Y-74271190D01*
X115616190Y-74318809D01*
X115663809Y-74414047D01*
X115663809Y-74556904D01*
X115616190Y-74652142D01*
X115568571Y-74699761D01*
X115473333Y-74747380D01*
X115092380Y-74747380D01*
X115092380Y-73747380D01*
X115425714Y-73747380D01*
X115520952Y-73795000D01*
X115568571Y-73842619D01*
X115616190Y-73937857D01*
X115616190Y-74033095D01*
X115568571Y-74128333D01*
X115520952Y-74175952D01*
X115425714Y-74223571D01*
X115092380Y-74223571D01*
X116235238Y-74747380D02*
X116140000Y-74699761D01*
X116092380Y-74652142D01*
X116044761Y-74556904D01*
X116044761Y-74271190D01*
X116092380Y-74175952D01*
X116140000Y-74128333D01*
X116235238Y-74080714D01*
X116378095Y-74080714D01*
X116473333Y-74128333D01*
X116520952Y-74175952D01*
X116568571Y-74271190D01*
X116568571Y-74556904D01*
X116520952Y-74652142D01*
X116473333Y-74699761D01*
X116378095Y-74747380D01*
X116235238Y-74747380D01*
X117425714Y-74747380D02*
X117425714Y-74223571D01*
X117378095Y-74128333D01*
X117282857Y-74080714D01*
X117092380Y-74080714D01*
X116997142Y-74128333D01*
X117425714Y-74699761D02*
X117330476Y-74747380D01*
X117092380Y-74747380D01*
X116997142Y-74699761D01*
X116949523Y-74604523D01*
X116949523Y-74509285D01*
X116997142Y-74414047D01*
X117092380Y-74366428D01*
X117330476Y-74366428D01*
X117425714Y-74318809D01*
X117901904Y-74747380D02*
X117901904Y-74080714D01*
X117901904Y-74271190D02*
X117949523Y-74175952D01*
X117997142Y-74128333D01*
X118092380Y-74080714D01*
X118187619Y-74080714D01*
X118949523Y-74747380D02*
X118949523Y-73747380D01*
X118949523Y-74699761D02*
X118854285Y-74747380D01*
X118663809Y-74747380D01*
X118568571Y-74699761D01*
X118520952Y-74652142D01*
X118473333Y-74556904D01*
X118473333Y-74271190D01*
X118520952Y-74175952D01*
X118568571Y-74128333D01*
X118663809Y-74080714D01*
X118854285Y-74080714D01*
X118949523Y-74128333D01*
D11*
X131572000Y-75311000D02*
X99568000Y-75311000D01*
X131572000Y-131699000D02*
X131572000Y-75311000D01*
X89408000Y-131699000D02*
X131572000Y-131699000D01*
X89408000Y-75311000D02*
X89408000Y-131699000D01*
X99568000Y-75311000D02*
X89408000Y-75311000D01*
X74129737Y-126069000D02*
X72682263Y-126069000D01*
X74129737Y-123359000D02*
X72682263Y-123359000D01*
X60416000Y-128050000D02*
X60416000Y-128206000D01*
X60416000Y-130366000D02*
X60416000Y-130522000D01*
X63017130Y-130365837D02*
G75*
G02*
X60935039Y-130366000I-1041130J1079837D01*
G01*
X63017130Y-128206163D02*
G75*
G03*
X60935039Y-128206000I-1041130J-1079837D01*
G01*
X63648335Y-130364608D02*
G75*
G02*
X60416000Y-130521516I-1672335J1078608D01*
G01*
X63648335Y-128207392D02*
G75*
G03*
X60416000Y-128050484I-1672335J-1078608D01*
G01*
X60416000Y-123478000D02*
X60416000Y-123634000D01*
X60416000Y-125794000D02*
X60416000Y-125950000D01*
X63017130Y-125793837D02*
G75*
G02*
X60935039Y-125794000I-1041130J1079837D01*
G01*
X63017130Y-123634163D02*
G75*
G03*
X60935039Y-123634000I-1041130J-1079837D01*
G01*
X63648335Y-125792608D02*
G75*
G02*
X60416000Y-125949516I-1672335J1078608D01*
G01*
X63648335Y-123635392D02*
G75*
G03*
X60416000Y-123478484I-1672335J-1078608D01*
G01*
X74129737Y-130641000D02*
X72682263Y-130641000D01*
X74129737Y-127931000D02*
X72682263Y-127931000D01*
X67566000Y-102560000D02*
X67566000Y-103490000D01*
X67566000Y-105720000D02*
X67566000Y-104790000D01*
X67566000Y-105720000D02*
X70726000Y-105720000D01*
X67566000Y-102560000D02*
X69026000Y-102560000D01*
X74928000Y-105720000D02*
X74928000Y-104790000D01*
X74928000Y-102560000D02*
X74928000Y-103490000D01*
X74928000Y-102560000D02*
X71768000Y-102560000D01*
X74928000Y-105720000D02*
X73468000Y-105720000D01*
X67566000Y-107640000D02*
X67566000Y-108570000D01*
X67566000Y-110800000D02*
X67566000Y-109870000D01*
X67566000Y-110800000D02*
X70726000Y-110800000D01*
X67566000Y-107640000D02*
X69026000Y-107640000D01*
X74928000Y-110800000D02*
X74928000Y-109870000D01*
X74928000Y-107640000D02*
X74928000Y-108570000D01*
X74928000Y-107640000D02*
X71768000Y-107640000D01*
X74928000Y-110800000D02*
X73468000Y-110800000D01*
X67566000Y-112720000D02*
X67566000Y-113650000D01*
X67566000Y-115880000D02*
X67566000Y-114950000D01*
X67566000Y-115880000D02*
X70726000Y-115880000D01*
X67566000Y-112720000D02*
X69026000Y-112720000D01*
X74928000Y-115880000D02*
X74928000Y-114950000D01*
X74928000Y-112720000D02*
X74928000Y-113650000D01*
X74928000Y-112720000D02*
X71768000Y-112720000D01*
X74928000Y-115880000D02*
X73468000Y-115880000D01*
X67566000Y-117800000D02*
X67566000Y-118730000D01*
X67566000Y-120960000D02*
X67566000Y-120030000D01*
X67566000Y-120960000D02*
X70726000Y-120960000D01*
X67566000Y-117800000D02*
X69026000Y-117800000D01*
X74928000Y-120960000D02*
X74928000Y-120030000D01*
X74928000Y-117800000D02*
X74928000Y-118730000D01*
X74928000Y-117800000D02*
X71768000Y-117800000D01*
X74928000Y-120960000D02*
X73468000Y-120960000D01*
X84785252Y-104542000D02*
X83362748Y-104542000D01*
X84785252Y-102722000D02*
X83362748Y-102722000D01*
X84785252Y-80920000D02*
X83362748Y-80920000D01*
X84785252Y-79100000D02*
X83362748Y-79100000D01*
X99120000Y-119313000D02*
X96520000Y-119313000D01*
X99120000Y-119313000D02*
X99120000Y-93793000D01*
X99120000Y-93793000D02*
X93920000Y-93793000D01*
X93920000Y-116713000D02*
X93920000Y-93793000D01*
X96520000Y-116713000D02*
X93920000Y-116713000D01*
X96520000Y-119313000D02*
X96520000Y-116713000D01*
X93920000Y-119313000D02*
X93920000Y-117983000D01*
X95250000Y-119313000D02*
X93920000Y-119313000D01*
X84074000Y-117916000D02*
X86724000Y-117916000D01*
X84074000Y-117916000D02*
X81424000Y-117916000D01*
X84074000Y-105096000D02*
X86724000Y-105096000D01*
X84074000Y-105096000D02*
X79624000Y-105096000D01*
X84074000Y-94548000D02*
X86724000Y-94548000D01*
X84074000Y-94548000D02*
X81424000Y-94548000D01*
X84074000Y-81728000D02*
X86724000Y-81728000D01*
X84074000Y-81728000D02*
X79624000Y-81728000D01*
X67566000Y-79446000D02*
X69026000Y-79446000D01*
X67566000Y-82606000D02*
X70726000Y-82606000D01*
X67566000Y-82606000D02*
X67566000Y-81676000D01*
X67566000Y-79446000D02*
X67566000Y-80376000D01*
X74928000Y-82606000D02*
X73468000Y-82606000D01*
X74928000Y-79446000D02*
X71768000Y-79446000D01*
X74928000Y-79446000D02*
X74928000Y-80376000D01*
X74928000Y-82606000D02*
X74928000Y-81676000D01*
X67566000Y-84526000D02*
X69026000Y-84526000D01*
X67566000Y-87686000D02*
X70726000Y-87686000D01*
X67566000Y-87686000D02*
X67566000Y-86756000D01*
X67566000Y-84526000D02*
X67566000Y-85456000D01*
X74928000Y-87686000D02*
X73468000Y-87686000D01*
X74928000Y-84526000D02*
X71768000Y-84526000D01*
X74928000Y-84526000D02*
X74928000Y-85456000D01*
X74928000Y-87686000D02*
X74928000Y-86756000D01*
X67566000Y-89606000D02*
X69026000Y-89606000D01*
X67566000Y-92766000D02*
X70726000Y-92766000D01*
X67566000Y-92766000D02*
X67566000Y-91836000D01*
X67566000Y-89606000D02*
X67566000Y-90536000D01*
X74928000Y-92766000D02*
X73468000Y-92766000D01*
X74928000Y-89606000D02*
X71768000Y-89606000D01*
X74928000Y-89606000D02*
X74928000Y-90536000D01*
X74928000Y-92766000D02*
X74928000Y-91836000D01*
X67566000Y-94686000D02*
X69026000Y-94686000D01*
X67566000Y-97846000D02*
X70726000Y-97846000D01*
X67566000Y-97846000D02*
X67566000Y-96916000D01*
X67566000Y-94686000D02*
X67566000Y-95616000D01*
X74928000Y-97846000D02*
X73468000Y-97846000D01*
X74928000Y-94686000D02*
X71768000Y-94686000D01*
X74928000Y-94686000D02*
X74928000Y-95616000D01*
X74928000Y-97846000D02*
X74928000Y-96916000D01*
X127568000Y-119313000D02*
X124968000Y-119313000D01*
X127568000Y-119313000D02*
X127568000Y-93793000D01*
X127568000Y-93793000D02*
X122368000Y-93793000D01*
X122368000Y-116713000D02*
X122368000Y-93793000D01*
X124968000Y-116713000D02*
X122368000Y-116713000D01*
X124968000Y-119313000D02*
X124968000Y-116713000D01*
X122368000Y-119313000D02*
X122368000Y-117983000D01*
X123698000Y-119313000D02*
X122368000Y-119313000D01*
X147812000Y-110916000D02*
X143012000Y-110916000D01*
X156112000Y-110916000D02*
X151312000Y-110916000D01*
X156112000Y-96816000D02*
X156112000Y-110916000D01*
X151312000Y-96816000D02*
X156112000Y-96816000D01*
X143012000Y-96816000D02*
X147812000Y-96816000D01*
X143012000Y-110916000D02*
X143012000Y-96816000D01*
X142312000Y-103116000D02*
X142812000Y-102616000D01*
X142312000Y-102116000D02*
X142312000Y-103116000D01*
X142812000Y-102616000D02*
X142312000Y-102116000D01*
X139760000Y-98492000D02*
X137100000Y-98492000D01*
X139760000Y-106172000D02*
X139760000Y-98492000D01*
X137100000Y-106172000D02*
X137100000Y-98492000D01*
X139760000Y-106172000D02*
X137100000Y-106172000D01*
X139760000Y-107442000D02*
X139760000Y-108772000D01*
X139760000Y-108772000D02*
X138430000Y-108772000D01*
X50616000Y-70418000D02*
X59246000Y-70418000D01*
X50616000Y-70536095D02*
X59246000Y-70536095D01*
X50616000Y-70654190D02*
X59246000Y-70654190D01*
X50616000Y-70772285D02*
X59246000Y-70772285D01*
X50616000Y-70890380D02*
X59246000Y-70890380D01*
X50616000Y-71008475D02*
X59246000Y-71008475D01*
X50616000Y-71126570D02*
X59246000Y-71126570D01*
X50616000Y-71244665D02*
X59246000Y-71244665D01*
X50616000Y-71362760D02*
X59246000Y-71362760D01*
X50616000Y-71480855D02*
X59246000Y-71480855D01*
X50616000Y-71598950D02*
X59246000Y-71598950D01*
X50616000Y-71717045D02*
X59246000Y-71717045D01*
X50616000Y-71835140D02*
X59246000Y-71835140D01*
X50616000Y-71953235D02*
X59246000Y-71953235D01*
X50616000Y-72071330D02*
X59246000Y-72071330D01*
X50616000Y-72189425D02*
X59246000Y-72189425D01*
X50616000Y-72307520D02*
X59246000Y-72307520D01*
X50616000Y-72425615D02*
X59246000Y-72425615D01*
X50616000Y-72543710D02*
X59246000Y-72543710D01*
X50616000Y-72661805D02*
X59246000Y-72661805D01*
X50616000Y-72779900D02*
X59246000Y-72779900D01*
X59246000Y-71268000D02*
X59656000Y-71268000D01*
X61756000Y-71268000D02*
X62136000Y-71268000D01*
X59246000Y-71988000D02*
X59656000Y-71988000D01*
X61756000Y-71988000D02*
X62136000Y-71988000D01*
X59246000Y-73808000D02*
X59656000Y-73808000D01*
X61756000Y-73808000D02*
X62196000Y-73808000D01*
X59246000Y-74528000D02*
X59656000Y-74528000D01*
X61756000Y-74528000D02*
X62196000Y-74528000D01*
X50616000Y-72898000D02*
X59246000Y-72898000D01*
X50616000Y-70298000D02*
X59246000Y-70298000D01*
X59246000Y-70298000D02*
X59246000Y-75498000D01*
X50616000Y-75498000D02*
X59246000Y-75498000D01*
X50616000Y-70298000D02*
X50616000Y-75498000D01*
X64356000Y-70298000D02*
X64356000Y-71628000D01*
X63246000Y-70298000D02*
X64356000Y-70298000D01*
X50616000Y-78546000D02*
X59246000Y-78546000D01*
X50616000Y-78664095D02*
X59246000Y-78664095D01*
X50616000Y-78782190D02*
X59246000Y-78782190D01*
X50616000Y-78900285D02*
X59246000Y-78900285D01*
X50616000Y-79018380D02*
X59246000Y-79018380D01*
X50616000Y-79136475D02*
X59246000Y-79136475D01*
X50616000Y-79254570D02*
X59246000Y-79254570D01*
X50616000Y-79372665D02*
X59246000Y-79372665D01*
X50616000Y-79490760D02*
X59246000Y-79490760D01*
X50616000Y-79608855D02*
X59246000Y-79608855D01*
X50616000Y-79726950D02*
X59246000Y-79726950D01*
X50616000Y-79845045D02*
X59246000Y-79845045D01*
X50616000Y-79963140D02*
X59246000Y-79963140D01*
X50616000Y-80081235D02*
X59246000Y-80081235D01*
X50616000Y-80199330D02*
X59246000Y-80199330D01*
X50616000Y-80317425D02*
X59246000Y-80317425D01*
X50616000Y-80435520D02*
X59246000Y-80435520D01*
X50616000Y-80553615D02*
X59246000Y-80553615D01*
X50616000Y-80671710D02*
X59246000Y-80671710D01*
X50616000Y-80789805D02*
X59246000Y-80789805D01*
X50616000Y-80907900D02*
X59246000Y-80907900D01*
X59246000Y-79396000D02*
X59656000Y-79396000D01*
X61756000Y-79396000D02*
X62136000Y-79396000D01*
X59246000Y-80116000D02*
X59656000Y-80116000D01*
X61756000Y-80116000D02*
X62136000Y-80116000D01*
X59246000Y-81936000D02*
X59656000Y-81936000D01*
X61756000Y-81936000D02*
X62196000Y-81936000D01*
X59246000Y-82656000D02*
X59656000Y-82656000D01*
X61756000Y-82656000D02*
X62196000Y-82656000D01*
X59246000Y-84476000D02*
X59656000Y-84476000D01*
X61756000Y-84476000D02*
X62196000Y-84476000D01*
X59246000Y-85196000D02*
X59656000Y-85196000D01*
X61756000Y-85196000D02*
X62196000Y-85196000D01*
X59246000Y-87016000D02*
X59656000Y-87016000D01*
X61756000Y-87016000D02*
X62196000Y-87016000D01*
X59246000Y-87736000D02*
X59656000Y-87736000D01*
X61756000Y-87736000D02*
X62196000Y-87736000D01*
X59246000Y-89556000D02*
X59656000Y-89556000D01*
X61756000Y-89556000D02*
X62196000Y-89556000D01*
X59246000Y-90276000D02*
X59656000Y-90276000D01*
X61756000Y-90276000D02*
X62196000Y-90276000D01*
X59246000Y-92096000D02*
X59656000Y-92096000D01*
X61756000Y-92096000D02*
X62196000Y-92096000D01*
X59246000Y-92816000D02*
X59656000Y-92816000D01*
X61756000Y-92816000D02*
X62196000Y-92816000D01*
X59246000Y-94636000D02*
X59656000Y-94636000D01*
X61756000Y-94636000D02*
X62196000Y-94636000D01*
X59246000Y-95356000D02*
X59656000Y-95356000D01*
X61756000Y-95356000D02*
X62196000Y-95356000D01*
X59246000Y-97176000D02*
X59656000Y-97176000D01*
X61756000Y-97176000D02*
X62196000Y-97176000D01*
X59246000Y-97896000D02*
X59656000Y-97896000D01*
X61756000Y-97896000D02*
X62196000Y-97896000D01*
X50616000Y-81026000D02*
X59246000Y-81026000D01*
X50616000Y-83566000D02*
X59246000Y-83566000D01*
X50616000Y-86106000D02*
X59246000Y-86106000D01*
X50616000Y-88646000D02*
X59246000Y-88646000D01*
X50616000Y-91186000D02*
X59246000Y-91186000D01*
X50616000Y-93726000D02*
X59246000Y-93726000D01*
X50616000Y-96266000D02*
X59246000Y-96266000D01*
X50616000Y-78426000D02*
X59246000Y-78426000D01*
X59246000Y-78426000D02*
X59246000Y-98866000D01*
X50616000Y-98866000D02*
X59246000Y-98866000D01*
X50616000Y-78426000D02*
X50616000Y-98866000D01*
X64356000Y-78426000D02*
X64356000Y-79756000D01*
X63246000Y-78426000D02*
X64356000Y-78426000D01*
X50616000Y-101660000D02*
X59246000Y-101660000D01*
X50616000Y-101778095D02*
X59246000Y-101778095D01*
X50616000Y-101896190D02*
X59246000Y-101896190D01*
X50616000Y-102014285D02*
X59246000Y-102014285D01*
X50616000Y-102132380D02*
X59246000Y-102132380D01*
X50616000Y-102250475D02*
X59246000Y-102250475D01*
X50616000Y-102368570D02*
X59246000Y-102368570D01*
X50616000Y-102486665D02*
X59246000Y-102486665D01*
X50616000Y-102604760D02*
X59246000Y-102604760D01*
X50616000Y-102722855D02*
X59246000Y-102722855D01*
X50616000Y-102840950D02*
X59246000Y-102840950D01*
X50616000Y-102959045D02*
X59246000Y-102959045D01*
X50616000Y-103077140D02*
X59246000Y-103077140D01*
X50616000Y-103195235D02*
X59246000Y-103195235D01*
X50616000Y-103313330D02*
X59246000Y-103313330D01*
X50616000Y-103431425D02*
X59246000Y-103431425D01*
X50616000Y-103549520D02*
X59246000Y-103549520D01*
X50616000Y-103667615D02*
X59246000Y-103667615D01*
X50616000Y-103785710D02*
X59246000Y-103785710D01*
X50616000Y-103903805D02*
X59246000Y-103903805D01*
X50616000Y-104021900D02*
X59246000Y-104021900D01*
X59246000Y-102510000D02*
X59656000Y-102510000D01*
X61756000Y-102510000D02*
X62136000Y-102510000D01*
X59246000Y-103230000D02*
X59656000Y-103230000D01*
X61756000Y-103230000D02*
X62136000Y-103230000D01*
X59246000Y-105050000D02*
X59656000Y-105050000D01*
X61756000Y-105050000D02*
X62196000Y-105050000D01*
X59246000Y-105770000D02*
X59656000Y-105770000D01*
X61756000Y-105770000D02*
X62196000Y-105770000D01*
X59246000Y-107590000D02*
X59656000Y-107590000D01*
X61756000Y-107590000D02*
X62196000Y-107590000D01*
X59246000Y-108310000D02*
X59656000Y-108310000D01*
X61756000Y-108310000D02*
X62196000Y-108310000D01*
X59246000Y-110130000D02*
X59656000Y-110130000D01*
X61756000Y-110130000D02*
X62196000Y-110130000D01*
X59246000Y-110850000D02*
X59656000Y-110850000D01*
X61756000Y-110850000D02*
X62196000Y-110850000D01*
X59246000Y-112670000D02*
X59656000Y-112670000D01*
X61756000Y-112670000D02*
X62196000Y-112670000D01*
X59246000Y-113390000D02*
X59656000Y-113390000D01*
X61756000Y-113390000D02*
X62196000Y-113390000D01*
X59246000Y-115210000D02*
X59656000Y-115210000D01*
X61756000Y-115210000D02*
X62196000Y-115210000D01*
X59246000Y-115930000D02*
X59656000Y-115930000D01*
X61756000Y-115930000D02*
X62196000Y-115930000D01*
X59246000Y-117750000D02*
X59656000Y-117750000D01*
X61756000Y-117750000D02*
X62196000Y-117750000D01*
X59246000Y-118470000D02*
X59656000Y-118470000D01*
X61756000Y-118470000D02*
X62196000Y-118470000D01*
X59246000Y-120290000D02*
X59656000Y-120290000D01*
X61756000Y-120290000D02*
X62196000Y-120290000D01*
X59246000Y-121010000D02*
X59656000Y-121010000D01*
X61756000Y-121010000D02*
X62196000Y-121010000D01*
X50616000Y-104140000D02*
X59246000Y-104140000D01*
X50616000Y-106680000D02*
X59246000Y-106680000D01*
X50616000Y-109220000D02*
X59246000Y-109220000D01*
X50616000Y-111760000D02*
X59246000Y-111760000D01*
X50616000Y-114300000D02*
X59246000Y-114300000D01*
X50616000Y-116840000D02*
X59246000Y-116840000D01*
X50616000Y-119380000D02*
X59246000Y-119380000D01*
X50616000Y-101540000D02*
X59246000Y-101540000D01*
X59246000Y-101540000D02*
X59246000Y-121980000D01*
X50616000Y-121980000D02*
X59246000Y-121980000D01*
X50616000Y-101540000D02*
X50616000Y-121980000D01*
X64356000Y-101540000D02*
X64356000Y-102870000D01*
X63246000Y-101540000D02*
X64356000Y-101540000D01*
D10*
X69683333Y-123642380D02*
X69350000Y-123166190D01*
X69111904Y-123642380D02*
X69111904Y-122642380D01*
X69492857Y-122642380D01*
X69588095Y-122690000D01*
X69635714Y-122737619D01*
X69683333Y-122832857D01*
X69683333Y-122975714D01*
X69635714Y-123070952D01*
X69588095Y-123118571D01*
X69492857Y-123166190D01*
X69111904Y-123166190D01*
X70635714Y-123642380D02*
X70064285Y-123642380D01*
X70350000Y-123642380D02*
X70350000Y-122642380D01*
X70254761Y-122785238D01*
X70159523Y-122880476D01*
X70064285Y-122928095D01*
X64825714Y-131262380D02*
X64825714Y-130262380D01*
X65063809Y-130262380D01*
X65206666Y-130310000D01*
X65301904Y-130405238D01*
X65349523Y-130500476D01*
X65397142Y-130690952D01*
X65397142Y-130833809D01*
X65349523Y-131024285D01*
X65301904Y-131119523D01*
X65206666Y-131214761D01*
X65063809Y-131262380D01*
X64825714Y-131262380D01*
X66349523Y-131262380D02*
X65778095Y-131262380D01*
X66063809Y-131262380D02*
X66063809Y-130262380D01*
X65968571Y-130405238D01*
X65873333Y-130500476D01*
X65778095Y-130548095D01*
X66920952Y-130690952D02*
X66825714Y-130643333D01*
X66778095Y-130595714D01*
X66730476Y-130500476D01*
X66730476Y-130452857D01*
X66778095Y-130357619D01*
X66825714Y-130310000D01*
X66920952Y-130262380D01*
X67111428Y-130262380D01*
X67206666Y-130310000D01*
X67254285Y-130357619D01*
X67301904Y-130452857D01*
X67301904Y-130500476D01*
X67254285Y-130595714D01*
X67206666Y-130643333D01*
X67111428Y-130690952D01*
X66920952Y-130690952D01*
X66825714Y-130738571D01*
X66778095Y-130786190D01*
X66730476Y-130881428D01*
X66730476Y-131071904D01*
X66778095Y-131167142D01*
X66825714Y-131214761D01*
X66920952Y-131262380D01*
X67111428Y-131262380D01*
X67206666Y-131214761D01*
X67254285Y-131167142D01*
X67301904Y-131071904D01*
X67301904Y-130881428D01*
X67254285Y-130786190D01*
X67206666Y-130738571D01*
X67111428Y-130690952D01*
X64825714Y-125166380D02*
X64825714Y-124166380D01*
X65063809Y-124166380D01*
X65206666Y-124214000D01*
X65301904Y-124309238D01*
X65349523Y-124404476D01*
X65397142Y-124594952D01*
X65397142Y-124737809D01*
X65349523Y-124928285D01*
X65301904Y-125023523D01*
X65206666Y-125118761D01*
X65063809Y-125166380D01*
X64825714Y-125166380D01*
X66349523Y-125166380D02*
X65778095Y-125166380D01*
X66063809Y-125166380D02*
X66063809Y-124166380D01*
X65968571Y-124309238D01*
X65873333Y-124404476D01*
X65778095Y-124452095D01*
X66682857Y-124166380D02*
X67349523Y-124166380D01*
X66920952Y-125166380D01*
X76795333Y-131516380D02*
X76462000Y-131040190D01*
X76223904Y-131516380D02*
X76223904Y-130516380D01*
X76604857Y-130516380D01*
X76700095Y-130564000D01*
X76747714Y-130611619D01*
X76795333Y-130706857D01*
X76795333Y-130849714D01*
X76747714Y-130944952D01*
X76700095Y-130992571D01*
X76604857Y-131040190D01*
X76223904Y-131040190D01*
X77176285Y-130611619D02*
X77223904Y-130564000D01*
X77319142Y-130516380D01*
X77557238Y-130516380D01*
X77652476Y-130564000D01*
X77700095Y-130611619D01*
X77747714Y-130706857D01*
X77747714Y-130802095D01*
X77700095Y-130944952D01*
X77128666Y-131516380D01*
X77747714Y-131516380D01*
X67111714Y-107092380D02*
X67111714Y-106092380D01*
X67349809Y-106092380D01*
X67492666Y-106140000D01*
X67587904Y-106235238D01*
X67635523Y-106330476D01*
X67683142Y-106520952D01*
X67683142Y-106663809D01*
X67635523Y-106854285D01*
X67587904Y-106949523D01*
X67492666Y-107044761D01*
X67349809Y-107092380D01*
X67111714Y-107092380D01*
X68635523Y-107092380D02*
X68064095Y-107092380D01*
X68349809Y-107092380D02*
X68349809Y-106092380D01*
X68254571Y-106235238D01*
X68159333Y-106330476D01*
X68064095Y-106378095D01*
X69492666Y-106092380D02*
X69302190Y-106092380D01*
X69206952Y-106140000D01*
X69159333Y-106187619D01*
X69064095Y-106330476D01*
X69016476Y-106520952D01*
X69016476Y-106901904D01*
X69064095Y-106997142D01*
X69111714Y-107044761D01*
X69206952Y-107092380D01*
X69397428Y-107092380D01*
X69492666Y-107044761D01*
X69540285Y-106997142D01*
X69587904Y-106901904D01*
X69587904Y-106663809D01*
X69540285Y-106568571D01*
X69492666Y-106520952D01*
X69397428Y-106473333D01*
X69206952Y-106473333D01*
X69111714Y-106520952D01*
X69064095Y-106568571D01*
X69016476Y-106663809D01*
X72953714Y-107132380D02*
X72953714Y-106132380D01*
X73191809Y-106132380D01*
X73334666Y-106180000D01*
X73429904Y-106275238D01*
X73477523Y-106370476D01*
X73525142Y-106560952D01*
X73525142Y-106703809D01*
X73477523Y-106894285D01*
X73429904Y-106989523D01*
X73334666Y-107084761D01*
X73191809Y-107132380D01*
X72953714Y-107132380D01*
X74477523Y-107132380D02*
X73906095Y-107132380D01*
X74191809Y-107132380D02*
X74191809Y-106132380D01*
X74096571Y-106275238D01*
X74001333Y-106370476D01*
X73906095Y-106418095D01*
X75382285Y-106132380D02*
X74906095Y-106132380D01*
X74858476Y-106608571D01*
X74906095Y-106560952D01*
X75001333Y-106513333D01*
X75239428Y-106513333D01*
X75334666Y-106560952D01*
X75382285Y-106608571D01*
X75429904Y-106703809D01*
X75429904Y-106941904D01*
X75382285Y-107037142D01*
X75334666Y-107084761D01*
X75239428Y-107132380D01*
X75001333Y-107132380D01*
X74906095Y-107084761D01*
X74858476Y-107037142D01*
X67619714Y-112172380D02*
X67619714Y-111172380D01*
X67857809Y-111172380D01*
X68000666Y-111220000D01*
X68095904Y-111315238D01*
X68143523Y-111410476D01*
X68191142Y-111600952D01*
X68191142Y-111743809D01*
X68143523Y-111934285D01*
X68095904Y-112029523D01*
X68000666Y-112124761D01*
X67857809Y-112172380D01*
X67619714Y-112172380D01*
X69143523Y-112172380D02*
X68572095Y-112172380D01*
X68857809Y-112172380D02*
X68857809Y-111172380D01*
X68762571Y-111315238D01*
X68667333Y-111410476D01*
X68572095Y-111458095D01*
X70000666Y-111505714D02*
X70000666Y-112172380D01*
X69762571Y-111124761D02*
X69524476Y-111839047D01*
X70143523Y-111839047D01*
X72953714Y-112212380D02*
X72953714Y-111212380D01*
X73191809Y-111212380D01*
X73334666Y-111260000D01*
X73429904Y-111355238D01*
X73477523Y-111450476D01*
X73525142Y-111640952D01*
X73525142Y-111783809D01*
X73477523Y-111974285D01*
X73429904Y-112069523D01*
X73334666Y-112164761D01*
X73191809Y-112212380D01*
X72953714Y-112212380D01*
X74477523Y-112212380D02*
X73906095Y-112212380D01*
X74191809Y-112212380D02*
X74191809Y-111212380D01*
X74096571Y-111355238D01*
X74001333Y-111450476D01*
X73906095Y-111498095D01*
X74810857Y-111212380D02*
X75429904Y-111212380D01*
X75096571Y-111593333D01*
X75239428Y-111593333D01*
X75334666Y-111640952D01*
X75382285Y-111688571D01*
X75429904Y-111783809D01*
X75429904Y-112021904D01*
X75382285Y-112117142D01*
X75334666Y-112164761D01*
X75239428Y-112212380D01*
X74953714Y-112212380D01*
X74858476Y-112164761D01*
X74810857Y-112117142D01*
X67111714Y-117292380D02*
X67111714Y-116292380D01*
X67349809Y-116292380D01*
X67492666Y-116340000D01*
X67587904Y-116435238D01*
X67635523Y-116530476D01*
X67683142Y-116720952D01*
X67683142Y-116863809D01*
X67635523Y-117054285D01*
X67587904Y-117149523D01*
X67492666Y-117244761D01*
X67349809Y-117292380D01*
X67111714Y-117292380D01*
X68635523Y-117292380D02*
X68064095Y-117292380D01*
X68349809Y-117292380D02*
X68349809Y-116292380D01*
X68254571Y-116435238D01*
X68159333Y-116530476D01*
X68064095Y-116578095D01*
X69016476Y-116387619D02*
X69064095Y-116340000D01*
X69159333Y-116292380D01*
X69397428Y-116292380D01*
X69492666Y-116340000D01*
X69540285Y-116387619D01*
X69587904Y-116482857D01*
X69587904Y-116578095D01*
X69540285Y-116720952D01*
X68968857Y-117292380D01*
X69587904Y-117292380D01*
X72953714Y-117292380D02*
X72953714Y-116292380D01*
X73191809Y-116292380D01*
X73334666Y-116340000D01*
X73429904Y-116435238D01*
X73477523Y-116530476D01*
X73525142Y-116720952D01*
X73525142Y-116863809D01*
X73477523Y-117054285D01*
X73429904Y-117149523D01*
X73334666Y-117244761D01*
X73191809Y-117292380D01*
X72953714Y-117292380D01*
X74477523Y-117292380D02*
X73906095Y-117292380D01*
X74191809Y-117292380D02*
X74191809Y-116292380D01*
X74096571Y-116435238D01*
X74001333Y-116530476D01*
X73906095Y-116578095D01*
X75429904Y-117292380D02*
X74858476Y-117292380D01*
X75144190Y-117292380D02*
X75144190Y-116292380D01*
X75048952Y-116435238D01*
X74953714Y-116530476D01*
X74858476Y-116578095D01*
X67111714Y-122332380D02*
X67111714Y-121332380D01*
X67349809Y-121332380D01*
X67492666Y-121380000D01*
X67587904Y-121475238D01*
X67635523Y-121570476D01*
X67683142Y-121760952D01*
X67683142Y-121903809D01*
X67635523Y-122094285D01*
X67587904Y-122189523D01*
X67492666Y-122284761D01*
X67349809Y-122332380D01*
X67111714Y-122332380D01*
X68635523Y-122332380D02*
X68064095Y-122332380D01*
X68349809Y-122332380D02*
X68349809Y-121332380D01*
X68254571Y-121475238D01*
X68159333Y-121570476D01*
X68064095Y-121618095D01*
X69254571Y-121332380D02*
X69349809Y-121332380D01*
X69445047Y-121380000D01*
X69492666Y-121427619D01*
X69540285Y-121522857D01*
X69587904Y-121713333D01*
X69587904Y-121951428D01*
X69540285Y-122141904D01*
X69492666Y-122237142D01*
X69445047Y-122284761D01*
X69349809Y-122332380D01*
X69254571Y-122332380D01*
X69159333Y-122284761D01*
X69111714Y-122237142D01*
X69064095Y-122141904D01*
X69016476Y-121951428D01*
X69016476Y-121713333D01*
X69064095Y-121522857D01*
X69111714Y-121427619D01*
X69159333Y-121380000D01*
X69254571Y-121332380D01*
X73429904Y-122372380D02*
X73429904Y-121372380D01*
X73668000Y-121372380D01*
X73810857Y-121420000D01*
X73906095Y-121515238D01*
X73953714Y-121610476D01*
X74001333Y-121800952D01*
X74001333Y-121943809D01*
X73953714Y-122134285D01*
X73906095Y-122229523D01*
X73810857Y-122324761D01*
X73668000Y-122372380D01*
X73429904Y-122372380D01*
X74477523Y-122372380D02*
X74668000Y-122372380D01*
X74763238Y-122324761D01*
X74810857Y-122277142D01*
X74906095Y-122134285D01*
X74953714Y-121943809D01*
X74953714Y-121562857D01*
X74906095Y-121467619D01*
X74858476Y-121420000D01*
X74763238Y-121372380D01*
X74572761Y-121372380D01*
X74477523Y-121420000D01*
X74429904Y-121467619D01*
X74382285Y-121562857D01*
X74382285Y-121800952D01*
X74429904Y-121896190D01*
X74477523Y-121943809D01*
X74572761Y-121991428D01*
X74763238Y-121991428D01*
X74858476Y-121943809D01*
X74906095Y-121896190D01*
X74953714Y-121800952D01*
X87463333Y-103481142D02*
X87415714Y-103528761D01*
X87272857Y-103576380D01*
X87177619Y-103576380D01*
X87034761Y-103528761D01*
X86939523Y-103433523D01*
X86891904Y-103338285D01*
X86844285Y-103147809D01*
X86844285Y-103004952D01*
X86891904Y-102814476D01*
X86939523Y-102719238D01*
X87034761Y-102624000D01*
X87177619Y-102576380D01*
X87272857Y-102576380D01*
X87415714Y-102624000D01*
X87463333Y-102671619D01*
X87844285Y-102671619D02*
X87891904Y-102624000D01*
X87987142Y-102576380D01*
X88225238Y-102576380D01*
X88320476Y-102624000D01*
X88368095Y-102671619D01*
X88415714Y-102766857D01*
X88415714Y-102862095D01*
X88368095Y-103004952D01*
X87796666Y-103576380D01*
X88415714Y-103576380D01*
X87463333Y-79859142D02*
X87415714Y-79906761D01*
X87272857Y-79954380D01*
X87177619Y-79954380D01*
X87034761Y-79906761D01*
X86939523Y-79811523D01*
X86891904Y-79716285D01*
X86844285Y-79525809D01*
X86844285Y-79382952D01*
X86891904Y-79192476D01*
X86939523Y-79097238D01*
X87034761Y-79002000D01*
X87177619Y-78954380D01*
X87272857Y-78954380D01*
X87415714Y-79002000D01*
X87463333Y-79049619D01*
X88415714Y-79954380D02*
X87844285Y-79954380D01*
X88130000Y-79954380D02*
X88130000Y-78954380D01*
X88034761Y-79097238D01*
X87939523Y-79192476D01*
X87844285Y-79240095D01*
X92162380Y-119332333D02*
X92876666Y-119332333D01*
X93019523Y-119379952D01*
X93114761Y-119475190D01*
X93162380Y-119618047D01*
X93162380Y-119713285D01*
X93162380Y-118332333D02*
X93162380Y-118903761D01*
X93162380Y-118618047D02*
X92162380Y-118618047D01*
X92305238Y-118713285D01*
X92400476Y-118808523D01*
X92448095Y-118903761D01*
X79502095Y-103708380D02*
X79502095Y-104517904D01*
X79549714Y-104613142D01*
X79597333Y-104660761D01*
X79692571Y-104708380D01*
X79883047Y-104708380D01*
X79978285Y-104660761D01*
X80025904Y-104613142D01*
X80073523Y-104517904D01*
X80073523Y-103708380D01*
X80502095Y-103803619D02*
X80549714Y-103756000D01*
X80644952Y-103708380D01*
X80883047Y-103708380D01*
X80978285Y-103756000D01*
X81025904Y-103803619D01*
X81073523Y-103898857D01*
X81073523Y-103994095D01*
X81025904Y-104136952D01*
X80454476Y-104708380D01*
X81073523Y-104708380D01*
X79502095Y-80340380D02*
X79502095Y-81149904D01*
X79549714Y-81245142D01*
X79597333Y-81292761D01*
X79692571Y-81340380D01*
X79883047Y-81340380D01*
X79978285Y-81292761D01*
X80025904Y-81245142D01*
X80073523Y-81149904D01*
X80073523Y-80340380D01*
X81073523Y-81340380D02*
X80502095Y-81340380D01*
X80787809Y-81340380D02*
X80787809Y-80340380D01*
X80692571Y-80483238D01*
X80597333Y-80578476D01*
X80502095Y-80626095D01*
X67587904Y-83978380D02*
X67587904Y-82978380D01*
X67826000Y-82978380D01*
X67968857Y-83026000D01*
X68064095Y-83121238D01*
X68111714Y-83216476D01*
X68159333Y-83406952D01*
X68159333Y-83549809D01*
X68111714Y-83740285D01*
X68064095Y-83835523D01*
X67968857Y-83930761D01*
X67826000Y-83978380D01*
X67587904Y-83978380D01*
X68730761Y-83406952D02*
X68635523Y-83359333D01*
X68587904Y-83311714D01*
X68540285Y-83216476D01*
X68540285Y-83168857D01*
X68587904Y-83073619D01*
X68635523Y-83026000D01*
X68730761Y-82978380D01*
X68921238Y-82978380D01*
X69016476Y-83026000D01*
X69064095Y-83073619D01*
X69111714Y-83168857D01*
X69111714Y-83216476D01*
X69064095Y-83311714D01*
X69016476Y-83359333D01*
X68921238Y-83406952D01*
X68730761Y-83406952D01*
X68635523Y-83454571D01*
X68587904Y-83502190D01*
X68540285Y-83597428D01*
X68540285Y-83787904D01*
X68587904Y-83883142D01*
X68635523Y-83930761D01*
X68730761Y-83978380D01*
X68921238Y-83978380D01*
X69016476Y-83930761D01*
X69064095Y-83883142D01*
X69111714Y-83787904D01*
X69111714Y-83597428D01*
X69064095Y-83502190D01*
X69016476Y-83454571D01*
X68921238Y-83406952D01*
X73429904Y-84018380D02*
X73429904Y-83018380D01*
X73668000Y-83018380D01*
X73810857Y-83066000D01*
X73906095Y-83161238D01*
X73953714Y-83256476D01*
X74001333Y-83446952D01*
X74001333Y-83589809D01*
X73953714Y-83780285D01*
X73906095Y-83875523D01*
X73810857Y-83970761D01*
X73668000Y-84018380D01*
X73429904Y-84018380D01*
X74334666Y-83018380D02*
X75001333Y-83018380D01*
X74572761Y-84018380D01*
X67587904Y-89058380D02*
X67587904Y-88058380D01*
X67826000Y-88058380D01*
X67968857Y-88106000D01*
X68064095Y-88201238D01*
X68111714Y-88296476D01*
X68159333Y-88486952D01*
X68159333Y-88629809D01*
X68111714Y-88820285D01*
X68064095Y-88915523D01*
X67968857Y-89010761D01*
X67826000Y-89058380D01*
X67587904Y-89058380D01*
X69016476Y-88058380D02*
X68826000Y-88058380D01*
X68730761Y-88106000D01*
X68683142Y-88153619D01*
X68587904Y-88296476D01*
X68540285Y-88486952D01*
X68540285Y-88867904D01*
X68587904Y-88963142D01*
X68635523Y-89010761D01*
X68730761Y-89058380D01*
X68921238Y-89058380D01*
X69016476Y-89010761D01*
X69064095Y-88963142D01*
X69111714Y-88867904D01*
X69111714Y-88629809D01*
X69064095Y-88534571D01*
X69016476Y-88486952D01*
X68921238Y-88439333D01*
X68730761Y-88439333D01*
X68635523Y-88486952D01*
X68587904Y-88534571D01*
X68540285Y-88629809D01*
X73429904Y-89098380D02*
X73429904Y-88098380D01*
X73668000Y-88098380D01*
X73810857Y-88146000D01*
X73906095Y-88241238D01*
X73953714Y-88336476D01*
X74001333Y-88526952D01*
X74001333Y-88669809D01*
X73953714Y-88860285D01*
X73906095Y-88955523D01*
X73810857Y-89050761D01*
X73668000Y-89098380D01*
X73429904Y-89098380D01*
X74906095Y-88098380D02*
X74429904Y-88098380D01*
X74382285Y-88574571D01*
X74429904Y-88526952D01*
X74525142Y-88479333D01*
X74763238Y-88479333D01*
X74858476Y-88526952D01*
X74906095Y-88574571D01*
X74953714Y-88669809D01*
X74953714Y-88907904D01*
X74906095Y-89003142D01*
X74858476Y-89050761D01*
X74763238Y-89098380D01*
X74525142Y-89098380D01*
X74429904Y-89050761D01*
X74382285Y-89003142D01*
X67587904Y-94138380D02*
X67587904Y-93138380D01*
X67826000Y-93138380D01*
X67968857Y-93186000D01*
X68064095Y-93281238D01*
X68111714Y-93376476D01*
X68159333Y-93566952D01*
X68159333Y-93709809D01*
X68111714Y-93900285D01*
X68064095Y-93995523D01*
X67968857Y-94090761D01*
X67826000Y-94138380D01*
X67587904Y-94138380D01*
X69016476Y-93471714D02*
X69016476Y-94138380D01*
X68778380Y-93090761D02*
X68540285Y-93805047D01*
X69159333Y-93805047D01*
X73429904Y-94178380D02*
X73429904Y-93178380D01*
X73668000Y-93178380D01*
X73810857Y-93226000D01*
X73906095Y-93321238D01*
X73953714Y-93416476D01*
X74001333Y-93606952D01*
X74001333Y-93749809D01*
X73953714Y-93940285D01*
X73906095Y-94035523D01*
X73810857Y-94130761D01*
X73668000Y-94178380D01*
X73429904Y-94178380D01*
X74334666Y-93178380D02*
X74953714Y-93178380D01*
X74620380Y-93559333D01*
X74763238Y-93559333D01*
X74858476Y-93606952D01*
X74906095Y-93654571D01*
X74953714Y-93749809D01*
X74953714Y-93987904D01*
X74906095Y-94083142D01*
X74858476Y-94130761D01*
X74763238Y-94178380D01*
X74477523Y-94178380D01*
X74382285Y-94130761D01*
X74334666Y-94083142D01*
X67587904Y-99218380D02*
X67587904Y-98218380D01*
X67826000Y-98218380D01*
X67968857Y-98266000D01*
X68064095Y-98361238D01*
X68111714Y-98456476D01*
X68159333Y-98646952D01*
X68159333Y-98789809D01*
X68111714Y-98980285D01*
X68064095Y-99075523D01*
X67968857Y-99170761D01*
X67826000Y-99218380D01*
X67587904Y-99218380D01*
X68540285Y-98313619D02*
X68587904Y-98266000D01*
X68683142Y-98218380D01*
X68921238Y-98218380D01*
X69016476Y-98266000D01*
X69064095Y-98313619D01*
X69111714Y-98408857D01*
X69111714Y-98504095D01*
X69064095Y-98646952D01*
X68492666Y-99218380D01*
X69111714Y-99218380D01*
X73429904Y-99258380D02*
X73429904Y-98258380D01*
X73668000Y-98258380D01*
X73810857Y-98306000D01*
X73906095Y-98401238D01*
X73953714Y-98496476D01*
X74001333Y-98686952D01*
X74001333Y-98829809D01*
X73953714Y-99020285D01*
X73906095Y-99115523D01*
X73810857Y-99210761D01*
X73668000Y-99258380D01*
X73429904Y-99258380D01*
X74953714Y-99258380D02*
X74382285Y-99258380D01*
X74668000Y-99258380D02*
X74668000Y-98258380D01*
X74572761Y-98401238D01*
X74477523Y-98496476D01*
X74382285Y-98544095D01*
X120610380Y-119332333D02*
X121324666Y-119332333D01*
X121467523Y-119379952D01*
X121562761Y-119475190D01*
X121610380Y-119618047D01*
X121610380Y-119713285D01*
X120610380Y-118951380D02*
X120610380Y-118332333D01*
X120991333Y-118665666D01*
X120991333Y-118522809D01*
X121038952Y-118427571D01*
X121086571Y-118379952D01*
X121181809Y-118332333D01*
X121419904Y-118332333D01*
X121515142Y-118379952D01*
X121562761Y-118427571D01*
X121610380Y-118522809D01*
X121610380Y-118808523D01*
X121562761Y-118903761D01*
X121515142Y-118951380D01*
X143430666Y-95464380D02*
X143430666Y-96178666D01*
X143383047Y-96321523D01*
X143287809Y-96416761D01*
X143144952Y-96464380D01*
X143049714Y-96464380D01*
X144335428Y-95464380D02*
X144144952Y-95464380D01*
X144049714Y-95512000D01*
X144002095Y-95559619D01*
X143906857Y-95702476D01*
X143859238Y-95892952D01*
X143859238Y-96273904D01*
X143906857Y-96369142D01*
X143954476Y-96416761D01*
X144049714Y-96464380D01*
X144240190Y-96464380D01*
X144335428Y-96416761D01*
X144383047Y-96369142D01*
X144430666Y-96273904D01*
X144430666Y-96035809D01*
X144383047Y-95940571D01*
X144335428Y-95892952D01*
X144240190Y-95845333D01*
X144049714Y-95845333D01*
X143954476Y-95892952D01*
X143906857Y-95940571D01*
X143859238Y-96035809D01*
X137588666Y-96988380D02*
X137588666Y-97702666D01*
X137541047Y-97845523D01*
X137445809Y-97940761D01*
X137302952Y-97988380D01*
X137207714Y-97988380D01*
X137969619Y-96988380D02*
X138636285Y-96988380D01*
X138207714Y-97988380D01*
X65198666Y-74382380D02*
X65198666Y-75096666D01*
X65151047Y-75239523D01*
X65055809Y-75334761D01*
X64912952Y-75382380D01*
X64817714Y-75382380D01*
X66151047Y-74382380D02*
X65674857Y-74382380D01*
X65627238Y-74858571D01*
X65674857Y-74810952D01*
X65770095Y-74763333D01*
X66008190Y-74763333D01*
X66103428Y-74810952D01*
X66151047Y-74858571D01*
X66198666Y-74953809D01*
X66198666Y-75191904D01*
X66151047Y-75287142D01*
X66103428Y-75334761D01*
X66008190Y-75382380D01*
X65770095Y-75382380D01*
X65674857Y-75334761D01*
X65627238Y-75287142D01*
X64944666Y-77938380D02*
X64944666Y-78652666D01*
X64897047Y-78795523D01*
X64801809Y-78890761D01*
X64658952Y-78938380D01*
X64563714Y-78938380D01*
X65849428Y-78271714D02*
X65849428Y-78938380D01*
X65611333Y-77890761D02*
X65373238Y-78605047D01*
X65992285Y-78605047D01*
X64944666Y-101052380D02*
X64944666Y-101766666D01*
X64897047Y-101909523D01*
X64801809Y-102004761D01*
X64658952Y-102052380D01*
X64563714Y-102052380D01*
X65373238Y-101147619D02*
X65420857Y-101100000D01*
X65516095Y-101052380D01*
X65754190Y-101052380D01*
X65849428Y-101100000D01*
X65897047Y-101147619D01*
X65944666Y-101242857D01*
X65944666Y-101338095D01*
X65897047Y-101480952D01*
X65325619Y-102052380D01*
X65944666Y-102052380D01*
%LPC*%
G36*
G01*
X72506000Y-123639000D02*
X72506000Y-125789000D01*
G75*
G02*
X72256000Y-126039000I-250000J0D01*
G01*
X71456000Y-126039000D01*
G75*
G02*
X71206000Y-125789000I0J250000D01*
G01*
X71206000Y-123639000D01*
G75*
G02*
X71456000Y-123389000I250000J0D01*
G01*
X72256000Y-123389000D01*
G75*
G02*
X72506000Y-123639000I0J-250000D01*
G01*
G37*
G36*
G01*
X75606000Y-123639000D02*
X75606000Y-125789000D01*
G75*
G02*
X75356000Y-126039000I-250000J0D01*
G01*
X74556000Y-126039000D01*
G75*
G02*
X74306000Y-125789000I0J250000D01*
G01*
X74306000Y-123639000D01*
G75*
G02*
X74556000Y-123389000I250000J0D01*
G01*
X75356000Y-123389000D01*
G75*
G02*
X75606000Y-123639000I0J-250000D01*
G01*
G37*
D12*
X63246000Y-129286000D03*
D13*
X60706000Y-129286000D03*
D12*
X63246000Y-124714000D03*
D13*
X60706000Y-124714000D03*
G36*
G01*
X72506000Y-128211000D02*
X72506000Y-130361000D01*
G75*
G02*
X72256000Y-130611000I-250000J0D01*
G01*
X71456000Y-130611000D01*
G75*
G02*
X71206000Y-130361000I0J250000D01*
G01*
X71206000Y-128211000D01*
G75*
G02*
X71456000Y-127961000I250000J0D01*
G01*
X72256000Y-127961000D01*
G75*
G02*
X72506000Y-128211000I0J-250000D01*
G01*
G37*
G36*
G01*
X75606000Y-128211000D02*
X75606000Y-130361000D01*
G75*
G02*
X75356000Y-130611000I-250000J0D01*
G01*
X74556000Y-130611000D01*
G75*
G02*
X74306000Y-130361000I0J250000D01*
G01*
X74306000Y-128211000D01*
G75*
G02*
X74556000Y-127961000I250000J0D01*
G01*
X75356000Y-127961000D01*
G75*
G02*
X75606000Y-128211000I0J-250000D01*
G01*
G37*
D14*
X66826000Y-104140000D03*
X69826000Y-103190000D03*
X69826000Y-105090000D03*
X75668000Y-104140000D03*
X72668000Y-105090000D03*
X72668000Y-103190000D03*
X66826000Y-109220000D03*
X69826000Y-108270000D03*
X69826000Y-110170000D03*
X75668000Y-109220000D03*
X72668000Y-110170000D03*
X72668000Y-108270000D03*
X66826000Y-114300000D03*
X69826000Y-113350000D03*
X69826000Y-115250000D03*
X75668000Y-114300000D03*
X72668000Y-115250000D03*
X72668000Y-113350000D03*
X66826000Y-119380000D03*
X69826000Y-118430000D03*
X69826000Y-120330000D03*
X75668000Y-119380000D03*
X72668000Y-120330000D03*
X72668000Y-118430000D03*
G36*
G01*
X83174000Y-102981999D02*
X83174000Y-104282001D01*
G75*
G02*
X82924001Y-104532000I-249999J0D01*
G01*
X82098999Y-104532000D01*
G75*
G02*
X81849000Y-104282001I0J249999D01*
G01*
X81849000Y-102981999D01*
G75*
G02*
X82098999Y-102732000I249999J0D01*
G01*
X82924001Y-102732000D01*
G75*
G02*
X83174000Y-102981999I0J-249999D01*
G01*
G37*
G36*
G01*
X86299000Y-102981999D02*
X86299000Y-104282001D01*
G75*
G02*
X86049001Y-104532000I-249999J0D01*
G01*
X85223999Y-104532000D01*
G75*
G02*
X84974000Y-104282001I0J249999D01*
G01*
X84974000Y-102981999D01*
G75*
G02*
X85223999Y-102732000I249999J0D01*
G01*
X86049001Y-102732000D01*
G75*
G02*
X86299000Y-102981999I0J-249999D01*
G01*
G37*
G36*
G01*
X83174000Y-79359999D02*
X83174000Y-80660001D01*
G75*
G02*
X82924001Y-80910000I-249999J0D01*
G01*
X82098999Y-80910000D01*
G75*
G02*
X81849000Y-80660001I0J249999D01*
G01*
X81849000Y-79359999D01*
G75*
G02*
X82098999Y-79110000I249999J0D01*
G01*
X82924001Y-79110000D01*
G75*
G02*
X83174000Y-79359999I0J-249999D01*
G01*
G37*
G36*
G01*
X86299000Y-79359999D02*
X86299000Y-80660001D01*
G75*
G02*
X86049001Y-80910000I-249999J0D01*
G01*
X85223999Y-80910000D01*
G75*
G02*
X84974000Y-80660001I0J249999D01*
G01*
X84974000Y-79359999D01*
G75*
G02*
X85223999Y-79110000I249999J0D01*
G01*
X86049001Y-79110000D01*
G75*
G02*
X86299000Y-79359999I0J-249999D01*
G01*
G37*
D15*
X97790000Y-95123000D03*
X95250000Y-95123000D03*
X97790000Y-97663000D03*
X95250000Y-97663000D03*
X97790000Y-100203000D03*
X95250000Y-100203000D03*
X97790000Y-102743000D03*
X95250000Y-102743000D03*
X97790000Y-105283000D03*
X95250000Y-105283000D03*
X97790000Y-107823000D03*
X95250000Y-107823000D03*
X97790000Y-110363000D03*
X95250000Y-110363000D03*
X97790000Y-112903000D03*
X95250000Y-112903000D03*
X97790000Y-115443000D03*
X95250000Y-115443000D03*
X97790000Y-117983000D03*
D16*
X95250000Y-117983000D03*
G36*
G01*
X86549000Y-105941000D02*
X86549000Y-105641000D01*
G75*
G02*
X86699000Y-105491000I150000J0D01*
G01*
X88374000Y-105491000D01*
G75*
G02*
X88524000Y-105641000I0J-150000D01*
G01*
X88524000Y-105941000D01*
G75*
G02*
X88374000Y-106091000I-150000J0D01*
G01*
X86699000Y-106091000D01*
G75*
G02*
X86549000Y-105941000I0J150000D01*
G01*
G37*
G36*
G01*
X86549000Y-107211000D02*
X86549000Y-106911000D01*
G75*
G02*
X86699000Y-106761000I150000J0D01*
G01*
X88374000Y-106761000D01*
G75*
G02*
X88524000Y-106911000I0J-150000D01*
G01*
X88524000Y-107211000D01*
G75*
G02*
X88374000Y-107361000I-150000J0D01*
G01*
X86699000Y-107361000D01*
G75*
G02*
X86549000Y-107211000I0J150000D01*
G01*
G37*
G36*
G01*
X86549000Y-108481000D02*
X86549000Y-108181000D01*
G75*
G02*
X86699000Y-108031000I150000J0D01*
G01*
X88374000Y-108031000D01*
G75*
G02*
X88524000Y-108181000I0J-150000D01*
G01*
X88524000Y-108481000D01*
G75*
G02*
X88374000Y-108631000I-150000J0D01*
G01*
X86699000Y-108631000D01*
G75*
G02*
X86549000Y-108481000I0J150000D01*
G01*
G37*
G36*
G01*
X86549000Y-109751000D02*
X86549000Y-109451000D01*
G75*
G02*
X86699000Y-109301000I150000J0D01*
G01*
X88374000Y-109301000D01*
G75*
G02*
X88524000Y-109451000I0J-150000D01*
G01*
X88524000Y-109751000D01*
G75*
G02*
X88374000Y-109901000I-150000J0D01*
G01*
X86699000Y-109901000D01*
G75*
G02*
X86549000Y-109751000I0J150000D01*
G01*
G37*
G36*
G01*
X86549000Y-111021000D02*
X86549000Y-110721000D01*
G75*
G02*
X86699000Y-110571000I150000J0D01*
G01*
X88374000Y-110571000D01*
G75*
G02*
X88524000Y-110721000I0J-150000D01*
G01*
X88524000Y-111021000D01*
G75*
G02*
X88374000Y-111171000I-150000J0D01*
G01*
X86699000Y-111171000D01*
G75*
G02*
X86549000Y-111021000I0J150000D01*
G01*
G37*
G36*
G01*
X86549000Y-112291000D02*
X86549000Y-111991000D01*
G75*
G02*
X86699000Y-111841000I150000J0D01*
G01*
X88374000Y-111841000D01*
G75*
G02*
X88524000Y-111991000I0J-150000D01*
G01*
X88524000Y-112291000D01*
G75*
G02*
X88374000Y-112441000I-150000J0D01*
G01*
X86699000Y-112441000D01*
G75*
G02*
X86549000Y-112291000I0J150000D01*
G01*
G37*
G36*
G01*
X86549000Y-113561000D02*
X86549000Y-113261000D01*
G75*
G02*
X86699000Y-113111000I150000J0D01*
G01*
X88374000Y-113111000D01*
G75*
G02*
X88524000Y-113261000I0J-150000D01*
G01*
X88524000Y-113561000D01*
G75*
G02*
X88374000Y-113711000I-150000J0D01*
G01*
X86699000Y-113711000D01*
G75*
G02*
X86549000Y-113561000I0J150000D01*
G01*
G37*
G36*
G01*
X86549000Y-114831000D02*
X86549000Y-114531000D01*
G75*
G02*
X86699000Y-114381000I150000J0D01*
G01*
X88374000Y-114381000D01*
G75*
G02*
X88524000Y-114531000I0J-150000D01*
G01*
X88524000Y-114831000D01*
G75*
G02*
X88374000Y-114981000I-150000J0D01*
G01*
X86699000Y-114981000D01*
G75*
G02*
X86549000Y-114831000I0J150000D01*
G01*
G37*
G36*
G01*
X86549000Y-116101000D02*
X86549000Y-115801000D01*
G75*
G02*
X86699000Y-115651000I150000J0D01*
G01*
X88374000Y-115651000D01*
G75*
G02*
X88524000Y-115801000I0J-150000D01*
G01*
X88524000Y-116101000D01*
G75*
G02*
X88374000Y-116251000I-150000J0D01*
G01*
X86699000Y-116251000D01*
G75*
G02*
X86549000Y-116101000I0J150000D01*
G01*
G37*
G36*
G01*
X86549000Y-117371000D02*
X86549000Y-117071000D01*
G75*
G02*
X86699000Y-116921000I150000J0D01*
G01*
X88374000Y-116921000D01*
G75*
G02*
X88524000Y-117071000I0J-150000D01*
G01*
X88524000Y-117371000D01*
G75*
G02*
X88374000Y-117521000I-150000J0D01*
G01*
X86699000Y-117521000D01*
G75*
G02*
X86549000Y-117371000I0J150000D01*
G01*
G37*
G36*
G01*
X79624000Y-117371000D02*
X79624000Y-117071000D01*
G75*
G02*
X79774000Y-116921000I150000J0D01*
G01*
X81449000Y-116921000D01*
G75*
G02*
X81599000Y-117071000I0J-150000D01*
G01*
X81599000Y-117371000D01*
G75*
G02*
X81449000Y-117521000I-150000J0D01*
G01*
X79774000Y-117521000D01*
G75*
G02*
X79624000Y-117371000I0J150000D01*
G01*
G37*
G36*
G01*
X79624000Y-116101000D02*
X79624000Y-115801000D01*
G75*
G02*
X79774000Y-115651000I150000J0D01*
G01*
X81449000Y-115651000D01*
G75*
G02*
X81599000Y-115801000I0J-150000D01*
G01*
X81599000Y-116101000D01*
G75*
G02*
X81449000Y-116251000I-150000J0D01*
G01*
X79774000Y-116251000D01*
G75*
G02*
X79624000Y-116101000I0J150000D01*
G01*
G37*
G36*
G01*
X79624000Y-114831000D02*
X79624000Y-114531000D01*
G75*
G02*
X79774000Y-114381000I150000J0D01*
G01*
X81449000Y-114381000D01*
G75*
G02*
X81599000Y-114531000I0J-150000D01*
G01*
X81599000Y-114831000D01*
G75*
G02*
X81449000Y-114981000I-150000J0D01*
G01*
X79774000Y-114981000D01*
G75*
G02*
X79624000Y-114831000I0J150000D01*
G01*
G37*
G36*
G01*
X79624000Y-113561000D02*
X79624000Y-113261000D01*
G75*
G02*
X79774000Y-113111000I150000J0D01*
G01*
X81449000Y-113111000D01*
G75*
G02*
X81599000Y-113261000I0J-150000D01*
G01*
X81599000Y-113561000D01*
G75*
G02*
X81449000Y-113711000I-150000J0D01*
G01*
X79774000Y-113711000D01*
G75*
G02*
X79624000Y-113561000I0J150000D01*
G01*
G37*
G36*
G01*
X79624000Y-112291000D02*
X79624000Y-111991000D01*
G75*
G02*
X79774000Y-111841000I150000J0D01*
G01*
X81449000Y-111841000D01*
G75*
G02*
X81599000Y-111991000I0J-150000D01*
G01*
X81599000Y-112291000D01*
G75*
G02*
X81449000Y-112441000I-150000J0D01*
G01*
X79774000Y-112441000D01*
G75*
G02*
X79624000Y-112291000I0J150000D01*
G01*
G37*
G36*
G01*
X79624000Y-111021000D02*
X79624000Y-110721000D01*
G75*
G02*
X79774000Y-110571000I150000J0D01*
G01*
X81449000Y-110571000D01*
G75*
G02*
X81599000Y-110721000I0J-150000D01*
G01*
X81599000Y-111021000D01*
G75*
G02*
X81449000Y-111171000I-150000J0D01*
G01*
X79774000Y-111171000D01*
G75*
G02*
X79624000Y-111021000I0J150000D01*
G01*
G37*
G36*
G01*
X79624000Y-109751000D02*
X79624000Y-109451000D01*
G75*
G02*
X79774000Y-109301000I150000J0D01*
G01*
X81449000Y-109301000D01*
G75*
G02*
X81599000Y-109451000I0J-150000D01*
G01*
X81599000Y-109751000D01*
G75*
G02*
X81449000Y-109901000I-150000J0D01*
G01*
X79774000Y-109901000D01*
G75*
G02*
X79624000Y-109751000I0J150000D01*
G01*
G37*
G36*
G01*
X79624000Y-108481000D02*
X79624000Y-108181000D01*
G75*
G02*
X79774000Y-108031000I150000J0D01*
G01*
X81449000Y-108031000D01*
G75*
G02*
X81599000Y-108181000I0J-150000D01*
G01*
X81599000Y-108481000D01*
G75*
G02*
X81449000Y-108631000I-150000J0D01*
G01*
X79774000Y-108631000D01*
G75*
G02*
X79624000Y-108481000I0J150000D01*
G01*
G37*
G36*
G01*
X79624000Y-107211000D02*
X79624000Y-106911000D01*
G75*
G02*
X79774000Y-106761000I150000J0D01*
G01*
X81449000Y-106761000D01*
G75*
G02*
X81599000Y-106911000I0J-150000D01*
G01*
X81599000Y-107211000D01*
G75*
G02*
X81449000Y-107361000I-150000J0D01*
G01*
X79774000Y-107361000D01*
G75*
G02*
X79624000Y-107211000I0J150000D01*
G01*
G37*
G36*
G01*
X79624000Y-105941000D02*
X79624000Y-105641000D01*
G75*
G02*
X79774000Y-105491000I150000J0D01*
G01*
X81449000Y-105491000D01*
G75*
G02*
X81599000Y-105641000I0J-150000D01*
G01*
X81599000Y-105941000D01*
G75*
G02*
X81449000Y-106091000I-150000J0D01*
G01*
X79774000Y-106091000D01*
G75*
G02*
X79624000Y-105941000I0J150000D01*
G01*
G37*
G36*
G01*
X86549000Y-82573000D02*
X86549000Y-82273000D01*
G75*
G02*
X86699000Y-82123000I150000J0D01*
G01*
X88374000Y-82123000D01*
G75*
G02*
X88524000Y-82273000I0J-150000D01*
G01*
X88524000Y-82573000D01*
G75*
G02*
X88374000Y-82723000I-150000J0D01*
G01*
X86699000Y-82723000D01*
G75*
G02*
X86549000Y-82573000I0J150000D01*
G01*
G37*
G36*
G01*
X86549000Y-83843000D02*
X86549000Y-83543000D01*
G75*
G02*
X86699000Y-83393000I150000J0D01*
G01*
X88374000Y-83393000D01*
G75*
G02*
X88524000Y-83543000I0J-150000D01*
G01*
X88524000Y-83843000D01*
G75*
G02*
X88374000Y-83993000I-150000J0D01*
G01*
X86699000Y-83993000D01*
G75*
G02*
X86549000Y-83843000I0J150000D01*
G01*
G37*
G36*
G01*
X86549000Y-85113000D02*
X86549000Y-84813000D01*
G75*
G02*
X86699000Y-84663000I150000J0D01*
G01*
X88374000Y-84663000D01*
G75*
G02*
X88524000Y-84813000I0J-150000D01*
G01*
X88524000Y-85113000D01*
G75*
G02*
X88374000Y-85263000I-150000J0D01*
G01*
X86699000Y-85263000D01*
G75*
G02*
X86549000Y-85113000I0J150000D01*
G01*
G37*
G36*
G01*
X86549000Y-86383000D02*
X86549000Y-86083000D01*
G75*
G02*
X86699000Y-85933000I150000J0D01*
G01*
X88374000Y-85933000D01*
G75*
G02*
X88524000Y-86083000I0J-150000D01*
G01*
X88524000Y-86383000D01*
G75*
G02*
X88374000Y-86533000I-150000J0D01*
G01*
X86699000Y-86533000D01*
G75*
G02*
X86549000Y-86383000I0J150000D01*
G01*
G37*
G36*
G01*
X86549000Y-87653000D02*
X86549000Y-87353000D01*
G75*
G02*
X86699000Y-87203000I150000J0D01*
G01*
X88374000Y-87203000D01*
G75*
G02*
X88524000Y-87353000I0J-150000D01*
G01*
X88524000Y-87653000D01*
G75*
G02*
X88374000Y-87803000I-150000J0D01*
G01*
X86699000Y-87803000D01*
G75*
G02*
X86549000Y-87653000I0J150000D01*
G01*
G37*
G36*
G01*
X86549000Y-88923000D02*
X86549000Y-88623000D01*
G75*
G02*
X86699000Y-88473000I150000J0D01*
G01*
X88374000Y-88473000D01*
G75*
G02*
X88524000Y-88623000I0J-150000D01*
G01*
X88524000Y-88923000D01*
G75*
G02*
X88374000Y-89073000I-150000J0D01*
G01*
X86699000Y-89073000D01*
G75*
G02*
X86549000Y-88923000I0J150000D01*
G01*
G37*
G36*
G01*
X86549000Y-90193000D02*
X86549000Y-89893000D01*
G75*
G02*
X86699000Y-89743000I150000J0D01*
G01*
X88374000Y-89743000D01*
G75*
G02*
X88524000Y-89893000I0J-150000D01*
G01*
X88524000Y-90193000D01*
G75*
G02*
X88374000Y-90343000I-150000J0D01*
G01*
X86699000Y-90343000D01*
G75*
G02*
X86549000Y-90193000I0J150000D01*
G01*
G37*
G36*
G01*
X86549000Y-91463000D02*
X86549000Y-91163000D01*
G75*
G02*
X86699000Y-91013000I150000J0D01*
G01*
X88374000Y-91013000D01*
G75*
G02*
X88524000Y-91163000I0J-150000D01*
G01*
X88524000Y-91463000D01*
G75*
G02*
X88374000Y-91613000I-150000J0D01*
G01*
X86699000Y-91613000D01*
G75*
G02*
X86549000Y-91463000I0J150000D01*
G01*
G37*
G36*
G01*
X86549000Y-92733000D02*
X86549000Y-92433000D01*
G75*
G02*
X86699000Y-92283000I150000J0D01*
G01*
X88374000Y-92283000D01*
G75*
G02*
X88524000Y-92433000I0J-150000D01*
G01*
X88524000Y-92733000D01*
G75*
G02*
X88374000Y-92883000I-150000J0D01*
G01*
X86699000Y-92883000D01*
G75*
G02*
X86549000Y-92733000I0J150000D01*
G01*
G37*
G36*
G01*
X86549000Y-94003000D02*
X86549000Y-93703000D01*
G75*
G02*
X86699000Y-93553000I150000J0D01*
G01*
X88374000Y-93553000D01*
G75*
G02*
X88524000Y-93703000I0J-150000D01*
G01*
X88524000Y-94003000D01*
G75*
G02*
X88374000Y-94153000I-150000J0D01*
G01*
X86699000Y-94153000D01*
G75*
G02*
X86549000Y-94003000I0J150000D01*
G01*
G37*
G36*
G01*
X79624000Y-94003000D02*
X79624000Y-93703000D01*
G75*
G02*
X79774000Y-93553000I150000J0D01*
G01*
X81449000Y-93553000D01*
G75*
G02*
X81599000Y-93703000I0J-150000D01*
G01*
X81599000Y-94003000D01*
G75*
G02*
X81449000Y-94153000I-150000J0D01*
G01*
X79774000Y-94153000D01*
G75*
G02*
X79624000Y-94003000I0J150000D01*
G01*
G37*
G36*
G01*
X79624000Y-92733000D02*
X79624000Y-92433000D01*
G75*
G02*
X79774000Y-92283000I150000J0D01*
G01*
X81449000Y-92283000D01*
G75*
G02*
X81599000Y-92433000I0J-150000D01*
G01*
X81599000Y-92733000D01*
G75*
G02*
X81449000Y-92883000I-150000J0D01*
G01*
X79774000Y-92883000D01*
G75*
G02*
X79624000Y-92733000I0J150000D01*
G01*
G37*
G36*
G01*
X79624000Y-91463000D02*
X79624000Y-91163000D01*
G75*
G02*
X79774000Y-91013000I150000J0D01*
G01*
X81449000Y-91013000D01*
G75*
G02*
X81599000Y-91163000I0J-150000D01*
G01*
X81599000Y-91463000D01*
G75*
G02*
X81449000Y-91613000I-150000J0D01*
G01*
X79774000Y-91613000D01*
G75*
G02*
X79624000Y-91463000I0J150000D01*
G01*
G37*
G36*
G01*
X79624000Y-90193000D02*
X79624000Y-89893000D01*
G75*
G02*
X79774000Y-89743000I150000J0D01*
G01*
X81449000Y-89743000D01*
G75*
G02*
X81599000Y-89893000I0J-150000D01*
G01*
X81599000Y-90193000D01*
G75*
G02*
X81449000Y-90343000I-150000J0D01*
G01*
X79774000Y-90343000D01*
G75*
G02*
X79624000Y-90193000I0J150000D01*
G01*
G37*
G36*
G01*
X79624000Y-88923000D02*
X79624000Y-88623000D01*
G75*
G02*
X79774000Y-88473000I150000J0D01*
G01*
X81449000Y-88473000D01*
G75*
G02*
X81599000Y-88623000I0J-150000D01*
G01*
X81599000Y-88923000D01*
G75*
G02*
X81449000Y-89073000I-150000J0D01*
G01*
X79774000Y-89073000D01*
G75*
G02*
X79624000Y-88923000I0J150000D01*
G01*
G37*
G36*
G01*
X79624000Y-87653000D02*
X79624000Y-87353000D01*
G75*
G02*
X79774000Y-87203000I150000J0D01*
G01*
X81449000Y-87203000D01*
G75*
G02*
X81599000Y-87353000I0J-150000D01*
G01*
X81599000Y-87653000D01*
G75*
G02*
X81449000Y-87803000I-150000J0D01*
G01*
X79774000Y-87803000D01*
G75*
G02*
X79624000Y-87653000I0J150000D01*
G01*
G37*
G36*
G01*
X79624000Y-86383000D02*
X79624000Y-86083000D01*
G75*
G02*
X79774000Y-85933000I150000J0D01*
G01*
X81449000Y-85933000D01*
G75*
G02*
X81599000Y-86083000I0J-150000D01*
G01*
X81599000Y-86383000D01*
G75*
G02*
X81449000Y-86533000I-150000J0D01*
G01*
X79774000Y-86533000D01*
G75*
G02*
X79624000Y-86383000I0J150000D01*
G01*
G37*
G36*
G01*
X79624000Y-85113000D02*
X79624000Y-84813000D01*
G75*
G02*
X79774000Y-84663000I150000J0D01*
G01*
X81449000Y-84663000D01*
G75*
G02*
X81599000Y-84813000I0J-150000D01*
G01*
X81599000Y-85113000D01*
G75*
G02*
X81449000Y-85263000I-150000J0D01*
G01*
X79774000Y-85263000D01*
G75*
G02*
X79624000Y-85113000I0J150000D01*
G01*
G37*
G36*
G01*
X79624000Y-83843000D02*
X79624000Y-83543000D01*
G75*
G02*
X79774000Y-83393000I150000J0D01*
G01*
X81449000Y-83393000D01*
G75*
G02*
X81599000Y-83543000I0J-150000D01*
G01*
X81599000Y-83843000D01*
G75*
G02*
X81449000Y-83993000I-150000J0D01*
G01*
X79774000Y-83993000D01*
G75*
G02*
X79624000Y-83843000I0J150000D01*
G01*
G37*
G36*
G01*
X79624000Y-82573000D02*
X79624000Y-82273000D01*
G75*
G02*
X79774000Y-82123000I150000J0D01*
G01*
X81449000Y-82123000D01*
G75*
G02*
X81599000Y-82273000I0J-150000D01*
G01*
X81599000Y-82573000D01*
G75*
G02*
X81449000Y-82723000I-150000J0D01*
G01*
X79774000Y-82723000D01*
G75*
G02*
X79624000Y-82573000I0J150000D01*
G01*
G37*
D14*
X66826000Y-81026000D03*
X69826000Y-80076000D03*
X69826000Y-81976000D03*
X75668000Y-81026000D03*
X72668000Y-81976000D03*
X72668000Y-80076000D03*
X66826000Y-86106000D03*
X69826000Y-85156000D03*
X69826000Y-87056000D03*
X75668000Y-86106000D03*
X72668000Y-87056000D03*
X72668000Y-85156000D03*
X66826000Y-91186000D03*
X69826000Y-90236000D03*
X69826000Y-92136000D03*
X75668000Y-91186000D03*
X72668000Y-92136000D03*
X72668000Y-90236000D03*
X66826000Y-96266000D03*
X69826000Y-95316000D03*
X69826000Y-97216000D03*
X75668000Y-96266000D03*
X72668000Y-97216000D03*
X72668000Y-95316000D03*
D15*
X126238000Y-95123000D03*
X123698000Y-95123000D03*
X126238000Y-97663000D03*
X123698000Y-97663000D03*
X126238000Y-100203000D03*
X123698000Y-100203000D03*
X126238000Y-102743000D03*
X123698000Y-102743000D03*
X126238000Y-105283000D03*
X123698000Y-105283000D03*
X126238000Y-107823000D03*
X123698000Y-107823000D03*
X126238000Y-110363000D03*
X123698000Y-110363000D03*
X126238000Y-112903000D03*
X123698000Y-112903000D03*
X126238000Y-115443000D03*
X123698000Y-115443000D03*
X126238000Y-117983000D03*
D16*
X123698000Y-117983000D03*
D17*
X146812000Y-105116000D03*
D18*
X149522000Y-109886000D03*
D19*
X146812000Y-102616000D03*
D17*
X150012000Y-105116000D03*
X150012000Y-102616000D03*
D18*
X149522000Y-97846000D03*
D15*
X138430000Y-99822000D03*
X138430000Y-102362000D03*
X138430000Y-104902000D03*
D16*
X138430000Y-107442000D03*
D15*
X60706000Y-74168000D03*
X63246000Y-74168000D03*
X60706000Y-71628000D03*
D16*
X63246000Y-71628000D03*
D15*
X60706000Y-97536000D03*
X63246000Y-97536000D03*
X60706000Y-94996000D03*
X63246000Y-94996000D03*
X60706000Y-92456000D03*
X63246000Y-92456000D03*
X60706000Y-89916000D03*
X63246000Y-89916000D03*
X60706000Y-87376000D03*
X63246000Y-87376000D03*
X60706000Y-84836000D03*
X63246000Y-84836000D03*
X60706000Y-82296000D03*
X63246000Y-82296000D03*
X60706000Y-79756000D03*
D16*
X63246000Y-79756000D03*
D15*
X60706000Y-120650000D03*
X63246000Y-120650000D03*
X60706000Y-118110000D03*
X63246000Y-118110000D03*
X60706000Y-115570000D03*
X63246000Y-115570000D03*
X60706000Y-113030000D03*
X63246000Y-113030000D03*
X60706000Y-110490000D03*
X63246000Y-110490000D03*
X60706000Y-107950000D03*
X63246000Y-107950000D03*
X60706000Y-105410000D03*
X63246000Y-105410000D03*
X60706000Y-102870000D03*
D16*
X63246000Y-102870000D03*
M02*
