%FSLAX45Y45*%
G04 Gerber Fmt 4.5, Leading zero omitted, Abs format (unit mm)*
G04 Created by KiCad (PCBNEW (5.1.9)-1) date 2021-06-24 21:47:52*
%MOMM*%
%LPD*%
G01*
G04 APERTURE LIST*
%TA.AperFunction,Profile*%
%ADD10C,0.050000*%
%TD*%
%ADD11C,0.200000*%
%ADD12C,0.300000*%
G04 APERTURE END LIST*
D10*
X5918200Y-6934200D02*
X15341600Y-6934200D01*
X5918200Y-13182600D02*
X15341600Y-13182600D01*
X6855600Y-7162800D02*
G75*
G03*
X6855600Y-7162800I-150000J0D01*
G01*
X15186800Y-7289800D02*
G75*
G03*
X15186800Y-7289800I-150000J0D01*
G01*
X15161400Y-12827000D02*
G75*
G03*
X15161400Y-12827000I-150000J0D01*
G01*
X8100200Y-12928600D02*
G75*
G03*
X8100200Y-12928600I-150000J0D01*
G01*
X15341600Y-6934200D02*
X15341600Y-13182600D01*
X5918200Y-13182600D02*
X5918200Y-6934200D01*
D11*
D12*
X6202128Y-13650814D02*
X6202128Y-13350814D01*
X6273557Y-13350814D01*
X6316414Y-13365100D01*
X6344986Y-13393671D01*
X6359271Y-13422243D01*
X6373557Y-13479386D01*
X6373557Y-13522243D01*
X6359271Y-13579386D01*
X6344986Y-13607957D01*
X6316414Y-13636529D01*
X6273557Y-13650814D01*
X6202128Y-13650814D01*
X6502128Y-13650814D02*
X6502128Y-13450814D01*
X6502128Y-13507957D02*
X6516414Y-13479386D01*
X6530700Y-13465100D01*
X6559271Y-13450814D01*
X6587843Y-13450814D01*
X6687843Y-13650814D02*
X6687843Y-13450814D01*
X6687843Y-13350814D02*
X6673557Y-13365100D01*
X6687843Y-13379386D01*
X6702128Y-13365100D01*
X6687843Y-13350814D01*
X6687843Y-13379386D01*
X6873557Y-13650814D02*
X6844986Y-13636529D01*
X6830700Y-13607957D01*
X6830700Y-13350814D01*
X7030700Y-13650814D02*
X7002128Y-13636529D01*
X6987843Y-13607957D01*
X6987843Y-13350814D01*
X7373557Y-13650814D02*
X7373557Y-13350814D01*
X7473557Y-13565100D01*
X7573557Y-13350814D01*
X7573557Y-13650814D01*
X7844986Y-13650814D02*
X7844986Y-13493671D01*
X7830700Y-13465100D01*
X7802128Y-13450814D01*
X7744986Y-13450814D01*
X7716414Y-13465100D01*
X7844986Y-13636529D02*
X7816414Y-13650814D01*
X7744986Y-13650814D01*
X7716414Y-13636529D01*
X7702128Y-13607957D01*
X7702128Y-13579386D01*
X7716414Y-13550814D01*
X7744986Y-13536529D01*
X7816414Y-13536529D01*
X7844986Y-13522243D01*
X7987843Y-13450814D02*
X7987843Y-13750814D01*
X7987843Y-13465100D02*
X8016414Y-13450814D01*
X8073557Y-13450814D01*
X8102128Y-13465100D01*
X8116414Y-13479386D01*
X8130700Y-13507957D01*
X8130700Y-13593671D01*
X8116414Y-13622243D01*
X8102128Y-13636529D01*
X8073557Y-13650814D01*
X8016414Y-13650814D01*
X7987843Y-13636529D01*
X8259271Y-13622243D02*
X8273557Y-13636529D01*
X8259271Y-13650814D01*
X8244986Y-13636529D01*
X8259271Y-13622243D01*
X8259271Y-13650814D01*
X8259271Y-13465100D02*
X8273557Y-13479386D01*
X8259271Y-13493671D01*
X8244986Y-13479386D01*
X8259271Y-13465100D01*
X8259271Y-13493671D01*
M02*
