G04 #@! TF.GenerationSoftware,KiCad,Pcbnew,(5.1.9)-1*
G04 #@! TF.CreationDate,2021-06-24T21:47:46+02:00*
G04 #@! TF.ProjectId,cypress_inp,63797072-6573-4735-9f69-6e702e6b6963,1.0*
G04 #@! TF.SameCoordinates,Original*
G04 #@! TF.FileFunction,Copper,L2,Bot*
G04 #@! TF.FilePolarity,Positive*
%FSLAX46Y46*%
G04 Gerber Fmt 4.6, Leading zero omitted, Abs format (unit mm)*
G04 Created by KiCad (PCBNEW (5.1.9)-1) date 2021-06-24 21:47:46*
%MOMM*%
%LPD*%
G01*
G04 APERTURE LIST*
G04 #@! TA.AperFunction,ComponentPad*
%ADD10C,1.800000*%
G04 #@! TD*
G04 #@! TA.AperFunction,ComponentPad*
%ADD11R,1.800000X1.800000*%
G04 #@! TD*
G04 #@! TA.AperFunction,ComponentPad*
%ADD12O,1.700000X1.700000*%
G04 #@! TD*
G04 #@! TA.AperFunction,ComponentPad*
%ADD13R,1.700000X1.700000*%
G04 #@! TD*
G04 #@! TA.AperFunction,ComponentPad*
%ADD14C,1.400000*%
G04 #@! TD*
G04 #@! TA.AperFunction,ComponentPad*
%ADD15C,3.000000*%
G04 #@! TD*
G04 #@! TA.AperFunction,ComponentPad*
%ADD16R,1.400000X1.400000*%
G04 #@! TD*
G04 #@! TA.AperFunction,ViaPad*
%ADD17C,0.800000*%
G04 #@! TD*
G04 #@! TA.AperFunction,Conductor*
%ADD18C,1.000000*%
G04 #@! TD*
G04 #@! TA.AperFunction,Conductor*
%ADD19C,0.250000*%
G04 #@! TD*
G04 #@! TA.AperFunction,Conductor*
%ADD20C,0.254000*%
G04 #@! TD*
G04 #@! TA.AperFunction,Conductor*
%ADD21C,0.140000*%
G04 #@! TD*
G04 APERTURE END LIST*
D10*
X63246000Y-129286000D03*
D11*
X60706000Y-129286000D03*
D10*
X63246000Y-124714000D03*
D11*
X60706000Y-124714000D03*
D12*
X97790000Y-95123000D03*
X95250000Y-95123000D03*
X97790000Y-97663000D03*
X95250000Y-97663000D03*
X97790000Y-100203000D03*
X95250000Y-100203000D03*
X97790000Y-102743000D03*
X95250000Y-102743000D03*
X97790000Y-105283000D03*
X95250000Y-105283000D03*
X97790000Y-107823000D03*
X95250000Y-107823000D03*
X97790000Y-110363000D03*
X95250000Y-110363000D03*
X97790000Y-112903000D03*
X95250000Y-112903000D03*
X97790000Y-115443000D03*
X95250000Y-115443000D03*
X97790000Y-117983000D03*
D13*
X95250000Y-117983000D03*
D12*
X126238000Y-95123000D03*
X123698000Y-95123000D03*
X126238000Y-97663000D03*
X123698000Y-97663000D03*
X126238000Y-100203000D03*
X123698000Y-100203000D03*
X126238000Y-102743000D03*
X123698000Y-102743000D03*
X126238000Y-105283000D03*
X123698000Y-105283000D03*
X126238000Y-107823000D03*
X123698000Y-107823000D03*
X126238000Y-110363000D03*
X123698000Y-110363000D03*
X126238000Y-112903000D03*
X123698000Y-112903000D03*
X126238000Y-115443000D03*
X123698000Y-115443000D03*
X126238000Y-117983000D03*
D13*
X123698000Y-117983000D03*
D14*
X146812000Y-105116000D03*
D15*
X149522000Y-109886000D03*
D16*
X146812000Y-102616000D03*
D14*
X150012000Y-105116000D03*
X150012000Y-102616000D03*
D15*
X149522000Y-97846000D03*
D12*
X138430000Y-99822000D03*
X138430000Y-102362000D03*
X138430000Y-104902000D03*
D13*
X138430000Y-107442000D03*
D12*
X60706000Y-74168000D03*
X63246000Y-74168000D03*
X60706000Y-71628000D03*
D13*
X63246000Y-71628000D03*
D12*
X60706000Y-97536000D03*
X63246000Y-97536000D03*
X60706000Y-94996000D03*
X63246000Y-94996000D03*
X60706000Y-92456000D03*
X63246000Y-92456000D03*
X60706000Y-89916000D03*
X63246000Y-89916000D03*
X60706000Y-87376000D03*
X63246000Y-87376000D03*
X60706000Y-84836000D03*
X63246000Y-84836000D03*
X60706000Y-82296000D03*
X63246000Y-82296000D03*
X60706000Y-79756000D03*
D13*
X63246000Y-79756000D03*
D12*
X60706000Y-120650000D03*
X63246000Y-120650000D03*
X60706000Y-118110000D03*
X63246000Y-118110000D03*
X60706000Y-115570000D03*
X63246000Y-115570000D03*
X60706000Y-113030000D03*
X63246000Y-113030000D03*
X60706000Y-110490000D03*
X63246000Y-110490000D03*
X60706000Y-107950000D03*
X63246000Y-107950000D03*
X60706000Y-105410000D03*
X63246000Y-105410000D03*
X60706000Y-102870000D03*
D13*
X63246000Y-102870000D03*
D17*
X80518000Y-118872000D03*
X77597000Y-81026000D03*
X77597000Y-86106000D03*
X77597000Y-91186000D03*
X77597000Y-96266000D03*
X77597000Y-104140000D03*
X77597000Y-109220000D03*
X77597000Y-114300000D03*
X77597000Y-119380000D03*
X77597000Y-121539000D03*
X85636500Y-76873500D03*
X82969500Y-100965000D03*
X83566000Y-114935000D03*
X84074000Y-111252000D03*
X89344500Y-92900500D03*
X89281000Y-90551000D03*
X84074000Y-91948000D03*
X84074000Y-90043000D03*
D18*
X63269999Y-74191999D02*
X63246000Y-74168000D01*
X63246000Y-71628000D02*
X63246000Y-74168000D01*
X63246000Y-71628000D02*
X63246000Y-71882000D01*
X65555999Y-74191999D02*
X63269999Y-74191999D01*
X63246000Y-71882000D02*
X65555999Y-74191999D01*
X146812000Y-102616000D02*
X146304000Y-102616000D01*
X141478000Y-107442000D02*
X138430000Y-107442000D01*
X146304000Y-102616000D02*
X141478000Y-107442000D01*
X108833999Y-70889999D02*
X108810000Y-70866000D01*
X99361998Y-70866000D02*
X96035999Y-74191999D01*
X108810000Y-70866000D02*
X99361998Y-70866000D01*
D19*
X77597000Y-81026000D02*
X77597000Y-86106000D01*
X77597000Y-86106000D02*
X77597000Y-91186000D01*
X77597000Y-91186000D02*
X77597000Y-96266000D01*
X77597000Y-96266000D02*
X77597000Y-103886000D01*
X77597000Y-103886000D02*
X77597000Y-109220000D01*
X77597000Y-109220000D02*
X77597000Y-114300000D01*
X77597000Y-114300000D02*
X77597000Y-119380000D01*
X77597000Y-120904000D02*
X77597000Y-121412000D01*
X77597000Y-119380000D02*
X77597000Y-120904000D01*
X77597000Y-120904000D02*
X77597000Y-121158000D01*
X77597000Y-74215998D02*
X77620999Y-74191999D01*
X77597000Y-81026000D02*
X77597000Y-74215998D01*
D18*
X77620999Y-74191999D02*
X65555999Y-74191999D01*
D19*
X85636500Y-74304498D02*
X85748999Y-74191999D01*
X85636500Y-76873500D02*
X85636500Y-74304498D01*
D18*
X85748999Y-74191999D02*
X77620999Y-74191999D01*
X96035999Y-74191999D02*
X85748999Y-74191999D01*
X128238010Y-97250010D02*
X138430000Y-107442000D01*
X128238010Y-90294010D02*
X128238010Y-97250010D01*
X108810000Y-70866000D02*
X128238010Y-90294010D01*
D19*
X80772000Y-100965000D02*
X77597000Y-104140000D01*
X82969500Y-100965000D02*
X80772000Y-100965000D01*
X96614999Y-114078001D02*
X97790000Y-112903000D01*
X84422999Y-114078001D02*
X96614999Y-114078001D01*
X83566000Y-114935000D02*
X84422999Y-114078001D01*
X96614999Y-116807999D02*
X97790000Y-117983000D01*
X84365997Y-116807999D02*
X96614999Y-116807999D01*
X82840999Y-115283001D02*
X84365997Y-116807999D01*
X82840999Y-112485001D02*
X82840999Y-115283001D01*
X84074000Y-111252000D02*
X82840999Y-112485001D01*
X97814284Y-92900500D02*
X89344500Y-92900500D01*
X102592002Y-92900500D02*
X97814284Y-92900500D01*
X102647298Y-92894269D02*
X102592002Y-92900500D01*
X102699821Y-92875890D02*
X102647298Y-92894269D01*
X102746937Y-92846285D02*
X102699821Y-92875890D01*
X102786285Y-92806937D02*
X102746937Y-92846285D01*
X102815890Y-92759821D02*
X102786285Y-92806937D01*
X102834269Y-92707298D02*
X102815890Y-92759821D01*
X102846730Y-92596705D02*
X102834269Y-92707298D01*
X102865109Y-92544182D02*
X102846730Y-92596705D01*
X102894714Y-92497066D02*
X102865109Y-92544182D01*
X102934062Y-92457718D02*
X102894714Y-92497066D01*
X102981178Y-92428113D02*
X102934062Y-92457718D01*
X103033701Y-92409734D02*
X102981178Y-92428113D01*
X103088998Y-92403504D02*
X103033701Y-92409734D01*
X103192002Y-92403504D02*
X103088998Y-92403504D01*
X103247298Y-92409734D02*
X103192002Y-92403504D01*
X103299821Y-92428113D02*
X103247298Y-92409734D01*
X103346937Y-92457718D02*
X103299821Y-92428113D01*
X103386285Y-92497066D02*
X103346937Y-92457718D01*
X103415890Y-92544182D02*
X103386285Y-92497066D01*
X103434269Y-92596705D02*
X103415890Y-92544182D01*
X103440500Y-92652002D02*
X103434269Y-92596705D01*
X103440500Y-93023998D02*
X103440500Y-92652002D01*
X103443596Y-93051479D02*
X103440500Y-93023998D01*
X103452730Y-93077582D02*
X103443596Y-93051479D01*
X103467443Y-93100998D02*
X103452730Y-93077582D01*
X103486998Y-93120553D02*
X103467443Y-93100998D01*
X103510414Y-93135266D02*
X103486998Y-93120553D01*
X103536517Y-93144400D02*
X103510414Y-93135266D01*
X103563998Y-93147496D02*
X103536517Y-93144400D01*
X103917002Y-93147496D02*
X103563998Y-93147496D01*
X103944482Y-93144400D02*
X103917002Y-93147496D01*
X103970585Y-93135266D02*
X103944482Y-93144400D01*
X103994001Y-93120553D02*
X103970585Y-93135266D01*
X104013556Y-93100998D02*
X103994001Y-93120553D01*
X104028269Y-93077582D02*
X104013556Y-93100998D01*
X104037403Y-93051479D02*
X104028269Y-93077582D01*
X104040500Y-93023998D02*
X104037403Y-93051479D01*
X104040500Y-92652002D02*
X104040500Y-93023998D01*
X104046730Y-92596705D02*
X104040500Y-92652002D01*
X104065109Y-92544182D02*
X104046730Y-92596705D01*
X104094714Y-92497066D02*
X104065109Y-92544182D01*
X104134062Y-92457718D02*
X104094714Y-92497066D01*
X104181178Y-92428113D02*
X104134062Y-92457718D01*
X104233701Y-92409734D02*
X104181178Y-92428113D01*
X104288998Y-92403504D02*
X104233701Y-92409734D01*
X104392002Y-92403504D02*
X104288998Y-92403504D01*
X104447298Y-92409734D02*
X104392002Y-92403504D01*
X104499821Y-92428113D02*
X104447298Y-92409734D01*
X104546937Y-92457718D02*
X104499821Y-92428113D01*
X104586285Y-92497066D02*
X104546937Y-92457718D01*
X104615890Y-92544182D02*
X104586285Y-92497066D01*
X104634269Y-92596705D02*
X104615890Y-92544182D01*
X104640500Y-92652002D02*
X104634269Y-92596705D01*
X104640500Y-93023998D02*
X104640500Y-92652002D01*
X104643596Y-93051479D02*
X104640500Y-93023998D01*
X104652730Y-93077582D02*
X104643596Y-93051479D01*
X104667443Y-93100998D02*
X104652730Y-93077582D01*
X104686998Y-93120553D02*
X104667443Y-93100998D01*
X104710414Y-93135266D02*
X104686998Y-93120553D01*
X104736517Y-93144400D02*
X104710414Y-93135266D01*
X104763998Y-93147496D02*
X104736517Y-93144400D01*
X105117002Y-93147496D02*
X104763998Y-93147496D01*
X105144482Y-93144400D02*
X105117002Y-93147496D01*
X105170585Y-93135266D02*
X105144482Y-93144400D01*
X110040500Y-92652002D02*
X110040500Y-93023998D01*
X110065109Y-92544182D02*
X110046730Y-92596705D01*
X110094714Y-92497066D02*
X110065109Y-92544182D01*
X110181178Y-92428113D02*
X110134062Y-92457718D01*
X110233701Y-92409734D02*
X110181178Y-92428113D01*
X110615890Y-92544182D02*
X110586285Y-92497066D01*
X110640500Y-93023998D02*
X110640500Y-92652002D01*
X110643596Y-93051479D02*
X110640500Y-93023998D01*
X110710414Y-93135266D02*
X110686998Y-93120553D01*
X111117002Y-93147496D02*
X110763998Y-93147496D01*
X111144482Y-93144400D02*
X111117002Y-93147496D01*
X111170585Y-93135266D02*
X111144482Y-93144400D01*
X111194001Y-93120553D02*
X111170585Y-93135266D01*
X111213556Y-93100998D02*
X111194001Y-93120553D01*
X111228269Y-93077582D02*
X111213556Y-93100998D01*
X111237403Y-93051479D02*
X111228269Y-93077582D01*
X111240500Y-93023998D02*
X111237403Y-93051479D01*
X111240500Y-92652002D02*
X111240500Y-93023998D01*
X111246730Y-92596705D02*
X111240500Y-92652002D01*
X111265109Y-92544182D02*
X111246730Y-92596705D01*
X111294714Y-92497066D02*
X111265109Y-92544182D01*
X111334062Y-92457718D02*
X111294714Y-92497066D01*
X111381178Y-92428113D02*
X111334062Y-92457718D01*
X111433701Y-92409734D02*
X111381178Y-92428113D01*
X111488998Y-92403504D02*
X111433701Y-92409734D01*
X111592002Y-92403504D02*
X111488998Y-92403504D01*
X111647298Y-92409734D02*
X111592002Y-92403504D01*
X111699821Y-92428113D02*
X111647298Y-92409734D01*
X111746937Y-92457718D02*
X111699821Y-92428113D01*
X111786285Y-92497066D02*
X111746937Y-92457718D01*
X111815890Y-92544182D02*
X111786285Y-92497066D01*
X111834269Y-92596705D02*
X111815890Y-92544182D01*
X111840500Y-92652002D02*
X111834269Y-92596705D01*
X111840500Y-93023998D02*
X111840500Y-92652002D01*
X111843596Y-93051479D02*
X111840500Y-93023998D01*
X111852730Y-93077582D02*
X111843596Y-93051479D01*
X111867443Y-93100998D02*
X111852730Y-93077582D01*
X111886998Y-93120553D02*
X111867443Y-93100998D01*
X111910414Y-93135266D02*
X111886998Y-93120553D01*
X111936517Y-93144400D02*
X111910414Y-93135266D01*
X111963998Y-93147496D02*
X111936517Y-93144400D01*
X112317002Y-93147496D02*
X111963998Y-93147496D01*
X112344482Y-93144400D02*
X112317002Y-93147496D01*
X112370585Y-93135266D02*
X112344482Y-93144400D01*
X112394001Y-93120553D02*
X112370585Y-93135266D01*
X112413556Y-93100998D02*
X112394001Y-93120553D01*
X112428269Y-93077582D02*
X112413556Y-93100998D01*
X112437403Y-93051479D02*
X112428269Y-93077582D01*
X112440500Y-93023998D02*
X112437403Y-93051479D01*
X112440500Y-92652002D02*
X112440500Y-93023998D01*
X113642002Y-92652002D02*
X113642002Y-92900500D01*
X110634269Y-92596705D02*
X110615890Y-92544182D01*
X113648232Y-92596705D02*
X113642002Y-92652002D01*
X113735564Y-92457718D02*
X113696216Y-92497066D01*
X110652730Y-93077582D02*
X110643596Y-93051479D01*
X113782680Y-92428113D02*
X113735564Y-92457718D01*
X105699821Y-92428113D02*
X105647298Y-92409734D01*
X113890500Y-92403504D02*
X113835203Y-92409734D01*
X105265109Y-92544182D02*
X105246730Y-92596705D01*
X113086998Y-93120553D02*
X113067443Y-93100998D01*
X113642002Y-92900500D02*
X113640500Y-92900500D01*
X105786285Y-92497066D02*
X105746937Y-92457718D01*
X110499821Y-92428113D02*
X110447298Y-92409734D01*
X113993504Y-92403504D02*
X113890500Y-92403504D01*
X105488998Y-92403504D02*
X105433701Y-92409734D01*
X110028269Y-93077582D02*
X110013556Y-93100998D01*
X114048800Y-92409734D02*
X113993504Y-92403504D01*
X112946937Y-92457718D02*
X112899821Y-92428113D01*
X110586285Y-92497066D02*
X110546937Y-92457718D01*
X113640500Y-92900500D02*
X113640500Y-93023998D01*
X110046730Y-92596705D02*
X110040500Y-92652002D01*
X114148439Y-92457718D02*
X114101323Y-92428113D01*
X110667443Y-93100998D02*
X110652730Y-93077582D01*
X114187787Y-92497066D02*
X114148439Y-92457718D01*
X105334062Y-92457718D02*
X105294714Y-92497066D01*
X113640500Y-93023998D02*
X113637403Y-93051479D01*
X105867443Y-93100998D02*
X105852730Y-93077582D01*
X125062999Y-96487999D02*
X121255819Y-96487999D01*
X105237403Y-93051479D02*
X105228269Y-93077582D01*
X110736517Y-93144400D02*
X110710414Y-93135266D01*
X114235771Y-92596705D02*
X114217392Y-92544182D01*
X105843596Y-93051479D02*
X105840500Y-93023998D01*
X110640500Y-92652002D02*
X110634269Y-92596705D01*
X121255819Y-96487999D02*
X117668320Y-92900500D01*
X113015890Y-92544182D02*
X112986285Y-92497066D01*
X113666611Y-92544182D02*
X113648232Y-92596705D01*
X117668320Y-92900500D02*
X114490500Y-92900500D01*
X105228269Y-93077582D02*
X105213556Y-93100998D01*
X114101323Y-92428113D02*
X114048800Y-92409734D01*
X105910414Y-93135266D02*
X105886998Y-93120553D01*
X114382680Y-92875890D02*
X114335564Y-92846285D01*
X114248232Y-92707298D02*
X114235771Y-92596705D01*
X105592002Y-92403504D02*
X105488998Y-92403504D01*
X112688998Y-92403504D02*
X112633701Y-92409734D01*
X114490500Y-92900500D02*
X114435203Y-92894269D01*
X112494714Y-92497066D02*
X112465109Y-92544182D01*
X126238000Y-97663000D02*
X125062999Y-96487999D01*
X105840500Y-92652002D02*
X105834269Y-92596705D01*
X112792002Y-92403504D02*
X112688998Y-92403504D01*
X110037403Y-93051479D02*
X110028269Y-93077582D01*
X113835203Y-92409734D02*
X113782680Y-92428113D01*
X113052730Y-93077582D02*
X113043596Y-93051479D01*
X114435203Y-92894269D02*
X114382680Y-92875890D01*
X110546937Y-92457718D02*
X110499821Y-92428113D01*
X113696216Y-92497066D02*
X113666611Y-92544182D01*
X114266611Y-92759821D02*
X114248232Y-92707298D01*
X105886998Y-93120553D02*
X105867443Y-93100998D01*
X114335564Y-92846285D02*
X114296216Y-92806937D01*
X105381178Y-92428113D02*
X105334062Y-92457718D01*
X110040500Y-93023998D02*
X110037403Y-93051479D01*
X114296216Y-92806937D02*
X114266611Y-92759821D01*
X112446730Y-92596705D02*
X112440500Y-92652002D01*
X110134062Y-92457718D02*
X110094714Y-92497066D01*
X114217392Y-92544182D02*
X114187787Y-92497066D01*
X105240500Y-92652002D02*
X105240500Y-93023998D01*
X113637403Y-93051479D02*
X113628269Y-93077582D01*
X113034269Y-92596705D02*
X113015890Y-92544182D01*
X110686998Y-93120553D02*
X110667443Y-93100998D01*
X113628269Y-93077582D02*
X113613556Y-93100998D01*
X105647298Y-92409734D02*
X105592002Y-92403504D01*
X112847298Y-92409734D02*
X112792002Y-92403504D01*
X110763998Y-93147496D02*
X110736517Y-93144400D01*
X113613556Y-93100998D02*
X113594001Y-93120553D01*
X113040500Y-92652002D02*
X113034269Y-92596705D01*
X110447298Y-92409734D02*
X110392002Y-92403504D01*
X113594001Y-93120553D02*
X113570585Y-93135266D01*
X105840500Y-93023998D02*
X105840500Y-92652002D01*
X110288998Y-92403504D02*
X110233701Y-92409734D01*
X113570585Y-93135266D02*
X113544482Y-93144400D01*
X105815890Y-92544182D02*
X105786285Y-92497066D01*
X112465109Y-92544182D02*
X112446730Y-92596705D01*
X110392002Y-92403504D02*
X110288998Y-92403504D01*
X113544482Y-93144400D02*
X113517002Y-93147496D01*
X112581178Y-92428113D02*
X112534062Y-92457718D01*
X113517002Y-93147496D02*
X113163998Y-93147496D01*
X105194001Y-93120553D02*
X105170585Y-93135266D01*
X113163998Y-93147496D02*
X113136517Y-93144400D01*
X113136517Y-93144400D02*
X113110414Y-93135266D01*
X113110414Y-93135266D02*
X113086998Y-93120553D01*
X113067443Y-93100998D02*
X113052730Y-93077582D01*
X113043596Y-93051479D02*
X113040500Y-93023998D01*
X113040500Y-93023998D02*
X113040500Y-92652002D01*
X112986285Y-92497066D02*
X112946937Y-92457718D01*
X112899821Y-92428113D02*
X112847298Y-92409734D01*
X112633701Y-92409734D02*
X112581178Y-92428113D01*
X112534062Y-92457718D02*
X112494714Y-92497066D01*
X110013556Y-93100998D02*
X109994001Y-93120553D01*
X109994001Y-93120553D02*
X109970585Y-93135266D01*
X109970585Y-93135266D02*
X109944482Y-93144400D01*
X109944482Y-93144400D02*
X109917002Y-93147496D01*
X109917002Y-93147496D02*
X109563998Y-93147496D01*
X109563998Y-93147496D02*
X109536517Y-93144400D01*
X109536517Y-93144400D02*
X109510414Y-93135266D01*
X109510414Y-93135266D02*
X109486998Y-93120553D01*
X109486998Y-93120553D02*
X109467443Y-93100998D01*
X109467443Y-93100998D02*
X109452730Y-93077582D01*
X109452730Y-93077582D02*
X109443596Y-93051479D01*
X109443596Y-93051479D02*
X109440500Y-93023998D01*
X109440500Y-93023998D02*
X109440500Y-92652002D01*
X109440500Y-92652002D02*
X109434269Y-92596705D01*
X109434269Y-92596705D02*
X109415890Y-92544182D01*
X109415890Y-92544182D02*
X109386285Y-92497066D01*
X109386285Y-92497066D02*
X109346937Y-92457718D01*
X109346937Y-92457718D02*
X109299821Y-92428113D01*
X109299821Y-92428113D02*
X109247298Y-92409734D01*
X109247298Y-92409734D02*
X109192002Y-92403504D01*
X109192002Y-92403504D02*
X109088998Y-92403504D01*
X109088998Y-92403504D02*
X109033701Y-92409734D01*
X109033701Y-92409734D02*
X108981178Y-92428113D01*
X108981178Y-92428113D02*
X108934062Y-92457718D01*
X108934062Y-92457718D02*
X108894714Y-92497066D01*
X108894714Y-92497066D02*
X108865109Y-92544182D01*
X108865109Y-92544182D02*
X108846730Y-92596705D01*
X108846730Y-92596705D02*
X108840500Y-92652002D01*
X108840500Y-92652002D02*
X108840500Y-93023998D01*
X108840500Y-93023998D02*
X108837403Y-93051479D01*
X108837403Y-93051479D02*
X108828269Y-93077582D01*
X108828269Y-93077582D02*
X108813556Y-93100998D01*
X108813556Y-93100998D02*
X108794001Y-93120553D01*
X108794001Y-93120553D02*
X108770585Y-93135266D01*
X108770585Y-93135266D02*
X108744482Y-93144400D01*
X108744482Y-93144400D02*
X108717002Y-93147496D01*
X108717002Y-93147496D02*
X108363998Y-93147496D01*
X108363998Y-93147496D02*
X108336517Y-93144400D01*
X108336517Y-93144400D02*
X108310414Y-93135266D01*
X108310414Y-93135266D02*
X108286998Y-93120553D01*
X108286998Y-93120553D02*
X108267443Y-93100998D01*
X108267443Y-93100998D02*
X108252730Y-93077582D01*
X108252730Y-93077582D02*
X108243596Y-93051479D01*
X108243596Y-93051479D02*
X108240500Y-93023998D01*
X108240500Y-93023998D02*
X108240500Y-92652002D01*
X108240500Y-92652002D02*
X108234269Y-92596705D01*
X108234269Y-92596705D02*
X108215890Y-92544182D01*
X108215890Y-92544182D02*
X108186285Y-92497066D01*
X108186285Y-92497066D02*
X108146937Y-92457718D01*
X108146937Y-92457718D02*
X108099821Y-92428113D01*
X108099821Y-92428113D02*
X108047298Y-92409734D01*
X108047298Y-92409734D02*
X107992002Y-92403504D01*
X107992002Y-92403504D02*
X107888998Y-92403504D01*
X107888998Y-92403504D02*
X107833701Y-92409734D01*
X107833701Y-92409734D02*
X107781178Y-92428113D01*
X107781178Y-92428113D02*
X107734062Y-92457718D01*
X107734062Y-92457718D02*
X107694714Y-92497066D01*
X107694714Y-92497066D02*
X107665109Y-92544182D01*
X107665109Y-92544182D02*
X107646730Y-92596705D01*
X107646730Y-92596705D02*
X107640500Y-92652002D01*
X107640500Y-92652002D02*
X107640500Y-93023998D01*
X107640500Y-93023998D02*
X107637403Y-93051479D01*
X107637403Y-93051479D02*
X107628269Y-93077582D01*
X107628269Y-93077582D02*
X107613556Y-93100998D01*
X107613556Y-93100998D02*
X107594001Y-93120553D01*
X107594001Y-93120553D02*
X107570585Y-93135266D01*
X107570585Y-93135266D02*
X107544482Y-93144400D01*
X107544482Y-93144400D02*
X107517002Y-93147496D01*
X107517002Y-93147496D02*
X107163998Y-93147496D01*
X107163998Y-93147496D02*
X107136517Y-93144400D01*
X107136517Y-93144400D02*
X107110414Y-93135266D01*
X107110414Y-93135266D02*
X107086998Y-93120553D01*
X107086998Y-93120553D02*
X107067443Y-93100998D01*
X107067443Y-93100998D02*
X107052730Y-93077582D01*
X107052730Y-93077582D02*
X107043596Y-93051479D01*
X107043596Y-93051479D02*
X107040500Y-93023998D01*
X107040500Y-93023998D02*
X107040500Y-92652002D01*
X107040500Y-92652002D02*
X107034269Y-92596705D01*
X107034269Y-92596705D02*
X107015890Y-92544182D01*
X107015890Y-92544182D02*
X106986285Y-92497066D01*
X106986285Y-92497066D02*
X106946937Y-92457718D01*
X106946937Y-92457718D02*
X106899821Y-92428113D01*
X106899821Y-92428113D02*
X106847298Y-92409734D01*
X106847298Y-92409734D02*
X106792002Y-92403504D01*
X106792002Y-92403504D02*
X106688998Y-92403504D01*
X106688998Y-92403504D02*
X106633701Y-92409734D01*
X106633701Y-92409734D02*
X106581178Y-92428113D01*
X106581178Y-92428113D02*
X106534062Y-92457718D01*
X106534062Y-92457718D02*
X106494714Y-92497066D01*
X106494714Y-92497066D02*
X106465109Y-92544182D01*
X106465109Y-92544182D02*
X106446730Y-92596705D01*
X106446730Y-92596705D02*
X106440500Y-92652002D01*
X106440500Y-92652002D02*
X106440500Y-93023998D01*
X106440500Y-93023998D02*
X106437403Y-93051479D01*
X106437403Y-93051479D02*
X106428269Y-93077582D01*
X106428269Y-93077582D02*
X106413556Y-93100998D01*
X106413556Y-93100998D02*
X106394001Y-93120553D01*
X106394001Y-93120553D02*
X106370585Y-93135266D01*
X106370585Y-93135266D02*
X106344482Y-93144400D01*
X106344482Y-93144400D02*
X106317002Y-93147496D01*
X106317002Y-93147496D02*
X105963998Y-93147496D01*
X105963998Y-93147496D02*
X105936517Y-93144400D01*
X105936517Y-93144400D02*
X105910414Y-93135266D01*
X105852730Y-93077582D02*
X105843596Y-93051479D01*
X105834269Y-92596705D02*
X105815890Y-92544182D01*
X105746937Y-92457718D02*
X105699821Y-92428113D01*
X105433701Y-92409734D02*
X105381178Y-92428113D01*
X105294714Y-92497066D02*
X105265109Y-92544182D01*
X105246730Y-92596705D02*
X105240500Y-92652002D01*
X105240500Y-93023998D02*
X105237403Y-93051479D01*
X105213556Y-93100998D02*
X105194001Y-93120553D01*
X124334410Y-97663000D02*
X123698000Y-97663000D01*
X125604410Y-98933000D02*
X124334410Y-97663000D01*
X126707002Y-98933000D02*
X125604410Y-98933000D01*
X127413001Y-98227001D02*
X126707002Y-98933000D01*
X127413001Y-94558999D02*
X127413001Y-98227001D01*
X123405002Y-90551000D02*
X127413001Y-94558999D01*
X89281000Y-90551000D02*
X123405002Y-90551000D01*
X85751501Y-93625501D02*
X84074000Y-91948000D01*
X113055001Y-93625501D02*
X85751501Y-93625501D01*
X113109685Y-93631663D02*
X113055001Y-93625501D01*
X113161627Y-93649838D02*
X113109685Y-93631663D01*
X113208222Y-93679116D02*
X113161627Y-93649838D01*
X113906911Y-93816566D02*
X113894588Y-93925935D01*
X113247135Y-93718029D02*
X113208222Y-93679116D01*
X113993277Y-93679116D02*
X113954364Y-93718029D01*
X113925086Y-93764624D02*
X113906911Y-93816566D01*
X113954364Y-93718029D02*
X113925086Y-93764624D01*
X114146499Y-93625501D02*
X114091814Y-93631663D01*
X113894588Y-93925935D02*
X113876413Y-93977877D01*
X114091814Y-93631663D02*
X114039872Y-93649838D01*
X117449909Y-93625501D02*
X114146499Y-93625501D01*
X125062999Y-99027999D02*
X123159409Y-99027999D01*
X113709685Y-94110838D02*
X113655001Y-94116999D01*
X114039872Y-93649838D02*
X113993277Y-93679116D01*
X126238000Y-100203000D02*
X125062999Y-99027999D01*
X117603410Y-93472000D02*
X117449909Y-93625501D01*
X123159409Y-99027999D02*
X117603410Y-93472000D01*
X113325086Y-93977877D02*
X113306911Y-93925935D01*
X113876413Y-93977877D02*
X113847135Y-94024472D01*
X113294588Y-93816566D02*
X113276413Y-93764624D01*
X113847135Y-94024472D02*
X113808222Y-94063385D01*
X113808222Y-94063385D02*
X113761627Y-94092663D01*
X113761627Y-94092663D02*
X113709685Y-94110838D01*
X113276413Y-93764624D02*
X113247135Y-93718029D01*
X113655001Y-94116999D02*
X113546499Y-94116999D01*
X113546499Y-94116999D02*
X113491814Y-94110838D01*
X113491814Y-94110838D02*
X113439872Y-94092663D01*
X113439872Y-94092663D02*
X113393277Y-94063385D01*
X113393277Y-94063385D02*
X113354364Y-94024472D01*
X113354364Y-94024472D02*
X113325086Y-93977877D01*
X113306911Y-93925935D02*
X113294588Y-93816566D01*
X83348999Y-90768001D02*
X84074000Y-90043000D01*
X83348999Y-92296001D02*
X83348999Y-90768001D01*
X90080997Y-99027999D02*
X83348999Y-92296001D01*
X117660489Y-99027999D02*
X90080997Y-99027999D01*
X118381917Y-98680976D02*
X118344990Y-98657773D01*
X118606663Y-99023116D02*
X118565499Y-99008712D01*
X118412755Y-98711814D02*
X118381917Y-98680976D01*
X118050001Y-98638487D02*
X118006663Y-98643369D01*
X118450362Y-98789905D02*
X118435958Y-98748741D01*
X118435958Y-98748741D02*
X118412755Y-98711814D01*
X123698000Y-100203000D02*
X122522999Y-99027999D01*
X118460127Y-98876580D02*
X118450362Y-98789905D01*
X118474531Y-98917744D02*
X118460127Y-98876580D01*
X118565499Y-99008712D02*
X118528572Y-98985509D01*
X118650001Y-99027999D02*
X118606663Y-99023116D01*
X117850362Y-98876580D02*
X117835958Y-98917744D01*
X122522999Y-99027999D02*
X118650001Y-99027999D01*
X118528572Y-98985509D02*
X118497734Y-98954671D01*
X118344990Y-98657773D02*
X118303826Y-98643369D01*
X117860127Y-98789905D02*
X117850362Y-98876580D01*
X118303826Y-98643369D02*
X118260489Y-98638487D01*
X118260489Y-98638487D02*
X118050001Y-98638487D01*
X118006663Y-98643369D02*
X117965499Y-98657773D01*
X118497734Y-98954671D02*
X118474531Y-98917744D01*
X117965499Y-98657773D02*
X117928572Y-98680976D01*
X117928572Y-98680976D02*
X117897734Y-98711814D01*
X117897734Y-98711814D02*
X117874531Y-98748741D01*
X117874531Y-98748741D02*
X117860127Y-98789905D01*
X117835958Y-98917744D02*
X117812755Y-98954671D01*
X117812755Y-98954671D02*
X117781917Y-98985509D01*
X117744990Y-99008712D02*
X117703826Y-99023116D01*
X117781917Y-98985509D02*
X117744990Y-99008712D01*
X117703826Y-99023116D02*
X117660489Y-99027999D01*
X88969998Y-105283000D02*
X95250000Y-105283000D01*
X82390990Y-111862008D02*
X88969998Y-105283000D01*
X82390990Y-122714010D02*
X82390990Y-111862008D01*
X74593999Y-130511001D02*
X82390990Y-122714010D01*
X61931001Y-130511001D02*
X74593999Y-130511001D01*
X60706000Y-129286000D02*
X61931001Y-130511001D01*
D20*
X152756001Y-131166000D02*
X80593383Y-131166000D01*
X80884977Y-130971163D01*
X81187163Y-130668977D01*
X81424588Y-130313645D01*
X81588130Y-129918821D01*
X81671503Y-129499677D01*
X81671503Y-129072323D01*
X81588130Y-128653179D01*
X81424588Y-128258355D01*
X81289595Y-128056323D01*
X147944497Y-128056323D01*
X147944497Y-128483677D01*
X148027870Y-128902821D01*
X148191412Y-129297645D01*
X148428837Y-129652977D01*
X148731023Y-129955163D01*
X149086355Y-130192588D01*
X149481179Y-130356130D01*
X149900323Y-130439503D01*
X150327677Y-130439503D01*
X150746821Y-130356130D01*
X151141645Y-130192588D01*
X151496977Y-129955163D01*
X151799163Y-129652977D01*
X152036588Y-129297645D01*
X152200130Y-128902821D01*
X152283503Y-128483677D01*
X152283503Y-128056323D01*
X152200130Y-127637179D01*
X152036588Y-127242355D01*
X151799163Y-126887023D01*
X151496977Y-126584837D01*
X151141645Y-126347412D01*
X150746821Y-126183870D01*
X150327677Y-126100497D01*
X149900323Y-126100497D01*
X149481179Y-126183870D01*
X149086355Y-126347412D01*
X148731023Y-126584837D01*
X148428837Y-126887023D01*
X148191412Y-127242355D01*
X148027870Y-127637179D01*
X147944497Y-128056323D01*
X81289595Y-128056323D01*
X81187163Y-127903023D01*
X80884977Y-127600837D01*
X80529645Y-127363412D01*
X80134821Y-127199870D01*
X79715677Y-127116497D01*
X79288323Y-127116497D01*
X79007432Y-127172370D01*
X82901999Y-123277804D01*
X82930991Y-123254011D01*
X82954785Y-123225018D01*
X82954789Y-123225014D01*
X83025963Y-123138287D01*
X83025964Y-123138286D01*
X83096536Y-123006257D01*
X83139993Y-122862996D01*
X83150990Y-122751343D01*
X83150990Y-122751334D01*
X83154666Y-122714011D01*
X83150990Y-122676688D01*
X83150990Y-116667794D01*
X83802197Y-117319001D01*
X83825996Y-117348000D01*
X83941721Y-117442973D01*
X84073750Y-117513545D01*
X84217011Y-117557002D01*
X84328664Y-117567999D01*
X84328674Y-117567999D01*
X84365997Y-117571675D01*
X84403320Y-117567999D01*
X93761928Y-117567999D01*
X93761928Y-118833000D01*
X93774188Y-118957482D01*
X93810498Y-119077180D01*
X93869463Y-119187494D01*
X93948815Y-119284185D01*
X94045506Y-119363537D01*
X94155820Y-119422502D01*
X94275518Y-119458812D01*
X94400000Y-119471072D01*
X96100000Y-119471072D01*
X96224482Y-119458812D01*
X96344180Y-119422502D01*
X96454494Y-119363537D01*
X96551185Y-119284185D01*
X96630537Y-119187494D01*
X96689502Y-119077180D01*
X96711513Y-119004620D01*
X96843368Y-119136475D01*
X97086589Y-119298990D01*
X97356842Y-119410932D01*
X97643740Y-119468000D01*
X97936260Y-119468000D01*
X98223158Y-119410932D01*
X98493411Y-119298990D01*
X98736632Y-119136475D01*
X98943475Y-118929632D01*
X99105990Y-118686411D01*
X99217932Y-118416158D01*
X99275000Y-118129260D01*
X99275000Y-117836740D01*
X99217932Y-117549842D01*
X99105990Y-117279589D01*
X98943475Y-117036368D01*
X98736632Y-116829525D01*
X98562240Y-116713000D01*
X98736632Y-116596475D01*
X98943475Y-116389632D01*
X99105990Y-116146411D01*
X99217932Y-115876158D01*
X99275000Y-115589260D01*
X99275000Y-115296740D01*
X99217932Y-115009842D01*
X99105990Y-114739589D01*
X98943475Y-114496368D01*
X98736632Y-114289525D01*
X98562240Y-114173000D01*
X98736632Y-114056475D01*
X98943475Y-113849632D01*
X99105990Y-113606411D01*
X99217932Y-113336158D01*
X99233102Y-113259890D01*
X122256524Y-113259890D01*
X122301175Y-113407099D01*
X122426359Y-113669920D01*
X122600412Y-113903269D01*
X122816645Y-114098178D01*
X122942255Y-114173000D01*
X122816645Y-114247822D01*
X122600412Y-114442731D01*
X122426359Y-114676080D01*
X122301175Y-114938901D01*
X122256524Y-115086110D01*
X122377845Y-115316000D01*
X123571000Y-115316000D01*
X123571000Y-113030000D01*
X122377845Y-113030000D01*
X122256524Y-113259890D01*
X99233102Y-113259890D01*
X99275000Y-113049260D01*
X99275000Y-112756740D01*
X99217932Y-112469842D01*
X99105990Y-112199589D01*
X98943475Y-111956368D01*
X98736632Y-111749525D01*
X98562240Y-111633000D01*
X98736632Y-111516475D01*
X98943475Y-111309632D01*
X99105990Y-111066411D01*
X99217932Y-110796158D01*
X99275000Y-110509260D01*
X99275000Y-110216740D01*
X99217932Y-109929842D01*
X99105990Y-109659589D01*
X98943475Y-109416368D01*
X98736632Y-109209525D01*
X98562240Y-109093000D01*
X98736632Y-108976475D01*
X98943475Y-108769632D01*
X99105990Y-108526411D01*
X99217932Y-108256158D01*
X99275000Y-107969260D01*
X99275000Y-107676740D01*
X99217932Y-107389842D01*
X99105990Y-107119589D01*
X98943475Y-106876368D01*
X98736632Y-106669525D01*
X98562240Y-106553000D01*
X98736632Y-106436475D01*
X98943475Y-106229632D01*
X99105990Y-105986411D01*
X99217932Y-105716158D01*
X99275000Y-105429260D01*
X99275000Y-105136740D01*
X99217932Y-104849842D01*
X99105990Y-104579589D01*
X98943475Y-104336368D01*
X98736632Y-104129525D01*
X98562240Y-104013000D01*
X98736632Y-103896475D01*
X98943475Y-103689632D01*
X99105990Y-103446411D01*
X99217932Y-103176158D01*
X99275000Y-102889260D01*
X99275000Y-102596740D01*
X99217932Y-102309842D01*
X99105990Y-102039589D01*
X98943475Y-101796368D01*
X98736632Y-101589525D01*
X98562240Y-101473000D01*
X98736632Y-101356475D01*
X98943475Y-101149632D01*
X99105990Y-100906411D01*
X99217932Y-100636158D01*
X99275000Y-100349260D01*
X99275000Y-100056740D01*
X99221544Y-99787999D01*
X117591021Y-99787999D01*
X117596304Y-99788973D01*
X117665766Y-99787999D01*
X117697822Y-99787999D01*
X117703143Y-99787475D01*
X117708485Y-99787400D01*
X117740302Y-99783815D01*
X117768000Y-99781087D01*
X117810582Y-99779294D01*
X117872968Y-99764131D01*
X117935738Y-99750727D01*
X117975530Y-99733587D01*
X118017336Y-99722175D01*
X118074789Y-99693508D01*
X118132996Y-99666475D01*
X118155244Y-99650215D01*
X118177493Y-99666475D01*
X118235700Y-99693508D01*
X118293153Y-99722175D01*
X118334957Y-99733587D01*
X118374753Y-99750728D01*
X118437521Y-99764131D01*
X118499907Y-99779294D01*
X118542490Y-99781087D01*
X118570202Y-99783816D01*
X118602007Y-99787400D01*
X118607346Y-99787475D01*
X118612668Y-99787999D01*
X118644726Y-99787999D01*
X118714188Y-99788973D01*
X118719471Y-99787999D01*
X122208198Y-99787999D01*
X122256791Y-99836592D01*
X122213000Y-100056740D01*
X122213000Y-100349260D01*
X122270068Y-100636158D01*
X122382010Y-100906411D01*
X122544525Y-101149632D01*
X122751368Y-101356475D01*
X122925760Y-101473000D01*
X122751368Y-101589525D01*
X122544525Y-101796368D01*
X122382010Y-102039589D01*
X122270068Y-102309842D01*
X122213000Y-102596740D01*
X122213000Y-102889260D01*
X122270068Y-103176158D01*
X122382010Y-103446411D01*
X122544525Y-103689632D01*
X122751368Y-103896475D01*
X122925760Y-104013000D01*
X122751368Y-104129525D01*
X122544525Y-104336368D01*
X122382010Y-104579589D01*
X122270068Y-104849842D01*
X122213000Y-105136740D01*
X122213000Y-105429260D01*
X122270068Y-105716158D01*
X122382010Y-105986411D01*
X122544525Y-106229632D01*
X122751368Y-106436475D01*
X122925760Y-106553000D01*
X122751368Y-106669525D01*
X122544525Y-106876368D01*
X122382010Y-107119589D01*
X122270068Y-107389842D01*
X122213000Y-107676740D01*
X122213000Y-107969260D01*
X122270068Y-108256158D01*
X122382010Y-108526411D01*
X122544525Y-108769632D01*
X122751368Y-108976475D01*
X122925760Y-109093000D01*
X122751368Y-109209525D01*
X122544525Y-109416368D01*
X122382010Y-109659589D01*
X122270068Y-109929842D01*
X122213000Y-110216740D01*
X122213000Y-110509260D01*
X122270068Y-110796158D01*
X122382010Y-111066411D01*
X122544525Y-111309632D01*
X122751368Y-111516475D01*
X122933534Y-111638195D01*
X122816645Y-111707822D01*
X122600412Y-111902731D01*
X122426359Y-112136080D01*
X122301175Y-112398901D01*
X122256524Y-112546110D01*
X122377845Y-112776000D01*
X123571000Y-112776000D01*
X123571000Y-112756000D01*
X123825000Y-112756000D01*
X123825000Y-112776000D01*
X123845000Y-112776000D01*
X123845000Y-113030000D01*
X123825000Y-113030000D01*
X123825000Y-115316000D01*
X123845000Y-115316000D01*
X123845000Y-115570000D01*
X123825000Y-115570000D01*
X123825000Y-115590000D01*
X123571000Y-115590000D01*
X123571000Y-115570000D01*
X122377845Y-115570000D01*
X122256524Y-115799890D01*
X122301175Y-115947099D01*
X122426359Y-116209920D01*
X122600412Y-116443269D01*
X122684466Y-116519034D01*
X122603820Y-116543498D01*
X122493506Y-116602463D01*
X122396815Y-116681815D01*
X122317463Y-116778506D01*
X122258498Y-116888820D01*
X122222188Y-117008518D01*
X122209928Y-117133000D01*
X122209928Y-118833000D01*
X122222188Y-118957482D01*
X122258498Y-119077180D01*
X122317463Y-119187494D01*
X122396815Y-119284185D01*
X122493506Y-119363537D01*
X122603820Y-119422502D01*
X122723518Y-119458812D01*
X122848000Y-119471072D01*
X124548000Y-119471072D01*
X124672482Y-119458812D01*
X124792180Y-119422502D01*
X124902494Y-119363537D01*
X124999185Y-119284185D01*
X125078537Y-119187494D01*
X125137502Y-119077180D01*
X125159513Y-119004620D01*
X125291368Y-119136475D01*
X125534589Y-119298990D01*
X125804842Y-119410932D01*
X126091740Y-119468000D01*
X126384260Y-119468000D01*
X126671158Y-119410932D01*
X126941411Y-119298990D01*
X127184632Y-119136475D01*
X127391475Y-118929632D01*
X127553990Y-118686411D01*
X127665932Y-118416158D01*
X127723000Y-118129260D01*
X127723000Y-117836740D01*
X127665932Y-117549842D01*
X127553990Y-117279589D01*
X127391475Y-117036368D01*
X127184632Y-116829525D01*
X127010240Y-116713000D01*
X127184632Y-116596475D01*
X127391475Y-116389632D01*
X127553990Y-116146411D01*
X127665932Y-115876158D01*
X127723000Y-115589260D01*
X127723000Y-115296740D01*
X127665932Y-115009842D01*
X127553990Y-114739589D01*
X127391475Y-114496368D01*
X127184632Y-114289525D01*
X127010240Y-114173000D01*
X127184632Y-114056475D01*
X127391475Y-113849632D01*
X127553990Y-113606411D01*
X127665932Y-113336158D01*
X127723000Y-113049260D01*
X127723000Y-112756740D01*
X127665932Y-112469842D01*
X127553990Y-112199589D01*
X127391475Y-111956368D01*
X127184632Y-111749525D01*
X127010240Y-111633000D01*
X127184632Y-111516475D01*
X127323454Y-111377653D01*
X148209952Y-111377653D01*
X148365962Y-111693214D01*
X148740745Y-111884020D01*
X149145551Y-111998044D01*
X149564824Y-112030902D01*
X149982451Y-111981334D01*
X150382383Y-111851243D01*
X150678038Y-111693214D01*
X150834048Y-111377653D01*
X149522000Y-110065605D01*
X148209952Y-111377653D01*
X127323454Y-111377653D01*
X127391475Y-111309632D01*
X127553990Y-111066411D01*
X127665932Y-110796158D01*
X127723000Y-110509260D01*
X127723000Y-110216740D01*
X127665932Y-109929842D01*
X127665511Y-109928824D01*
X147377098Y-109928824D01*
X147426666Y-110346451D01*
X147556757Y-110746383D01*
X147714786Y-111042038D01*
X148030347Y-111198048D01*
X149342395Y-109886000D01*
X149701605Y-109886000D01*
X151013653Y-111198048D01*
X151329214Y-111042038D01*
X151520020Y-110667255D01*
X151634044Y-110262449D01*
X151666902Y-109843176D01*
X151617334Y-109425549D01*
X151487243Y-109025617D01*
X151329214Y-108729962D01*
X151013653Y-108573952D01*
X149701605Y-109886000D01*
X149342395Y-109886000D01*
X148030347Y-108573952D01*
X147714786Y-108729962D01*
X147523980Y-109104745D01*
X147409956Y-109509551D01*
X147377098Y-109928824D01*
X127665511Y-109928824D01*
X127553990Y-109659589D01*
X127391475Y-109416368D01*
X127184632Y-109209525D01*
X127002466Y-109087805D01*
X127119355Y-109018178D01*
X127335588Y-108823269D01*
X127509641Y-108589920D01*
X127634825Y-108327099D01*
X127679476Y-108179890D01*
X127558155Y-107950000D01*
X126365000Y-107950000D01*
X126365000Y-107970000D01*
X126111000Y-107970000D01*
X126111000Y-107950000D01*
X126091000Y-107950000D01*
X126091000Y-107696000D01*
X126111000Y-107696000D01*
X126111000Y-105410000D01*
X126365000Y-105410000D01*
X126365000Y-107696000D01*
X127558155Y-107696000D01*
X127679476Y-107466110D01*
X127634825Y-107318901D01*
X127509641Y-107056080D01*
X127335588Y-106822731D01*
X127119355Y-106627822D01*
X126993745Y-106553000D01*
X127119355Y-106478178D01*
X127335588Y-106283269D01*
X127509641Y-106049920D01*
X127634825Y-105787099D01*
X127679476Y-105639890D01*
X127558155Y-105410000D01*
X126365000Y-105410000D01*
X126111000Y-105410000D01*
X126091000Y-105410000D01*
X126091000Y-105156000D01*
X126111000Y-105156000D01*
X126111000Y-105136000D01*
X126365000Y-105136000D01*
X126365000Y-105156000D01*
X127558155Y-105156000D01*
X127679476Y-104926110D01*
X127634825Y-104778901D01*
X127509641Y-104516080D01*
X127335588Y-104282731D01*
X127119355Y-104087822D01*
X127002466Y-104018195D01*
X127184632Y-103896475D01*
X127391475Y-103689632D01*
X127553990Y-103446411D01*
X127665932Y-103176158D01*
X127723000Y-102889260D01*
X127723000Y-102596740D01*
X127665932Y-102309842D01*
X127553990Y-102039589D01*
X127391475Y-101796368D01*
X127184632Y-101589525D01*
X127010240Y-101473000D01*
X127184632Y-101356475D01*
X127391475Y-101149632D01*
X127553990Y-100906411D01*
X127665932Y-100636158D01*
X127723000Y-100349260D01*
X127723000Y-100056740D01*
X127665932Y-99769842D01*
X127553990Y-99499589D01*
X127418296Y-99296508D01*
X127924003Y-98790800D01*
X127953002Y-98767002D01*
X128041741Y-98658873D01*
X136941928Y-107559060D01*
X136941928Y-108292000D01*
X136954188Y-108416482D01*
X136990498Y-108536180D01*
X137049463Y-108646494D01*
X137128815Y-108743185D01*
X137225506Y-108822537D01*
X137335820Y-108881502D01*
X137455518Y-108917812D01*
X137580000Y-108930072D01*
X139280000Y-108930072D01*
X139404482Y-108917812D01*
X139524180Y-108881502D01*
X139634494Y-108822537D01*
X139731185Y-108743185D01*
X139810537Y-108646494D01*
X139847683Y-108577000D01*
X141422249Y-108577000D01*
X141478000Y-108582491D01*
X141533751Y-108577000D01*
X141533752Y-108577000D01*
X141700499Y-108560577D01*
X141914447Y-108495676D01*
X142104021Y-108394347D01*
X148209952Y-108394347D01*
X149522000Y-109706395D01*
X150834048Y-108394347D01*
X150678038Y-108078786D01*
X150303255Y-107887980D01*
X149898449Y-107773956D01*
X149479176Y-107741098D01*
X149061549Y-107790666D01*
X148661617Y-107920757D01*
X148365962Y-108078786D01*
X148209952Y-108394347D01*
X142104021Y-108394347D01*
X142111623Y-108390284D01*
X142284449Y-108248449D01*
X142319996Y-108205135D01*
X145477000Y-105048132D01*
X145477000Y-105247486D01*
X145528304Y-105505405D01*
X145628939Y-105748359D01*
X145775038Y-105967013D01*
X145960987Y-106152962D01*
X146179641Y-106299061D01*
X146422595Y-106399696D01*
X146680514Y-106451000D01*
X146943486Y-106451000D01*
X147201405Y-106399696D01*
X147444359Y-106299061D01*
X147663013Y-106152962D01*
X147848962Y-105967013D01*
X147995061Y-105748359D01*
X148095696Y-105505405D01*
X148147000Y-105247486D01*
X148147000Y-104984514D01*
X148677000Y-104984514D01*
X148677000Y-105247486D01*
X148728304Y-105505405D01*
X148828939Y-105748359D01*
X148975038Y-105967013D01*
X149160987Y-106152962D01*
X149379641Y-106299061D01*
X149622595Y-106399696D01*
X149880514Y-106451000D01*
X150143486Y-106451000D01*
X150401405Y-106399696D01*
X150644359Y-106299061D01*
X150863013Y-106152962D01*
X151048962Y-105967013D01*
X151195061Y-105748359D01*
X151295696Y-105505405D01*
X151347000Y-105247486D01*
X151347000Y-104984514D01*
X151295696Y-104726595D01*
X151195061Y-104483641D01*
X151048962Y-104264987D01*
X150863013Y-104079038D01*
X150644359Y-103932939D01*
X150481882Y-103865639D01*
X150593366Y-103824935D01*
X150694203Y-103771037D01*
X150753664Y-103537269D01*
X150012000Y-102795605D01*
X149270336Y-103537269D01*
X149329797Y-103771037D01*
X149537404Y-103867592D01*
X149379641Y-103932939D01*
X149160987Y-104079038D01*
X148975038Y-104264987D01*
X148828939Y-104483641D01*
X148728304Y-104726595D01*
X148677000Y-104984514D01*
X148147000Y-104984514D01*
X148095696Y-104726595D01*
X147995061Y-104483641D01*
X147848962Y-104264987D01*
X147663013Y-104079038D01*
X147475987Y-103954072D01*
X147512000Y-103954072D01*
X147636482Y-103941812D01*
X147756180Y-103905502D01*
X147866494Y-103846537D01*
X147963185Y-103767185D01*
X148042537Y-103670494D01*
X148101502Y-103560180D01*
X148137812Y-103440482D01*
X148150072Y-103316000D01*
X148150072Y-102690473D01*
X148672610Y-102690473D01*
X148712875Y-102950344D01*
X148803065Y-103197366D01*
X148856963Y-103298203D01*
X149090731Y-103357664D01*
X149832395Y-102616000D01*
X150191605Y-102616000D01*
X150933269Y-103357664D01*
X151167037Y-103298203D01*
X151277934Y-103059758D01*
X151340183Y-102804260D01*
X151351390Y-102541527D01*
X151311125Y-102281656D01*
X151220935Y-102034634D01*
X151167037Y-101933797D01*
X150933269Y-101874336D01*
X150191605Y-102616000D01*
X149832395Y-102616000D01*
X149090731Y-101874336D01*
X148856963Y-101933797D01*
X148746066Y-102172242D01*
X148683817Y-102427740D01*
X148672610Y-102690473D01*
X148150072Y-102690473D01*
X148150072Y-101916000D01*
X148137812Y-101791518D01*
X148108452Y-101694731D01*
X149270336Y-101694731D01*
X150012000Y-102436395D01*
X150753664Y-101694731D01*
X150694203Y-101460963D01*
X150455758Y-101350066D01*
X150200260Y-101287817D01*
X149937527Y-101276610D01*
X149677656Y-101316875D01*
X149430634Y-101407065D01*
X149329797Y-101460963D01*
X149270336Y-101694731D01*
X148108452Y-101694731D01*
X148101502Y-101671820D01*
X148042537Y-101561506D01*
X147963185Y-101464815D01*
X147866494Y-101385463D01*
X147756180Y-101326498D01*
X147636482Y-101290188D01*
X147512000Y-101277928D01*
X146112000Y-101277928D01*
X145987518Y-101290188D01*
X145867820Y-101326498D01*
X145757506Y-101385463D01*
X145660815Y-101464815D01*
X145581463Y-101561506D01*
X145522498Y-101671820D01*
X145486188Y-101791518D01*
X145482620Y-101827744D01*
X145462013Y-101852854D01*
X141007869Y-106307000D01*
X139847683Y-106307000D01*
X139810537Y-106237506D01*
X139731185Y-106140815D01*
X139634494Y-106061463D01*
X139524180Y-106002498D01*
X139451620Y-105980487D01*
X139583475Y-105848632D01*
X139745990Y-105605411D01*
X139857932Y-105335158D01*
X139915000Y-105048260D01*
X139915000Y-104755740D01*
X139857932Y-104468842D01*
X139745990Y-104198589D01*
X139583475Y-103955368D01*
X139376632Y-103748525D01*
X139202240Y-103632000D01*
X139376632Y-103515475D01*
X139583475Y-103308632D01*
X139745990Y-103065411D01*
X139857932Y-102795158D01*
X139915000Y-102508260D01*
X139915000Y-102215740D01*
X139857932Y-101928842D01*
X139745990Y-101658589D01*
X139583475Y-101415368D01*
X139376632Y-101208525D01*
X139194466Y-101086805D01*
X139311355Y-101017178D01*
X139527588Y-100822269D01*
X139701641Y-100588920D01*
X139826825Y-100326099D01*
X139871476Y-100178890D01*
X139750155Y-99949000D01*
X138557000Y-99949000D01*
X138557000Y-99969000D01*
X138303000Y-99969000D01*
X138303000Y-99949000D01*
X137109845Y-99949000D01*
X136988524Y-100178890D01*
X137033175Y-100326099D01*
X137158359Y-100588920D01*
X137332412Y-100822269D01*
X137548645Y-101017178D01*
X137665534Y-101086805D01*
X137483368Y-101208525D01*
X137276525Y-101415368D01*
X137114010Y-101658589D01*
X137002068Y-101928842D01*
X136945000Y-102215740D01*
X136945000Y-102508260D01*
X137002068Y-102795158D01*
X137114010Y-103065411D01*
X137276525Y-103308632D01*
X137483368Y-103515475D01*
X137657760Y-103632000D01*
X137483368Y-103748525D01*
X137276525Y-103955368D01*
X137114010Y-104198589D01*
X137019614Y-104426482D01*
X132058242Y-99465110D01*
X136988524Y-99465110D01*
X137109845Y-99695000D01*
X138303000Y-99695000D01*
X138303000Y-98501186D01*
X138557000Y-98501186D01*
X138557000Y-99695000D01*
X139750155Y-99695000D01*
X139871476Y-99465110D01*
X139832817Y-99337653D01*
X148209952Y-99337653D01*
X148365962Y-99653214D01*
X148740745Y-99844020D01*
X149145551Y-99958044D01*
X149564824Y-99990902D01*
X149982451Y-99941334D01*
X150382383Y-99811243D01*
X150678038Y-99653214D01*
X150834048Y-99337653D01*
X149522000Y-98025605D01*
X148209952Y-99337653D01*
X139832817Y-99337653D01*
X139826825Y-99317901D01*
X139701641Y-99055080D01*
X139527588Y-98821731D01*
X139311355Y-98626822D01*
X139061252Y-98477843D01*
X138786891Y-98380519D01*
X138557000Y-98501186D01*
X138303000Y-98501186D01*
X138073109Y-98380519D01*
X137798748Y-98477843D01*
X137548645Y-98626822D01*
X137332412Y-98821731D01*
X137158359Y-99055080D01*
X137033175Y-99317901D01*
X136988524Y-99465110D01*
X132058242Y-99465110D01*
X130481956Y-97888824D01*
X147377098Y-97888824D01*
X147426666Y-98306451D01*
X147556757Y-98706383D01*
X147714786Y-99002038D01*
X148030347Y-99158048D01*
X149342395Y-97846000D01*
X149701605Y-97846000D01*
X151013653Y-99158048D01*
X151329214Y-99002038D01*
X151520020Y-98627255D01*
X151634044Y-98222449D01*
X151666902Y-97803176D01*
X151617334Y-97385549D01*
X151487243Y-96985617D01*
X151329214Y-96689962D01*
X151013653Y-96533952D01*
X149701605Y-97846000D01*
X149342395Y-97846000D01*
X148030347Y-96533952D01*
X147714786Y-96689962D01*
X147523980Y-97064745D01*
X147409956Y-97469551D01*
X147377098Y-97888824D01*
X130481956Y-97888824D01*
X129373010Y-96779879D01*
X129373010Y-96354347D01*
X148209952Y-96354347D01*
X149522000Y-97666395D01*
X150834048Y-96354347D01*
X150678038Y-96038786D01*
X150303255Y-95847980D01*
X149898449Y-95733956D01*
X149479176Y-95701098D01*
X149061549Y-95750666D01*
X148661617Y-95880757D01*
X148365962Y-96038786D01*
X148209952Y-96354347D01*
X129373010Y-96354347D01*
X129373010Y-90349753D01*
X129378500Y-90294009D01*
X129373010Y-90238265D01*
X129373010Y-90238258D01*
X129356587Y-90071511D01*
X129291686Y-89857563D01*
X129186294Y-89660387D01*
X129044459Y-89487561D01*
X129001151Y-89452019D01*
X112233455Y-72684323D01*
X148198497Y-72684323D01*
X148198497Y-73111677D01*
X148281870Y-73530821D01*
X148445412Y-73925645D01*
X148682837Y-74280977D01*
X148985023Y-74583163D01*
X149340355Y-74820588D01*
X149735179Y-74984130D01*
X150154323Y-75067503D01*
X150581677Y-75067503D01*
X151000821Y-74984130D01*
X151395645Y-74820588D01*
X151750977Y-74583163D01*
X152053163Y-74280977D01*
X152290588Y-73925645D01*
X152454130Y-73530821D01*
X152537503Y-73111677D01*
X152537503Y-72684323D01*
X152454130Y-72265179D01*
X152290588Y-71870355D01*
X152053163Y-71515023D01*
X151750977Y-71212837D01*
X151395645Y-70975412D01*
X151000821Y-70811870D01*
X150581677Y-70728497D01*
X150154323Y-70728497D01*
X149735179Y-70811870D01*
X149340355Y-70975412D01*
X148985023Y-71212837D01*
X148682837Y-71515023D01*
X148445412Y-71870355D01*
X148281870Y-72265179D01*
X148198497Y-72684323D01*
X112233455Y-72684323D01*
X109675993Y-70126862D01*
X109675988Y-70126856D01*
X109651992Y-70102861D01*
X109616449Y-70059551D01*
X109546323Y-70002000D01*
X152756000Y-70002000D01*
X152756001Y-131166000D01*
G04 #@! TA.AperFunction,Conductor*
D21*
G36*
X152756001Y-131166000D02*
G01*
X80593383Y-131166000D01*
X80884977Y-130971163D01*
X81187163Y-130668977D01*
X81424588Y-130313645D01*
X81588130Y-129918821D01*
X81671503Y-129499677D01*
X81671503Y-129072323D01*
X81588130Y-128653179D01*
X81424588Y-128258355D01*
X81289595Y-128056323D01*
X147944497Y-128056323D01*
X147944497Y-128483677D01*
X148027870Y-128902821D01*
X148191412Y-129297645D01*
X148428837Y-129652977D01*
X148731023Y-129955163D01*
X149086355Y-130192588D01*
X149481179Y-130356130D01*
X149900323Y-130439503D01*
X150327677Y-130439503D01*
X150746821Y-130356130D01*
X151141645Y-130192588D01*
X151496977Y-129955163D01*
X151799163Y-129652977D01*
X152036588Y-129297645D01*
X152200130Y-128902821D01*
X152283503Y-128483677D01*
X152283503Y-128056323D01*
X152200130Y-127637179D01*
X152036588Y-127242355D01*
X151799163Y-126887023D01*
X151496977Y-126584837D01*
X151141645Y-126347412D01*
X150746821Y-126183870D01*
X150327677Y-126100497D01*
X149900323Y-126100497D01*
X149481179Y-126183870D01*
X149086355Y-126347412D01*
X148731023Y-126584837D01*
X148428837Y-126887023D01*
X148191412Y-127242355D01*
X148027870Y-127637179D01*
X147944497Y-128056323D01*
X81289595Y-128056323D01*
X81187163Y-127903023D01*
X80884977Y-127600837D01*
X80529645Y-127363412D01*
X80134821Y-127199870D01*
X79715677Y-127116497D01*
X79288323Y-127116497D01*
X79007432Y-127172370D01*
X82901999Y-123277804D01*
X82930991Y-123254011D01*
X82954785Y-123225018D01*
X82954789Y-123225014D01*
X83025963Y-123138287D01*
X83025964Y-123138286D01*
X83096536Y-123006257D01*
X83139993Y-122862996D01*
X83150990Y-122751343D01*
X83150990Y-122751334D01*
X83154666Y-122714011D01*
X83150990Y-122676688D01*
X83150990Y-116667794D01*
X83802197Y-117319001D01*
X83825996Y-117348000D01*
X83941721Y-117442973D01*
X84073750Y-117513545D01*
X84217011Y-117557002D01*
X84328664Y-117567999D01*
X84328674Y-117567999D01*
X84365997Y-117571675D01*
X84403320Y-117567999D01*
X93761928Y-117567999D01*
X93761928Y-118833000D01*
X93774188Y-118957482D01*
X93810498Y-119077180D01*
X93869463Y-119187494D01*
X93948815Y-119284185D01*
X94045506Y-119363537D01*
X94155820Y-119422502D01*
X94275518Y-119458812D01*
X94400000Y-119471072D01*
X96100000Y-119471072D01*
X96224482Y-119458812D01*
X96344180Y-119422502D01*
X96454494Y-119363537D01*
X96551185Y-119284185D01*
X96630537Y-119187494D01*
X96689502Y-119077180D01*
X96711513Y-119004620D01*
X96843368Y-119136475D01*
X97086589Y-119298990D01*
X97356842Y-119410932D01*
X97643740Y-119468000D01*
X97936260Y-119468000D01*
X98223158Y-119410932D01*
X98493411Y-119298990D01*
X98736632Y-119136475D01*
X98943475Y-118929632D01*
X99105990Y-118686411D01*
X99217932Y-118416158D01*
X99275000Y-118129260D01*
X99275000Y-117836740D01*
X99217932Y-117549842D01*
X99105990Y-117279589D01*
X98943475Y-117036368D01*
X98736632Y-116829525D01*
X98562240Y-116713000D01*
X98736632Y-116596475D01*
X98943475Y-116389632D01*
X99105990Y-116146411D01*
X99217932Y-115876158D01*
X99275000Y-115589260D01*
X99275000Y-115296740D01*
X99217932Y-115009842D01*
X99105990Y-114739589D01*
X98943475Y-114496368D01*
X98736632Y-114289525D01*
X98562240Y-114173000D01*
X98736632Y-114056475D01*
X98943475Y-113849632D01*
X99105990Y-113606411D01*
X99217932Y-113336158D01*
X99233102Y-113259890D01*
X122256524Y-113259890D01*
X122301175Y-113407099D01*
X122426359Y-113669920D01*
X122600412Y-113903269D01*
X122816645Y-114098178D01*
X122942255Y-114173000D01*
X122816645Y-114247822D01*
X122600412Y-114442731D01*
X122426359Y-114676080D01*
X122301175Y-114938901D01*
X122256524Y-115086110D01*
X122377845Y-115316000D01*
X123571000Y-115316000D01*
X123571000Y-113030000D01*
X122377845Y-113030000D01*
X122256524Y-113259890D01*
X99233102Y-113259890D01*
X99275000Y-113049260D01*
X99275000Y-112756740D01*
X99217932Y-112469842D01*
X99105990Y-112199589D01*
X98943475Y-111956368D01*
X98736632Y-111749525D01*
X98562240Y-111633000D01*
X98736632Y-111516475D01*
X98943475Y-111309632D01*
X99105990Y-111066411D01*
X99217932Y-110796158D01*
X99275000Y-110509260D01*
X99275000Y-110216740D01*
X99217932Y-109929842D01*
X99105990Y-109659589D01*
X98943475Y-109416368D01*
X98736632Y-109209525D01*
X98562240Y-109093000D01*
X98736632Y-108976475D01*
X98943475Y-108769632D01*
X99105990Y-108526411D01*
X99217932Y-108256158D01*
X99275000Y-107969260D01*
X99275000Y-107676740D01*
X99217932Y-107389842D01*
X99105990Y-107119589D01*
X98943475Y-106876368D01*
X98736632Y-106669525D01*
X98562240Y-106553000D01*
X98736632Y-106436475D01*
X98943475Y-106229632D01*
X99105990Y-105986411D01*
X99217932Y-105716158D01*
X99275000Y-105429260D01*
X99275000Y-105136740D01*
X99217932Y-104849842D01*
X99105990Y-104579589D01*
X98943475Y-104336368D01*
X98736632Y-104129525D01*
X98562240Y-104013000D01*
X98736632Y-103896475D01*
X98943475Y-103689632D01*
X99105990Y-103446411D01*
X99217932Y-103176158D01*
X99275000Y-102889260D01*
X99275000Y-102596740D01*
X99217932Y-102309842D01*
X99105990Y-102039589D01*
X98943475Y-101796368D01*
X98736632Y-101589525D01*
X98562240Y-101473000D01*
X98736632Y-101356475D01*
X98943475Y-101149632D01*
X99105990Y-100906411D01*
X99217932Y-100636158D01*
X99275000Y-100349260D01*
X99275000Y-100056740D01*
X99221544Y-99787999D01*
X117591021Y-99787999D01*
X117596304Y-99788973D01*
X117665766Y-99787999D01*
X117697822Y-99787999D01*
X117703143Y-99787475D01*
X117708485Y-99787400D01*
X117740302Y-99783815D01*
X117768000Y-99781087D01*
X117810582Y-99779294D01*
X117872968Y-99764131D01*
X117935738Y-99750727D01*
X117975530Y-99733587D01*
X118017336Y-99722175D01*
X118074789Y-99693508D01*
X118132996Y-99666475D01*
X118155244Y-99650215D01*
X118177493Y-99666475D01*
X118235700Y-99693508D01*
X118293153Y-99722175D01*
X118334957Y-99733587D01*
X118374753Y-99750728D01*
X118437521Y-99764131D01*
X118499907Y-99779294D01*
X118542490Y-99781087D01*
X118570202Y-99783816D01*
X118602007Y-99787400D01*
X118607346Y-99787475D01*
X118612668Y-99787999D01*
X118644726Y-99787999D01*
X118714188Y-99788973D01*
X118719471Y-99787999D01*
X122208198Y-99787999D01*
X122256791Y-99836592D01*
X122213000Y-100056740D01*
X122213000Y-100349260D01*
X122270068Y-100636158D01*
X122382010Y-100906411D01*
X122544525Y-101149632D01*
X122751368Y-101356475D01*
X122925760Y-101473000D01*
X122751368Y-101589525D01*
X122544525Y-101796368D01*
X122382010Y-102039589D01*
X122270068Y-102309842D01*
X122213000Y-102596740D01*
X122213000Y-102889260D01*
X122270068Y-103176158D01*
X122382010Y-103446411D01*
X122544525Y-103689632D01*
X122751368Y-103896475D01*
X122925760Y-104013000D01*
X122751368Y-104129525D01*
X122544525Y-104336368D01*
X122382010Y-104579589D01*
X122270068Y-104849842D01*
X122213000Y-105136740D01*
X122213000Y-105429260D01*
X122270068Y-105716158D01*
X122382010Y-105986411D01*
X122544525Y-106229632D01*
X122751368Y-106436475D01*
X122925760Y-106553000D01*
X122751368Y-106669525D01*
X122544525Y-106876368D01*
X122382010Y-107119589D01*
X122270068Y-107389842D01*
X122213000Y-107676740D01*
X122213000Y-107969260D01*
X122270068Y-108256158D01*
X122382010Y-108526411D01*
X122544525Y-108769632D01*
X122751368Y-108976475D01*
X122925760Y-109093000D01*
X122751368Y-109209525D01*
X122544525Y-109416368D01*
X122382010Y-109659589D01*
X122270068Y-109929842D01*
X122213000Y-110216740D01*
X122213000Y-110509260D01*
X122270068Y-110796158D01*
X122382010Y-111066411D01*
X122544525Y-111309632D01*
X122751368Y-111516475D01*
X122933534Y-111638195D01*
X122816645Y-111707822D01*
X122600412Y-111902731D01*
X122426359Y-112136080D01*
X122301175Y-112398901D01*
X122256524Y-112546110D01*
X122377845Y-112776000D01*
X123571000Y-112776000D01*
X123571000Y-112756000D01*
X123825000Y-112756000D01*
X123825000Y-112776000D01*
X123845000Y-112776000D01*
X123845000Y-113030000D01*
X123825000Y-113030000D01*
X123825000Y-115316000D01*
X123845000Y-115316000D01*
X123845000Y-115570000D01*
X123825000Y-115570000D01*
X123825000Y-115590000D01*
X123571000Y-115590000D01*
X123571000Y-115570000D01*
X122377845Y-115570000D01*
X122256524Y-115799890D01*
X122301175Y-115947099D01*
X122426359Y-116209920D01*
X122600412Y-116443269D01*
X122684466Y-116519034D01*
X122603820Y-116543498D01*
X122493506Y-116602463D01*
X122396815Y-116681815D01*
X122317463Y-116778506D01*
X122258498Y-116888820D01*
X122222188Y-117008518D01*
X122209928Y-117133000D01*
X122209928Y-118833000D01*
X122222188Y-118957482D01*
X122258498Y-119077180D01*
X122317463Y-119187494D01*
X122396815Y-119284185D01*
X122493506Y-119363537D01*
X122603820Y-119422502D01*
X122723518Y-119458812D01*
X122848000Y-119471072D01*
X124548000Y-119471072D01*
X124672482Y-119458812D01*
X124792180Y-119422502D01*
X124902494Y-119363537D01*
X124999185Y-119284185D01*
X125078537Y-119187494D01*
X125137502Y-119077180D01*
X125159513Y-119004620D01*
X125291368Y-119136475D01*
X125534589Y-119298990D01*
X125804842Y-119410932D01*
X126091740Y-119468000D01*
X126384260Y-119468000D01*
X126671158Y-119410932D01*
X126941411Y-119298990D01*
X127184632Y-119136475D01*
X127391475Y-118929632D01*
X127553990Y-118686411D01*
X127665932Y-118416158D01*
X127723000Y-118129260D01*
X127723000Y-117836740D01*
X127665932Y-117549842D01*
X127553990Y-117279589D01*
X127391475Y-117036368D01*
X127184632Y-116829525D01*
X127010240Y-116713000D01*
X127184632Y-116596475D01*
X127391475Y-116389632D01*
X127553990Y-116146411D01*
X127665932Y-115876158D01*
X127723000Y-115589260D01*
X127723000Y-115296740D01*
X127665932Y-115009842D01*
X127553990Y-114739589D01*
X127391475Y-114496368D01*
X127184632Y-114289525D01*
X127010240Y-114173000D01*
X127184632Y-114056475D01*
X127391475Y-113849632D01*
X127553990Y-113606411D01*
X127665932Y-113336158D01*
X127723000Y-113049260D01*
X127723000Y-112756740D01*
X127665932Y-112469842D01*
X127553990Y-112199589D01*
X127391475Y-111956368D01*
X127184632Y-111749525D01*
X127010240Y-111633000D01*
X127184632Y-111516475D01*
X127323454Y-111377653D01*
X148209952Y-111377653D01*
X148365962Y-111693214D01*
X148740745Y-111884020D01*
X149145551Y-111998044D01*
X149564824Y-112030902D01*
X149982451Y-111981334D01*
X150382383Y-111851243D01*
X150678038Y-111693214D01*
X150834048Y-111377653D01*
X149522000Y-110065605D01*
X148209952Y-111377653D01*
X127323454Y-111377653D01*
X127391475Y-111309632D01*
X127553990Y-111066411D01*
X127665932Y-110796158D01*
X127723000Y-110509260D01*
X127723000Y-110216740D01*
X127665932Y-109929842D01*
X127665511Y-109928824D01*
X147377098Y-109928824D01*
X147426666Y-110346451D01*
X147556757Y-110746383D01*
X147714786Y-111042038D01*
X148030347Y-111198048D01*
X149342395Y-109886000D01*
X149701605Y-109886000D01*
X151013653Y-111198048D01*
X151329214Y-111042038D01*
X151520020Y-110667255D01*
X151634044Y-110262449D01*
X151666902Y-109843176D01*
X151617334Y-109425549D01*
X151487243Y-109025617D01*
X151329214Y-108729962D01*
X151013653Y-108573952D01*
X149701605Y-109886000D01*
X149342395Y-109886000D01*
X148030347Y-108573952D01*
X147714786Y-108729962D01*
X147523980Y-109104745D01*
X147409956Y-109509551D01*
X147377098Y-109928824D01*
X127665511Y-109928824D01*
X127553990Y-109659589D01*
X127391475Y-109416368D01*
X127184632Y-109209525D01*
X127002466Y-109087805D01*
X127119355Y-109018178D01*
X127335588Y-108823269D01*
X127509641Y-108589920D01*
X127634825Y-108327099D01*
X127679476Y-108179890D01*
X127558155Y-107950000D01*
X126365000Y-107950000D01*
X126365000Y-107970000D01*
X126111000Y-107970000D01*
X126111000Y-107950000D01*
X126091000Y-107950000D01*
X126091000Y-107696000D01*
X126111000Y-107696000D01*
X126111000Y-105410000D01*
X126365000Y-105410000D01*
X126365000Y-107696000D01*
X127558155Y-107696000D01*
X127679476Y-107466110D01*
X127634825Y-107318901D01*
X127509641Y-107056080D01*
X127335588Y-106822731D01*
X127119355Y-106627822D01*
X126993745Y-106553000D01*
X127119355Y-106478178D01*
X127335588Y-106283269D01*
X127509641Y-106049920D01*
X127634825Y-105787099D01*
X127679476Y-105639890D01*
X127558155Y-105410000D01*
X126365000Y-105410000D01*
X126111000Y-105410000D01*
X126091000Y-105410000D01*
X126091000Y-105156000D01*
X126111000Y-105156000D01*
X126111000Y-105136000D01*
X126365000Y-105136000D01*
X126365000Y-105156000D01*
X127558155Y-105156000D01*
X127679476Y-104926110D01*
X127634825Y-104778901D01*
X127509641Y-104516080D01*
X127335588Y-104282731D01*
X127119355Y-104087822D01*
X127002466Y-104018195D01*
X127184632Y-103896475D01*
X127391475Y-103689632D01*
X127553990Y-103446411D01*
X127665932Y-103176158D01*
X127723000Y-102889260D01*
X127723000Y-102596740D01*
X127665932Y-102309842D01*
X127553990Y-102039589D01*
X127391475Y-101796368D01*
X127184632Y-101589525D01*
X127010240Y-101473000D01*
X127184632Y-101356475D01*
X127391475Y-101149632D01*
X127553990Y-100906411D01*
X127665932Y-100636158D01*
X127723000Y-100349260D01*
X127723000Y-100056740D01*
X127665932Y-99769842D01*
X127553990Y-99499589D01*
X127418296Y-99296508D01*
X127924003Y-98790800D01*
X127953002Y-98767002D01*
X128041741Y-98658873D01*
X136941928Y-107559060D01*
X136941928Y-108292000D01*
X136954188Y-108416482D01*
X136990498Y-108536180D01*
X137049463Y-108646494D01*
X137128815Y-108743185D01*
X137225506Y-108822537D01*
X137335820Y-108881502D01*
X137455518Y-108917812D01*
X137580000Y-108930072D01*
X139280000Y-108930072D01*
X139404482Y-108917812D01*
X139524180Y-108881502D01*
X139634494Y-108822537D01*
X139731185Y-108743185D01*
X139810537Y-108646494D01*
X139847683Y-108577000D01*
X141422249Y-108577000D01*
X141478000Y-108582491D01*
X141533751Y-108577000D01*
X141533752Y-108577000D01*
X141700499Y-108560577D01*
X141914447Y-108495676D01*
X142104021Y-108394347D01*
X148209952Y-108394347D01*
X149522000Y-109706395D01*
X150834048Y-108394347D01*
X150678038Y-108078786D01*
X150303255Y-107887980D01*
X149898449Y-107773956D01*
X149479176Y-107741098D01*
X149061549Y-107790666D01*
X148661617Y-107920757D01*
X148365962Y-108078786D01*
X148209952Y-108394347D01*
X142104021Y-108394347D01*
X142111623Y-108390284D01*
X142284449Y-108248449D01*
X142319996Y-108205135D01*
X145477000Y-105048132D01*
X145477000Y-105247486D01*
X145528304Y-105505405D01*
X145628939Y-105748359D01*
X145775038Y-105967013D01*
X145960987Y-106152962D01*
X146179641Y-106299061D01*
X146422595Y-106399696D01*
X146680514Y-106451000D01*
X146943486Y-106451000D01*
X147201405Y-106399696D01*
X147444359Y-106299061D01*
X147663013Y-106152962D01*
X147848962Y-105967013D01*
X147995061Y-105748359D01*
X148095696Y-105505405D01*
X148147000Y-105247486D01*
X148147000Y-104984514D01*
X148677000Y-104984514D01*
X148677000Y-105247486D01*
X148728304Y-105505405D01*
X148828939Y-105748359D01*
X148975038Y-105967013D01*
X149160987Y-106152962D01*
X149379641Y-106299061D01*
X149622595Y-106399696D01*
X149880514Y-106451000D01*
X150143486Y-106451000D01*
X150401405Y-106399696D01*
X150644359Y-106299061D01*
X150863013Y-106152962D01*
X151048962Y-105967013D01*
X151195061Y-105748359D01*
X151295696Y-105505405D01*
X151347000Y-105247486D01*
X151347000Y-104984514D01*
X151295696Y-104726595D01*
X151195061Y-104483641D01*
X151048962Y-104264987D01*
X150863013Y-104079038D01*
X150644359Y-103932939D01*
X150481882Y-103865639D01*
X150593366Y-103824935D01*
X150694203Y-103771037D01*
X150753664Y-103537269D01*
X150012000Y-102795605D01*
X149270336Y-103537269D01*
X149329797Y-103771037D01*
X149537404Y-103867592D01*
X149379641Y-103932939D01*
X149160987Y-104079038D01*
X148975038Y-104264987D01*
X148828939Y-104483641D01*
X148728304Y-104726595D01*
X148677000Y-104984514D01*
X148147000Y-104984514D01*
X148095696Y-104726595D01*
X147995061Y-104483641D01*
X147848962Y-104264987D01*
X147663013Y-104079038D01*
X147475987Y-103954072D01*
X147512000Y-103954072D01*
X147636482Y-103941812D01*
X147756180Y-103905502D01*
X147866494Y-103846537D01*
X147963185Y-103767185D01*
X148042537Y-103670494D01*
X148101502Y-103560180D01*
X148137812Y-103440482D01*
X148150072Y-103316000D01*
X148150072Y-102690473D01*
X148672610Y-102690473D01*
X148712875Y-102950344D01*
X148803065Y-103197366D01*
X148856963Y-103298203D01*
X149090731Y-103357664D01*
X149832395Y-102616000D01*
X150191605Y-102616000D01*
X150933269Y-103357664D01*
X151167037Y-103298203D01*
X151277934Y-103059758D01*
X151340183Y-102804260D01*
X151351390Y-102541527D01*
X151311125Y-102281656D01*
X151220935Y-102034634D01*
X151167037Y-101933797D01*
X150933269Y-101874336D01*
X150191605Y-102616000D01*
X149832395Y-102616000D01*
X149090731Y-101874336D01*
X148856963Y-101933797D01*
X148746066Y-102172242D01*
X148683817Y-102427740D01*
X148672610Y-102690473D01*
X148150072Y-102690473D01*
X148150072Y-101916000D01*
X148137812Y-101791518D01*
X148108452Y-101694731D01*
X149270336Y-101694731D01*
X150012000Y-102436395D01*
X150753664Y-101694731D01*
X150694203Y-101460963D01*
X150455758Y-101350066D01*
X150200260Y-101287817D01*
X149937527Y-101276610D01*
X149677656Y-101316875D01*
X149430634Y-101407065D01*
X149329797Y-101460963D01*
X149270336Y-101694731D01*
X148108452Y-101694731D01*
X148101502Y-101671820D01*
X148042537Y-101561506D01*
X147963185Y-101464815D01*
X147866494Y-101385463D01*
X147756180Y-101326498D01*
X147636482Y-101290188D01*
X147512000Y-101277928D01*
X146112000Y-101277928D01*
X145987518Y-101290188D01*
X145867820Y-101326498D01*
X145757506Y-101385463D01*
X145660815Y-101464815D01*
X145581463Y-101561506D01*
X145522498Y-101671820D01*
X145486188Y-101791518D01*
X145482620Y-101827744D01*
X145462013Y-101852854D01*
X141007869Y-106307000D01*
X139847683Y-106307000D01*
X139810537Y-106237506D01*
X139731185Y-106140815D01*
X139634494Y-106061463D01*
X139524180Y-106002498D01*
X139451620Y-105980487D01*
X139583475Y-105848632D01*
X139745990Y-105605411D01*
X139857932Y-105335158D01*
X139915000Y-105048260D01*
X139915000Y-104755740D01*
X139857932Y-104468842D01*
X139745990Y-104198589D01*
X139583475Y-103955368D01*
X139376632Y-103748525D01*
X139202240Y-103632000D01*
X139376632Y-103515475D01*
X139583475Y-103308632D01*
X139745990Y-103065411D01*
X139857932Y-102795158D01*
X139915000Y-102508260D01*
X139915000Y-102215740D01*
X139857932Y-101928842D01*
X139745990Y-101658589D01*
X139583475Y-101415368D01*
X139376632Y-101208525D01*
X139194466Y-101086805D01*
X139311355Y-101017178D01*
X139527588Y-100822269D01*
X139701641Y-100588920D01*
X139826825Y-100326099D01*
X139871476Y-100178890D01*
X139750155Y-99949000D01*
X138557000Y-99949000D01*
X138557000Y-99969000D01*
X138303000Y-99969000D01*
X138303000Y-99949000D01*
X137109845Y-99949000D01*
X136988524Y-100178890D01*
X137033175Y-100326099D01*
X137158359Y-100588920D01*
X137332412Y-100822269D01*
X137548645Y-101017178D01*
X137665534Y-101086805D01*
X137483368Y-101208525D01*
X137276525Y-101415368D01*
X137114010Y-101658589D01*
X137002068Y-101928842D01*
X136945000Y-102215740D01*
X136945000Y-102508260D01*
X137002068Y-102795158D01*
X137114010Y-103065411D01*
X137276525Y-103308632D01*
X137483368Y-103515475D01*
X137657760Y-103632000D01*
X137483368Y-103748525D01*
X137276525Y-103955368D01*
X137114010Y-104198589D01*
X137019614Y-104426482D01*
X132058242Y-99465110D01*
X136988524Y-99465110D01*
X137109845Y-99695000D01*
X138303000Y-99695000D01*
X138303000Y-98501186D01*
X138557000Y-98501186D01*
X138557000Y-99695000D01*
X139750155Y-99695000D01*
X139871476Y-99465110D01*
X139832817Y-99337653D01*
X148209952Y-99337653D01*
X148365962Y-99653214D01*
X148740745Y-99844020D01*
X149145551Y-99958044D01*
X149564824Y-99990902D01*
X149982451Y-99941334D01*
X150382383Y-99811243D01*
X150678038Y-99653214D01*
X150834048Y-99337653D01*
X149522000Y-98025605D01*
X148209952Y-99337653D01*
X139832817Y-99337653D01*
X139826825Y-99317901D01*
X139701641Y-99055080D01*
X139527588Y-98821731D01*
X139311355Y-98626822D01*
X139061252Y-98477843D01*
X138786891Y-98380519D01*
X138557000Y-98501186D01*
X138303000Y-98501186D01*
X138073109Y-98380519D01*
X137798748Y-98477843D01*
X137548645Y-98626822D01*
X137332412Y-98821731D01*
X137158359Y-99055080D01*
X137033175Y-99317901D01*
X136988524Y-99465110D01*
X132058242Y-99465110D01*
X130481956Y-97888824D01*
X147377098Y-97888824D01*
X147426666Y-98306451D01*
X147556757Y-98706383D01*
X147714786Y-99002038D01*
X148030347Y-99158048D01*
X149342395Y-97846000D01*
X149701605Y-97846000D01*
X151013653Y-99158048D01*
X151329214Y-99002038D01*
X151520020Y-98627255D01*
X151634044Y-98222449D01*
X151666902Y-97803176D01*
X151617334Y-97385549D01*
X151487243Y-96985617D01*
X151329214Y-96689962D01*
X151013653Y-96533952D01*
X149701605Y-97846000D01*
X149342395Y-97846000D01*
X148030347Y-96533952D01*
X147714786Y-96689962D01*
X147523980Y-97064745D01*
X147409956Y-97469551D01*
X147377098Y-97888824D01*
X130481956Y-97888824D01*
X129373010Y-96779879D01*
X129373010Y-96354347D01*
X148209952Y-96354347D01*
X149522000Y-97666395D01*
X150834048Y-96354347D01*
X150678038Y-96038786D01*
X150303255Y-95847980D01*
X149898449Y-95733956D01*
X149479176Y-95701098D01*
X149061549Y-95750666D01*
X148661617Y-95880757D01*
X148365962Y-96038786D01*
X148209952Y-96354347D01*
X129373010Y-96354347D01*
X129373010Y-90349753D01*
X129378500Y-90294009D01*
X129373010Y-90238265D01*
X129373010Y-90238258D01*
X129356587Y-90071511D01*
X129291686Y-89857563D01*
X129186294Y-89660387D01*
X129044459Y-89487561D01*
X129001151Y-89452019D01*
X112233455Y-72684323D01*
X148198497Y-72684323D01*
X148198497Y-73111677D01*
X148281870Y-73530821D01*
X148445412Y-73925645D01*
X148682837Y-74280977D01*
X148985023Y-74583163D01*
X149340355Y-74820588D01*
X149735179Y-74984130D01*
X150154323Y-75067503D01*
X150581677Y-75067503D01*
X151000821Y-74984130D01*
X151395645Y-74820588D01*
X151750977Y-74583163D01*
X152053163Y-74280977D01*
X152290588Y-73925645D01*
X152454130Y-73530821D01*
X152537503Y-73111677D01*
X152537503Y-72684323D01*
X152454130Y-72265179D01*
X152290588Y-71870355D01*
X152053163Y-71515023D01*
X151750977Y-71212837D01*
X151395645Y-70975412D01*
X151000821Y-70811870D01*
X150581677Y-70728497D01*
X150154323Y-70728497D01*
X149735179Y-70811870D01*
X149340355Y-70975412D01*
X148985023Y-71212837D01*
X148682837Y-71515023D01*
X148445412Y-71870355D01*
X148281870Y-72265179D01*
X148198497Y-72684323D01*
X112233455Y-72684323D01*
X109675993Y-70126862D01*
X109675988Y-70126856D01*
X109651992Y-70102861D01*
X109616449Y-70059551D01*
X109546323Y-70002000D01*
X152756000Y-70002000D01*
X152756001Y-131166000D01*
G37*
G04 #@! TD.AperFunction*
D20*
X65370837Y-70245023D02*
X65133412Y-70600355D01*
X64969870Y-70995179D01*
X64886497Y-71414323D01*
X64886497Y-71841677D01*
X64905291Y-71936159D01*
X64734072Y-71764941D01*
X64734072Y-70778000D01*
X64721812Y-70653518D01*
X64685502Y-70533820D01*
X64626537Y-70423506D01*
X64547185Y-70326815D01*
X64450494Y-70247463D01*
X64340180Y-70188498D01*
X64220482Y-70152188D01*
X64096000Y-70139928D01*
X62396000Y-70139928D01*
X62271518Y-70152188D01*
X62151820Y-70188498D01*
X62041506Y-70247463D01*
X61944815Y-70326815D01*
X61865463Y-70423506D01*
X61806498Y-70533820D01*
X61783502Y-70609626D01*
X61587355Y-70432822D01*
X61337252Y-70283843D01*
X61062891Y-70186519D01*
X60833000Y-70307186D01*
X60833000Y-71501000D01*
X60853000Y-71501000D01*
X60853000Y-71755000D01*
X60833000Y-71755000D01*
X60833000Y-74041000D01*
X60853000Y-74041000D01*
X60853000Y-74295000D01*
X60833000Y-74295000D01*
X60833000Y-75488814D01*
X61062891Y-75609481D01*
X61337252Y-75512157D01*
X61587355Y-75363178D01*
X61803588Y-75168269D01*
X61974900Y-74938594D01*
X62092525Y-75114632D01*
X62299368Y-75321475D01*
X62542589Y-75483990D01*
X62812842Y-75595932D01*
X63099740Y-75653000D01*
X63392260Y-75653000D01*
X63679158Y-75595932D01*
X63949411Y-75483990D01*
X64184365Y-75326999D01*
X65500247Y-75326999D01*
X65555999Y-75332490D01*
X65611750Y-75326999D01*
X76837001Y-75326999D01*
X76837000Y-80322289D01*
X76793063Y-80366226D01*
X76679795Y-80535744D01*
X76601774Y-80724102D01*
X76562000Y-80924061D01*
X76562000Y-81127939D01*
X76601774Y-81327898D01*
X76679795Y-81516256D01*
X76793063Y-81685774D01*
X76837000Y-81729711D01*
X76837001Y-85402288D01*
X76793063Y-85446226D01*
X76679795Y-85615744D01*
X76601774Y-85804102D01*
X76562000Y-86004061D01*
X76562000Y-86207939D01*
X76601774Y-86407898D01*
X76679795Y-86596256D01*
X76793063Y-86765774D01*
X76837000Y-86809711D01*
X76837001Y-90482288D01*
X76793063Y-90526226D01*
X76679795Y-90695744D01*
X76601774Y-90884102D01*
X76562000Y-91084061D01*
X76562000Y-91287939D01*
X76601774Y-91487898D01*
X76679795Y-91676256D01*
X76793063Y-91845774D01*
X76837000Y-91889711D01*
X76837001Y-95562288D01*
X76793063Y-95606226D01*
X76679795Y-95775744D01*
X76601774Y-95964102D01*
X76562000Y-96164061D01*
X76562000Y-96367939D01*
X76601774Y-96567898D01*
X76679795Y-96756256D01*
X76793063Y-96925774D01*
X76837000Y-96969711D01*
X76837001Y-103436288D01*
X76793063Y-103480226D01*
X76679795Y-103649744D01*
X76601774Y-103838102D01*
X76562000Y-104038061D01*
X76562000Y-104241939D01*
X76601774Y-104441898D01*
X76679795Y-104630256D01*
X76793063Y-104799774D01*
X76837000Y-104843711D01*
X76837001Y-108516288D01*
X76793063Y-108560226D01*
X76679795Y-108729744D01*
X76601774Y-108918102D01*
X76562000Y-109118061D01*
X76562000Y-109321939D01*
X76601774Y-109521898D01*
X76679795Y-109710256D01*
X76793063Y-109879774D01*
X76837000Y-109923711D01*
X76837001Y-113596288D01*
X76793063Y-113640226D01*
X76679795Y-113809744D01*
X76601774Y-113998102D01*
X76562000Y-114198061D01*
X76562000Y-114401939D01*
X76601774Y-114601898D01*
X76679795Y-114790256D01*
X76793063Y-114959774D01*
X76837000Y-115003711D01*
X76837001Y-118676288D01*
X76793063Y-118720226D01*
X76679795Y-118889744D01*
X76601774Y-119078102D01*
X76562000Y-119278061D01*
X76562000Y-119481939D01*
X76601774Y-119681898D01*
X76679795Y-119870256D01*
X76793063Y-120039774D01*
X76837000Y-120083711D01*
X76837001Y-120835288D01*
X76793063Y-120879226D01*
X76679795Y-121048744D01*
X76601774Y-121237102D01*
X76562000Y-121437061D01*
X76562000Y-121640939D01*
X76601774Y-121840898D01*
X76679795Y-122029256D01*
X76793063Y-122198774D01*
X76937226Y-122342937D01*
X77106744Y-122456205D01*
X77295102Y-122534226D01*
X77495061Y-122574000D01*
X77698939Y-122574000D01*
X77898898Y-122534226D01*
X78087256Y-122456205D01*
X78256774Y-122342937D01*
X78400937Y-122198774D01*
X78514205Y-122029256D01*
X78592226Y-121840898D01*
X78632000Y-121640939D01*
X78632000Y-121437061D01*
X78592226Y-121237102D01*
X78514205Y-121048744D01*
X78400937Y-120879226D01*
X78357000Y-120835289D01*
X78357000Y-120083711D01*
X78400937Y-120039774D01*
X78514205Y-119870256D01*
X78592226Y-119681898D01*
X78632000Y-119481939D01*
X78632000Y-119278061D01*
X78592226Y-119078102D01*
X78514205Y-118889744D01*
X78400937Y-118720226D01*
X78357000Y-118676289D01*
X78357000Y-115003711D01*
X78400937Y-114959774D01*
X78514205Y-114790256D01*
X78592226Y-114601898D01*
X78632000Y-114401939D01*
X78632000Y-114198061D01*
X78592226Y-113998102D01*
X78514205Y-113809744D01*
X78400937Y-113640226D01*
X78357000Y-113596289D01*
X78357000Y-109923711D01*
X78400937Y-109879774D01*
X78514205Y-109710256D01*
X78592226Y-109521898D01*
X78632000Y-109321939D01*
X78632000Y-109118061D01*
X78592226Y-108918102D01*
X78514205Y-108729744D01*
X78400937Y-108560226D01*
X78357000Y-108516289D01*
X78357000Y-104843711D01*
X78400937Y-104799774D01*
X78514205Y-104630256D01*
X78592226Y-104441898D01*
X78632000Y-104241939D01*
X78632000Y-104179801D01*
X81086802Y-101725000D01*
X82265789Y-101725000D01*
X82309726Y-101768937D01*
X82479244Y-101882205D01*
X82667602Y-101960226D01*
X82867561Y-102000000D01*
X83071439Y-102000000D01*
X83271398Y-101960226D01*
X83459756Y-101882205D01*
X83629274Y-101768937D01*
X83773437Y-101624774D01*
X83886705Y-101455256D01*
X83964726Y-101266898D01*
X84004500Y-101066939D01*
X84004500Y-100863061D01*
X83964726Y-100663102D01*
X83886705Y-100474744D01*
X83773437Y-100305226D01*
X83629274Y-100161063D01*
X83459756Y-100047795D01*
X83271398Y-99969774D01*
X83071439Y-99930000D01*
X82867561Y-99930000D01*
X82667602Y-99969774D01*
X82479244Y-100047795D01*
X82309726Y-100161063D01*
X82265789Y-100205000D01*
X80809322Y-100205000D01*
X80771999Y-100201324D01*
X80734676Y-100205000D01*
X80734667Y-100205000D01*
X80623014Y-100215997D01*
X80479753Y-100259454D01*
X80347723Y-100330026D01*
X80264083Y-100398668D01*
X80231999Y-100424999D01*
X80208201Y-100453997D01*
X78357000Y-102305199D01*
X78357000Y-96969711D01*
X78400937Y-96925774D01*
X78514205Y-96756256D01*
X78592226Y-96567898D01*
X78632000Y-96367939D01*
X78632000Y-96164061D01*
X78592226Y-95964102D01*
X78514205Y-95775744D01*
X78400937Y-95606226D01*
X78357000Y-95562289D01*
X78357000Y-91889711D01*
X78400937Y-91845774D01*
X78514205Y-91676256D01*
X78592226Y-91487898D01*
X78632000Y-91287939D01*
X78632000Y-91084061D01*
X78592226Y-90884102D01*
X78514205Y-90695744D01*
X78400937Y-90526226D01*
X78357000Y-90482289D01*
X78357000Y-86809711D01*
X78400937Y-86765774D01*
X78514205Y-86596256D01*
X78592226Y-86407898D01*
X78632000Y-86207939D01*
X78632000Y-86004061D01*
X78592226Y-85804102D01*
X78514205Y-85615744D01*
X78400937Y-85446226D01*
X78357000Y-85402289D01*
X78357000Y-81729711D01*
X78400937Y-81685774D01*
X78514205Y-81516256D01*
X78592226Y-81327898D01*
X78632000Y-81127939D01*
X78632000Y-80924061D01*
X78592226Y-80724102D01*
X78514205Y-80535744D01*
X78400937Y-80366226D01*
X78357000Y-80322289D01*
X78357000Y-75326999D01*
X84876501Y-75326999D01*
X84876500Y-76169789D01*
X84832563Y-76213726D01*
X84719295Y-76383244D01*
X84641274Y-76571602D01*
X84601500Y-76771561D01*
X84601500Y-76975439D01*
X84641274Y-77175398D01*
X84719295Y-77363756D01*
X84832563Y-77533274D01*
X84976726Y-77677437D01*
X85146244Y-77790705D01*
X85334602Y-77868726D01*
X85534561Y-77908500D01*
X85738439Y-77908500D01*
X85938398Y-77868726D01*
X86126756Y-77790705D01*
X86296274Y-77677437D01*
X86440437Y-77533274D01*
X86553705Y-77363756D01*
X86631726Y-77175398D01*
X86671500Y-76975439D01*
X86671500Y-76771561D01*
X86631726Y-76571602D01*
X86553705Y-76383244D01*
X86440437Y-76213726D01*
X86396500Y-76169789D01*
X86396500Y-75326999D01*
X95980248Y-75326999D01*
X96035999Y-75332490D01*
X96091750Y-75326999D01*
X96091751Y-75326999D01*
X96258498Y-75310576D01*
X96472446Y-75245675D01*
X96669622Y-75140283D01*
X96842448Y-74998448D01*
X96877995Y-74955134D01*
X99832130Y-72001000D01*
X108339869Y-72001000D01*
X127103010Y-90764142D01*
X127103010Y-93174207D01*
X123968806Y-90040003D01*
X123945003Y-90010999D01*
X123829278Y-89916026D01*
X123697249Y-89845454D01*
X123553988Y-89801997D01*
X123442335Y-89791000D01*
X123442324Y-89791000D01*
X123405002Y-89787324D01*
X123367680Y-89791000D01*
X89984711Y-89791000D01*
X89940774Y-89747063D01*
X89771256Y-89633795D01*
X89582898Y-89555774D01*
X89382939Y-89516000D01*
X89179061Y-89516000D01*
X88979102Y-89555774D01*
X88790744Y-89633795D01*
X88621226Y-89747063D01*
X88477063Y-89891226D01*
X88363795Y-90060744D01*
X88285774Y-90249102D01*
X88246000Y-90449061D01*
X88246000Y-90652939D01*
X88285774Y-90852898D01*
X88363795Y-91041256D01*
X88477063Y-91210774D01*
X88621226Y-91354937D01*
X88790744Y-91468205D01*
X88979102Y-91546226D01*
X89179061Y-91586000D01*
X89382939Y-91586000D01*
X89582898Y-91546226D01*
X89771256Y-91468205D01*
X89940774Y-91354937D01*
X89984711Y-91311000D01*
X123090201Y-91311000D01*
X125576225Y-93797025D01*
X125356645Y-93927822D01*
X125140412Y-94122731D01*
X124969100Y-94352406D01*
X124851475Y-94176368D01*
X124644632Y-93969525D01*
X124401411Y-93807010D01*
X124131158Y-93695068D01*
X123844260Y-93638000D01*
X123551740Y-93638000D01*
X123264842Y-93695068D01*
X122994589Y-93807010D01*
X122751368Y-93969525D01*
X122544525Y-94176368D01*
X122382010Y-94419589D01*
X122270068Y-94689842D01*
X122213000Y-94976740D01*
X122213000Y-95269260D01*
X122270068Y-95556158D01*
X122341247Y-95727999D01*
X121570621Y-95727999D01*
X118232124Y-92389503D01*
X118208321Y-92360499D01*
X118092596Y-92265526D01*
X117960567Y-92194954D01*
X117817306Y-92151497D01*
X117705653Y-92140500D01*
X117705642Y-92140500D01*
X117668320Y-92136824D01*
X117630998Y-92140500D01*
X114863699Y-92140500D01*
X114846721Y-92117270D01*
X114845475Y-92115286D01*
X114822760Y-92072790D01*
X114782034Y-92023165D01*
X114742720Y-91972422D01*
X114706337Y-91940814D01*
X114704691Y-91939168D01*
X114673083Y-91902785D01*
X114622339Y-91863470D01*
X114572715Y-91822744D01*
X114530208Y-91800024D01*
X114528240Y-91798787D01*
X114489333Y-91770352D01*
X114431126Y-91743319D01*
X114373667Y-91714649D01*
X114327174Y-91701958D01*
X114324968Y-91701186D01*
X114280706Y-91682121D01*
X114217932Y-91668717D01*
X114155559Y-91653557D01*
X114115984Y-91651890D01*
X114073289Y-91647685D01*
X114041493Y-91644103D01*
X114036159Y-91644028D01*
X114030837Y-91643504D01*
X113998774Y-91643504D01*
X113956783Y-91642915D01*
X113954694Y-91642530D01*
X113942003Y-91642708D01*
X113929312Y-91642530D01*
X113927223Y-91642915D01*
X113885230Y-91643504D01*
X113853167Y-91643504D01*
X113847845Y-91644028D01*
X113842511Y-91644103D01*
X113810717Y-91647685D01*
X113768020Y-91651890D01*
X113728444Y-91653557D01*
X113666075Y-91668716D01*
X113603299Y-91682120D01*
X113559035Y-91701186D01*
X113556827Y-91701958D01*
X113510336Y-91714649D01*
X113452880Y-91743318D01*
X113394671Y-91770352D01*
X113355768Y-91798784D01*
X113353784Y-91800030D01*
X113341251Y-91806729D01*
X113328706Y-91800024D01*
X113326738Y-91798787D01*
X113287831Y-91770352D01*
X113229624Y-91743319D01*
X113172165Y-91714649D01*
X113125672Y-91701958D01*
X113123466Y-91701186D01*
X113079204Y-91682121D01*
X113016430Y-91668717D01*
X112954057Y-91653557D01*
X112914482Y-91651890D01*
X112871787Y-91647685D01*
X112839991Y-91644103D01*
X112834657Y-91644028D01*
X112829335Y-91643504D01*
X112797272Y-91643504D01*
X112755281Y-91642915D01*
X112753192Y-91642530D01*
X112740501Y-91642708D01*
X112727810Y-91642530D01*
X112725721Y-91642915D01*
X112683728Y-91643504D01*
X112651665Y-91643504D01*
X112646343Y-91644028D01*
X112641009Y-91644103D01*
X112609215Y-91647685D01*
X112566518Y-91651890D01*
X112526942Y-91653557D01*
X112464573Y-91668716D01*
X112401797Y-91682120D01*
X112357533Y-91701186D01*
X112355325Y-91701958D01*
X112308834Y-91714649D01*
X112251378Y-91743318D01*
X112193169Y-91770352D01*
X112154266Y-91798784D01*
X112152282Y-91800030D01*
X112140500Y-91806328D01*
X112128706Y-91800024D01*
X112126738Y-91798787D01*
X112087831Y-91770352D01*
X112029624Y-91743319D01*
X111972165Y-91714649D01*
X111925672Y-91701958D01*
X111923466Y-91701186D01*
X111879204Y-91682121D01*
X111816430Y-91668717D01*
X111754057Y-91653557D01*
X111714482Y-91651890D01*
X111671787Y-91647685D01*
X111639991Y-91644103D01*
X111634657Y-91644028D01*
X111629335Y-91643504D01*
X111597272Y-91643504D01*
X111555281Y-91642915D01*
X111553192Y-91642530D01*
X111540501Y-91642708D01*
X111527810Y-91642530D01*
X111525721Y-91642915D01*
X111483728Y-91643504D01*
X111451665Y-91643504D01*
X111446343Y-91644028D01*
X111441009Y-91644103D01*
X111409215Y-91647685D01*
X111366518Y-91651890D01*
X111326942Y-91653557D01*
X111264573Y-91668716D01*
X111201797Y-91682120D01*
X111157533Y-91701186D01*
X111155325Y-91701958D01*
X111108834Y-91714649D01*
X111051378Y-91743318D01*
X110993169Y-91770352D01*
X110954266Y-91798784D01*
X110952282Y-91800030D01*
X110940500Y-91806328D01*
X110928706Y-91800024D01*
X110926738Y-91798787D01*
X110887831Y-91770352D01*
X110829624Y-91743319D01*
X110772165Y-91714649D01*
X110725672Y-91701958D01*
X110723466Y-91701186D01*
X110679204Y-91682121D01*
X110616430Y-91668717D01*
X110554057Y-91653557D01*
X110514482Y-91651890D01*
X110471787Y-91647685D01*
X110439991Y-91644103D01*
X110434657Y-91644028D01*
X110429335Y-91643504D01*
X110397272Y-91643504D01*
X110355281Y-91642915D01*
X110353192Y-91642530D01*
X110340501Y-91642708D01*
X110327810Y-91642530D01*
X110325721Y-91642915D01*
X110283728Y-91643504D01*
X110251665Y-91643504D01*
X110246343Y-91644028D01*
X110241009Y-91644103D01*
X110209215Y-91647685D01*
X110166518Y-91651890D01*
X110126942Y-91653557D01*
X110064573Y-91668716D01*
X110001797Y-91682120D01*
X109957533Y-91701186D01*
X109955325Y-91701958D01*
X109908834Y-91714649D01*
X109851378Y-91743318D01*
X109793169Y-91770352D01*
X109754266Y-91798784D01*
X109752282Y-91800030D01*
X109740500Y-91806328D01*
X109728706Y-91800024D01*
X109726738Y-91798787D01*
X109687831Y-91770352D01*
X109629624Y-91743319D01*
X109572165Y-91714649D01*
X109525672Y-91701958D01*
X109523466Y-91701186D01*
X109479204Y-91682121D01*
X109416430Y-91668717D01*
X109354057Y-91653557D01*
X109314482Y-91651890D01*
X109271787Y-91647685D01*
X109239991Y-91644103D01*
X109234657Y-91644028D01*
X109229335Y-91643504D01*
X109197272Y-91643504D01*
X109155281Y-91642915D01*
X109153192Y-91642530D01*
X109140501Y-91642708D01*
X109127810Y-91642530D01*
X109125721Y-91642915D01*
X109083728Y-91643504D01*
X109051665Y-91643504D01*
X109046343Y-91644028D01*
X109041009Y-91644103D01*
X109009215Y-91647685D01*
X108966518Y-91651890D01*
X108926942Y-91653557D01*
X108864573Y-91668716D01*
X108801797Y-91682120D01*
X108757533Y-91701186D01*
X108755325Y-91701958D01*
X108708834Y-91714649D01*
X108651378Y-91743318D01*
X108593169Y-91770352D01*
X108554266Y-91798784D01*
X108552282Y-91800030D01*
X108540500Y-91806328D01*
X108528706Y-91800024D01*
X108526738Y-91798787D01*
X108487831Y-91770352D01*
X108429624Y-91743319D01*
X108372165Y-91714649D01*
X108325672Y-91701958D01*
X108323466Y-91701186D01*
X108279204Y-91682121D01*
X108216430Y-91668717D01*
X108154057Y-91653557D01*
X108114482Y-91651890D01*
X108071787Y-91647685D01*
X108039991Y-91644103D01*
X108034657Y-91644028D01*
X108029335Y-91643504D01*
X107997272Y-91643504D01*
X107955281Y-91642915D01*
X107953192Y-91642530D01*
X107940501Y-91642708D01*
X107927810Y-91642530D01*
X107925721Y-91642915D01*
X107883728Y-91643504D01*
X107851665Y-91643504D01*
X107846343Y-91644028D01*
X107841009Y-91644103D01*
X107809215Y-91647685D01*
X107766518Y-91651890D01*
X107726942Y-91653557D01*
X107664573Y-91668716D01*
X107601797Y-91682120D01*
X107557533Y-91701186D01*
X107555325Y-91701958D01*
X107508834Y-91714649D01*
X107451378Y-91743318D01*
X107393169Y-91770352D01*
X107354266Y-91798784D01*
X107352282Y-91800030D01*
X107340500Y-91806328D01*
X107328706Y-91800024D01*
X107326738Y-91798787D01*
X107287831Y-91770352D01*
X107229624Y-91743319D01*
X107172165Y-91714649D01*
X107125672Y-91701958D01*
X107123466Y-91701186D01*
X107079204Y-91682121D01*
X107016430Y-91668717D01*
X106954057Y-91653557D01*
X106914482Y-91651890D01*
X106871787Y-91647685D01*
X106839991Y-91644103D01*
X106834657Y-91644028D01*
X106829335Y-91643504D01*
X106797272Y-91643504D01*
X106755281Y-91642915D01*
X106753192Y-91642530D01*
X106740501Y-91642708D01*
X106727810Y-91642530D01*
X106725721Y-91642915D01*
X106683728Y-91643504D01*
X106651665Y-91643504D01*
X106646343Y-91644028D01*
X106641009Y-91644103D01*
X106609215Y-91647685D01*
X106566518Y-91651890D01*
X106526942Y-91653557D01*
X106464573Y-91668716D01*
X106401797Y-91682120D01*
X106357533Y-91701186D01*
X106355325Y-91701958D01*
X106308834Y-91714649D01*
X106251378Y-91743318D01*
X106193169Y-91770352D01*
X106154266Y-91798784D01*
X106152282Y-91800030D01*
X106140500Y-91806328D01*
X106128706Y-91800024D01*
X106126738Y-91798787D01*
X106087831Y-91770352D01*
X106029624Y-91743319D01*
X105972165Y-91714649D01*
X105925672Y-91701958D01*
X105923466Y-91701186D01*
X105879204Y-91682121D01*
X105816430Y-91668717D01*
X105754057Y-91653557D01*
X105714482Y-91651890D01*
X105671787Y-91647685D01*
X105639991Y-91644103D01*
X105634657Y-91644028D01*
X105629335Y-91643504D01*
X105597272Y-91643504D01*
X105555281Y-91642915D01*
X105553192Y-91642530D01*
X105540501Y-91642708D01*
X105527810Y-91642530D01*
X105525721Y-91642915D01*
X105483728Y-91643504D01*
X105451665Y-91643504D01*
X105446343Y-91644028D01*
X105441009Y-91644103D01*
X105409215Y-91647685D01*
X105366518Y-91651890D01*
X105326942Y-91653557D01*
X105264573Y-91668716D01*
X105201797Y-91682120D01*
X105157533Y-91701186D01*
X105155325Y-91701958D01*
X105108834Y-91714649D01*
X105051378Y-91743318D01*
X104993169Y-91770352D01*
X104954266Y-91798784D01*
X104952282Y-91800030D01*
X104940500Y-91806328D01*
X104928706Y-91800024D01*
X104926738Y-91798787D01*
X104887831Y-91770352D01*
X104829624Y-91743319D01*
X104772165Y-91714649D01*
X104725672Y-91701958D01*
X104723466Y-91701186D01*
X104679204Y-91682121D01*
X104616430Y-91668717D01*
X104554057Y-91653557D01*
X104514482Y-91651890D01*
X104471787Y-91647685D01*
X104439991Y-91644103D01*
X104434657Y-91644028D01*
X104429335Y-91643504D01*
X104397272Y-91643504D01*
X104355281Y-91642915D01*
X104353192Y-91642530D01*
X104340501Y-91642708D01*
X104327810Y-91642530D01*
X104325721Y-91642915D01*
X104283728Y-91643504D01*
X104251665Y-91643504D01*
X104246343Y-91644028D01*
X104241009Y-91644103D01*
X104209215Y-91647685D01*
X104166518Y-91651890D01*
X104126942Y-91653557D01*
X104064573Y-91668716D01*
X104001797Y-91682120D01*
X103957533Y-91701186D01*
X103955325Y-91701958D01*
X103908834Y-91714649D01*
X103851378Y-91743318D01*
X103793169Y-91770352D01*
X103754266Y-91798784D01*
X103752282Y-91800030D01*
X103740500Y-91806328D01*
X103728706Y-91800024D01*
X103726738Y-91798787D01*
X103687831Y-91770352D01*
X103629624Y-91743319D01*
X103572165Y-91714649D01*
X103525672Y-91701958D01*
X103523466Y-91701186D01*
X103479204Y-91682121D01*
X103416430Y-91668717D01*
X103354057Y-91653557D01*
X103314482Y-91651890D01*
X103271787Y-91647685D01*
X103239991Y-91644103D01*
X103234657Y-91644028D01*
X103229335Y-91643504D01*
X103197272Y-91643504D01*
X103155281Y-91642915D01*
X103153192Y-91642530D01*
X103140501Y-91642708D01*
X103127810Y-91642530D01*
X103125721Y-91642915D01*
X103083728Y-91643504D01*
X103051665Y-91643504D01*
X103046343Y-91644028D01*
X103041009Y-91644103D01*
X103009215Y-91647685D01*
X102966518Y-91651890D01*
X102926942Y-91653557D01*
X102864573Y-91668716D01*
X102801797Y-91682120D01*
X102757533Y-91701186D01*
X102755325Y-91701958D01*
X102708834Y-91714649D01*
X102651378Y-91743318D01*
X102593169Y-91770352D01*
X102554266Y-91798784D01*
X102552282Y-91800030D01*
X102509786Y-91822745D01*
X102460161Y-91863471D01*
X102409418Y-91902785D01*
X102377810Y-91939168D01*
X102376164Y-91940814D01*
X102339781Y-91972422D01*
X102300466Y-92023166D01*
X102259740Y-92072790D01*
X102237020Y-92115297D01*
X102235783Y-92117265D01*
X102218802Y-92140500D01*
X90048211Y-92140500D01*
X90004274Y-92096563D01*
X89834756Y-91983295D01*
X89646398Y-91905274D01*
X89446439Y-91865500D01*
X89242561Y-91865500D01*
X89042602Y-91905274D01*
X88854244Y-91983295D01*
X88684726Y-92096563D01*
X88540563Y-92240726D01*
X88427295Y-92410244D01*
X88349274Y-92598602D01*
X88309500Y-92798561D01*
X88309500Y-92865501D01*
X86066303Y-92865501D01*
X85109000Y-91908199D01*
X85109000Y-91846061D01*
X85069226Y-91646102D01*
X84991205Y-91457744D01*
X84877937Y-91288226D01*
X84733774Y-91144063D01*
X84564256Y-91030795D01*
X84479047Y-90995500D01*
X84564256Y-90960205D01*
X84733774Y-90846937D01*
X84877937Y-90702774D01*
X84991205Y-90533256D01*
X85069226Y-90344898D01*
X85109000Y-90144939D01*
X85109000Y-89941061D01*
X85069226Y-89741102D01*
X84991205Y-89552744D01*
X84877937Y-89383226D01*
X84733774Y-89239063D01*
X84564256Y-89125795D01*
X84375898Y-89047774D01*
X84175939Y-89008000D01*
X83972061Y-89008000D01*
X83772102Y-89047774D01*
X83583744Y-89125795D01*
X83414226Y-89239063D01*
X83270063Y-89383226D01*
X83156795Y-89552744D01*
X83078774Y-89741102D01*
X83039000Y-89941061D01*
X83039000Y-90003199D01*
X82837997Y-90204202D01*
X82808999Y-90228000D01*
X82785201Y-90256998D01*
X82785200Y-90256999D01*
X82714025Y-90343725D01*
X82643453Y-90475755D01*
X82599997Y-90619016D01*
X82585323Y-90768001D01*
X82589000Y-90805333D01*
X82588999Y-92258678D01*
X82585323Y-92296001D01*
X82588999Y-92333323D01*
X82588999Y-92333333D01*
X82599996Y-92444986D01*
X82641051Y-92580329D01*
X82643453Y-92588247D01*
X82714025Y-92720277D01*
X82746593Y-92759961D01*
X82808998Y-92836002D01*
X82838002Y-92859805D01*
X89517197Y-99539001D01*
X89540996Y-99568000D01*
X89569994Y-99591798D01*
X89656720Y-99662973D01*
X89788750Y-99733545D01*
X89932011Y-99777002D01*
X90043664Y-99787999D01*
X90043674Y-99787999D01*
X90080997Y-99791675D01*
X90118320Y-99787999D01*
X93818456Y-99787999D01*
X93765000Y-100056740D01*
X93765000Y-100349260D01*
X93822068Y-100636158D01*
X93934010Y-100906411D01*
X94096525Y-101149632D01*
X94303368Y-101356475D01*
X94477760Y-101473000D01*
X94303368Y-101589525D01*
X94096525Y-101796368D01*
X93934010Y-102039589D01*
X93822068Y-102309842D01*
X93765000Y-102596740D01*
X93765000Y-102889260D01*
X93822068Y-103176158D01*
X93934010Y-103446411D01*
X94096525Y-103689632D01*
X94303368Y-103896475D01*
X94477760Y-104013000D01*
X94303368Y-104129525D01*
X94096525Y-104336368D01*
X93971822Y-104523000D01*
X89007320Y-104523000D01*
X88969997Y-104519324D01*
X88932674Y-104523000D01*
X88932665Y-104523000D01*
X88821012Y-104533997D01*
X88677751Y-104577454D01*
X88545722Y-104648026D01*
X88429997Y-104742999D01*
X88406199Y-104771997D01*
X81879988Y-111298209D01*
X81850990Y-111322007D01*
X81827192Y-111351005D01*
X81827191Y-111351006D01*
X81756016Y-111437732D01*
X81685444Y-111569762D01*
X81663084Y-111643475D01*
X81643566Y-111707822D01*
X81641988Y-111713023D01*
X81627314Y-111862008D01*
X81630991Y-111899340D01*
X81630990Y-122399207D01*
X74279198Y-129751001D01*
X64714862Y-129751001D01*
X64722011Y-129733743D01*
X64781000Y-129437184D01*
X64781000Y-129134816D01*
X64722011Y-128838257D01*
X64606299Y-128558905D01*
X64438312Y-128307495D01*
X64224505Y-128093688D01*
X63973095Y-127925701D01*
X63693743Y-127809989D01*
X63397184Y-127751000D01*
X63094816Y-127751000D01*
X62798257Y-127809989D01*
X62518905Y-127925701D01*
X62267495Y-128093688D01*
X62201056Y-128160127D01*
X62195502Y-128141820D01*
X62136537Y-128031506D01*
X62057185Y-127934815D01*
X61960494Y-127855463D01*
X61850180Y-127796498D01*
X61730482Y-127760188D01*
X61606000Y-127747928D01*
X59842000Y-127747928D01*
X59842000Y-126251892D01*
X60420250Y-126249000D01*
X60579000Y-126090250D01*
X60579000Y-124841000D01*
X60559000Y-124841000D01*
X60559000Y-124587000D01*
X60579000Y-124587000D01*
X60579000Y-123337750D01*
X60833000Y-123337750D01*
X60833000Y-124587000D01*
X60853000Y-124587000D01*
X60853000Y-124841000D01*
X60833000Y-124841000D01*
X60833000Y-126090250D01*
X60991750Y-126249000D01*
X61606000Y-126252072D01*
X61730482Y-126239812D01*
X61850180Y-126203502D01*
X61960494Y-126144537D01*
X62057185Y-126065185D01*
X62136537Y-125968494D01*
X62195502Y-125858180D01*
X62201056Y-125839873D01*
X62267495Y-125906312D01*
X62518905Y-126074299D01*
X62798257Y-126190011D01*
X63094816Y-126249000D01*
X63397184Y-126249000D01*
X63693743Y-126190011D01*
X63973095Y-126074299D01*
X64224505Y-125906312D01*
X64438312Y-125692505D01*
X64606299Y-125441095D01*
X64722011Y-125161743D01*
X64781000Y-124865184D01*
X64781000Y-124562816D01*
X64722011Y-124266257D01*
X64606299Y-123986905D01*
X64438312Y-123735495D01*
X64224505Y-123521688D01*
X63973095Y-123353701D01*
X63693743Y-123237989D01*
X63397184Y-123179000D01*
X63094816Y-123179000D01*
X62798257Y-123237989D01*
X62518905Y-123353701D01*
X62267495Y-123521688D01*
X62201056Y-123588127D01*
X62195502Y-123569820D01*
X62136537Y-123459506D01*
X62057185Y-123362815D01*
X61960494Y-123283463D01*
X61850180Y-123224498D01*
X61730482Y-123188188D01*
X61606000Y-123175928D01*
X60991750Y-123179000D01*
X60833000Y-123337750D01*
X60579000Y-123337750D01*
X60420250Y-123179000D01*
X59842000Y-123176108D01*
X59842000Y-121855516D01*
X60074748Y-121994157D01*
X60349109Y-122091481D01*
X60579000Y-121970814D01*
X60579000Y-120777000D01*
X60559000Y-120777000D01*
X60559000Y-120523000D01*
X60579000Y-120523000D01*
X60579000Y-118237000D01*
X60559000Y-118237000D01*
X60559000Y-117983000D01*
X60579000Y-117983000D01*
X60579000Y-115697000D01*
X60559000Y-115697000D01*
X60559000Y-115443000D01*
X60579000Y-115443000D01*
X60579000Y-113157000D01*
X60559000Y-113157000D01*
X60559000Y-112903000D01*
X60579000Y-112903000D01*
X60579000Y-110617000D01*
X60559000Y-110617000D01*
X60559000Y-110363000D01*
X60579000Y-110363000D01*
X60579000Y-108077000D01*
X60559000Y-108077000D01*
X60559000Y-107823000D01*
X60579000Y-107823000D01*
X60579000Y-105537000D01*
X60559000Y-105537000D01*
X60559000Y-105283000D01*
X60579000Y-105283000D01*
X60579000Y-102997000D01*
X60559000Y-102997000D01*
X60559000Y-102743000D01*
X60579000Y-102743000D01*
X60579000Y-101549186D01*
X60833000Y-101549186D01*
X60833000Y-102743000D01*
X60853000Y-102743000D01*
X60853000Y-102997000D01*
X60833000Y-102997000D01*
X60833000Y-105283000D01*
X60853000Y-105283000D01*
X60853000Y-105537000D01*
X60833000Y-105537000D01*
X60833000Y-107823000D01*
X60853000Y-107823000D01*
X60853000Y-108077000D01*
X60833000Y-108077000D01*
X60833000Y-110363000D01*
X60853000Y-110363000D01*
X60853000Y-110617000D01*
X60833000Y-110617000D01*
X60833000Y-112903000D01*
X60853000Y-112903000D01*
X60853000Y-113157000D01*
X60833000Y-113157000D01*
X60833000Y-115443000D01*
X60853000Y-115443000D01*
X60853000Y-115697000D01*
X60833000Y-115697000D01*
X60833000Y-117983000D01*
X60853000Y-117983000D01*
X60853000Y-118237000D01*
X60833000Y-118237000D01*
X60833000Y-120523000D01*
X60853000Y-120523000D01*
X60853000Y-120777000D01*
X60833000Y-120777000D01*
X60833000Y-121970814D01*
X61062891Y-122091481D01*
X61337252Y-121994157D01*
X61587355Y-121845178D01*
X61803588Y-121650269D01*
X61974900Y-121420594D01*
X62092525Y-121596632D01*
X62299368Y-121803475D01*
X62542589Y-121965990D01*
X62812842Y-122077932D01*
X63099740Y-122135000D01*
X63392260Y-122135000D01*
X63679158Y-122077932D01*
X63949411Y-121965990D01*
X64192632Y-121803475D01*
X64399475Y-121596632D01*
X64561990Y-121353411D01*
X64673932Y-121083158D01*
X64731000Y-120796260D01*
X64731000Y-120503740D01*
X64673932Y-120216842D01*
X64561990Y-119946589D01*
X64399475Y-119703368D01*
X64192632Y-119496525D01*
X64018240Y-119380000D01*
X64192632Y-119263475D01*
X64399475Y-119056632D01*
X64561990Y-118813411D01*
X64673932Y-118543158D01*
X64731000Y-118256260D01*
X64731000Y-117963740D01*
X64673932Y-117676842D01*
X64561990Y-117406589D01*
X64399475Y-117163368D01*
X64192632Y-116956525D01*
X64018240Y-116840000D01*
X64192632Y-116723475D01*
X64399475Y-116516632D01*
X64561990Y-116273411D01*
X64673932Y-116003158D01*
X64731000Y-115716260D01*
X64731000Y-115423740D01*
X64673932Y-115136842D01*
X64561990Y-114866589D01*
X64399475Y-114623368D01*
X64192632Y-114416525D01*
X64018240Y-114300000D01*
X64192632Y-114183475D01*
X64399475Y-113976632D01*
X64561990Y-113733411D01*
X64673932Y-113463158D01*
X64731000Y-113176260D01*
X64731000Y-112883740D01*
X64673932Y-112596842D01*
X64561990Y-112326589D01*
X64399475Y-112083368D01*
X64192632Y-111876525D01*
X64018240Y-111760000D01*
X64192632Y-111643475D01*
X64399475Y-111436632D01*
X64561990Y-111193411D01*
X64673932Y-110923158D01*
X64731000Y-110636260D01*
X64731000Y-110343740D01*
X64673932Y-110056842D01*
X64561990Y-109786589D01*
X64399475Y-109543368D01*
X64192632Y-109336525D01*
X64018240Y-109220000D01*
X64192632Y-109103475D01*
X64399475Y-108896632D01*
X64561990Y-108653411D01*
X64673932Y-108383158D01*
X64731000Y-108096260D01*
X64731000Y-107803740D01*
X64673932Y-107516842D01*
X64561990Y-107246589D01*
X64399475Y-107003368D01*
X64192632Y-106796525D01*
X64018240Y-106680000D01*
X64192632Y-106563475D01*
X64399475Y-106356632D01*
X64561990Y-106113411D01*
X64673932Y-105843158D01*
X64731000Y-105556260D01*
X64731000Y-105263740D01*
X64673932Y-104976842D01*
X64561990Y-104706589D01*
X64399475Y-104463368D01*
X64267620Y-104331513D01*
X64340180Y-104309502D01*
X64450494Y-104250537D01*
X64547185Y-104171185D01*
X64626537Y-104074494D01*
X64685502Y-103964180D01*
X64721812Y-103844482D01*
X64734072Y-103720000D01*
X64734072Y-102020000D01*
X64721812Y-101895518D01*
X64685502Y-101775820D01*
X64626537Y-101665506D01*
X64547185Y-101568815D01*
X64450494Y-101489463D01*
X64340180Y-101430498D01*
X64220482Y-101394188D01*
X64096000Y-101381928D01*
X62396000Y-101381928D01*
X62271518Y-101394188D01*
X62151820Y-101430498D01*
X62041506Y-101489463D01*
X61944815Y-101568815D01*
X61865463Y-101665506D01*
X61806498Y-101775820D01*
X61783502Y-101851626D01*
X61587355Y-101674822D01*
X61337252Y-101525843D01*
X61062891Y-101428519D01*
X60833000Y-101549186D01*
X60579000Y-101549186D01*
X60349109Y-101428519D01*
X60074748Y-101525843D01*
X59842000Y-101664484D01*
X59842000Y-98741516D01*
X60074748Y-98880157D01*
X60349109Y-98977481D01*
X60579000Y-98856814D01*
X60579000Y-97663000D01*
X60559000Y-97663000D01*
X60559000Y-97409000D01*
X60579000Y-97409000D01*
X60579000Y-95123000D01*
X60559000Y-95123000D01*
X60559000Y-94869000D01*
X60579000Y-94869000D01*
X60579000Y-92583000D01*
X60559000Y-92583000D01*
X60559000Y-92329000D01*
X60579000Y-92329000D01*
X60579000Y-90043000D01*
X60559000Y-90043000D01*
X60559000Y-89789000D01*
X60579000Y-89789000D01*
X60579000Y-87503000D01*
X60559000Y-87503000D01*
X60559000Y-87249000D01*
X60579000Y-87249000D01*
X60579000Y-84963000D01*
X60559000Y-84963000D01*
X60559000Y-84709000D01*
X60579000Y-84709000D01*
X60579000Y-82423000D01*
X60559000Y-82423000D01*
X60559000Y-82169000D01*
X60579000Y-82169000D01*
X60579000Y-79883000D01*
X60559000Y-79883000D01*
X60559000Y-79629000D01*
X60579000Y-79629000D01*
X60579000Y-78435186D01*
X60833000Y-78435186D01*
X60833000Y-79629000D01*
X60853000Y-79629000D01*
X60853000Y-79883000D01*
X60833000Y-79883000D01*
X60833000Y-82169000D01*
X60853000Y-82169000D01*
X60853000Y-82423000D01*
X60833000Y-82423000D01*
X60833000Y-84709000D01*
X60853000Y-84709000D01*
X60853000Y-84963000D01*
X60833000Y-84963000D01*
X60833000Y-87249000D01*
X60853000Y-87249000D01*
X60853000Y-87503000D01*
X60833000Y-87503000D01*
X60833000Y-89789000D01*
X60853000Y-89789000D01*
X60853000Y-90043000D01*
X60833000Y-90043000D01*
X60833000Y-92329000D01*
X60853000Y-92329000D01*
X60853000Y-92583000D01*
X60833000Y-92583000D01*
X60833000Y-94869000D01*
X60853000Y-94869000D01*
X60853000Y-95123000D01*
X60833000Y-95123000D01*
X60833000Y-97409000D01*
X60853000Y-97409000D01*
X60853000Y-97663000D01*
X60833000Y-97663000D01*
X60833000Y-98856814D01*
X61062891Y-98977481D01*
X61337252Y-98880157D01*
X61587355Y-98731178D01*
X61803588Y-98536269D01*
X61974900Y-98306594D01*
X62092525Y-98482632D01*
X62299368Y-98689475D01*
X62542589Y-98851990D01*
X62812842Y-98963932D01*
X63099740Y-99021000D01*
X63392260Y-99021000D01*
X63679158Y-98963932D01*
X63949411Y-98851990D01*
X64192632Y-98689475D01*
X64399475Y-98482632D01*
X64561990Y-98239411D01*
X64673932Y-97969158D01*
X64731000Y-97682260D01*
X64731000Y-97389740D01*
X64673932Y-97102842D01*
X64561990Y-96832589D01*
X64399475Y-96589368D01*
X64192632Y-96382525D01*
X64018240Y-96266000D01*
X64192632Y-96149475D01*
X64399475Y-95942632D01*
X64561990Y-95699411D01*
X64673932Y-95429158D01*
X64731000Y-95142260D01*
X64731000Y-94849740D01*
X64673932Y-94562842D01*
X64561990Y-94292589D01*
X64399475Y-94049368D01*
X64192632Y-93842525D01*
X64018240Y-93726000D01*
X64192632Y-93609475D01*
X64399475Y-93402632D01*
X64561990Y-93159411D01*
X64673932Y-92889158D01*
X64731000Y-92602260D01*
X64731000Y-92309740D01*
X64673932Y-92022842D01*
X64561990Y-91752589D01*
X64399475Y-91509368D01*
X64192632Y-91302525D01*
X64018240Y-91186000D01*
X64192632Y-91069475D01*
X64399475Y-90862632D01*
X64561990Y-90619411D01*
X64673932Y-90349158D01*
X64731000Y-90062260D01*
X64731000Y-89769740D01*
X64673932Y-89482842D01*
X64561990Y-89212589D01*
X64399475Y-88969368D01*
X64192632Y-88762525D01*
X64018240Y-88646000D01*
X64192632Y-88529475D01*
X64399475Y-88322632D01*
X64561990Y-88079411D01*
X64673932Y-87809158D01*
X64731000Y-87522260D01*
X64731000Y-87229740D01*
X64673932Y-86942842D01*
X64561990Y-86672589D01*
X64399475Y-86429368D01*
X64192632Y-86222525D01*
X64018240Y-86106000D01*
X64192632Y-85989475D01*
X64399475Y-85782632D01*
X64561990Y-85539411D01*
X64673932Y-85269158D01*
X64731000Y-84982260D01*
X64731000Y-84689740D01*
X64673932Y-84402842D01*
X64561990Y-84132589D01*
X64399475Y-83889368D01*
X64192632Y-83682525D01*
X64018240Y-83566000D01*
X64192632Y-83449475D01*
X64399475Y-83242632D01*
X64561990Y-82999411D01*
X64673932Y-82729158D01*
X64731000Y-82442260D01*
X64731000Y-82149740D01*
X64673932Y-81862842D01*
X64561990Y-81592589D01*
X64399475Y-81349368D01*
X64267620Y-81217513D01*
X64340180Y-81195502D01*
X64450494Y-81136537D01*
X64547185Y-81057185D01*
X64626537Y-80960494D01*
X64685502Y-80850180D01*
X64721812Y-80730482D01*
X64734072Y-80606000D01*
X64734072Y-78906000D01*
X64721812Y-78781518D01*
X64685502Y-78661820D01*
X64626537Y-78551506D01*
X64547185Y-78454815D01*
X64450494Y-78375463D01*
X64340180Y-78316498D01*
X64220482Y-78280188D01*
X64096000Y-78267928D01*
X62396000Y-78267928D01*
X62271518Y-78280188D01*
X62151820Y-78316498D01*
X62041506Y-78375463D01*
X61944815Y-78454815D01*
X61865463Y-78551506D01*
X61806498Y-78661820D01*
X61783502Y-78737626D01*
X61587355Y-78560822D01*
X61337252Y-78411843D01*
X61062891Y-78314519D01*
X60833000Y-78435186D01*
X60579000Y-78435186D01*
X60349109Y-78314519D01*
X60074748Y-78411843D01*
X59842000Y-78550484D01*
X59842000Y-75373516D01*
X60074748Y-75512157D01*
X60349109Y-75609481D01*
X60579000Y-75488814D01*
X60579000Y-74295000D01*
X60559000Y-74295000D01*
X60559000Y-74041000D01*
X60579000Y-74041000D01*
X60579000Y-71755000D01*
X60559000Y-71755000D01*
X60559000Y-71501000D01*
X60579000Y-71501000D01*
X60579000Y-70307186D01*
X60349109Y-70186519D01*
X60074748Y-70283843D01*
X59842000Y-70422484D01*
X59842000Y-70002000D01*
X65613860Y-70002000D01*
X65370837Y-70245023D01*
G04 #@! TA.AperFunction,Conductor*
D21*
G36*
X65370837Y-70245023D02*
G01*
X65133412Y-70600355D01*
X64969870Y-70995179D01*
X64886497Y-71414323D01*
X64886497Y-71841677D01*
X64905291Y-71936159D01*
X64734072Y-71764941D01*
X64734072Y-70778000D01*
X64721812Y-70653518D01*
X64685502Y-70533820D01*
X64626537Y-70423506D01*
X64547185Y-70326815D01*
X64450494Y-70247463D01*
X64340180Y-70188498D01*
X64220482Y-70152188D01*
X64096000Y-70139928D01*
X62396000Y-70139928D01*
X62271518Y-70152188D01*
X62151820Y-70188498D01*
X62041506Y-70247463D01*
X61944815Y-70326815D01*
X61865463Y-70423506D01*
X61806498Y-70533820D01*
X61783502Y-70609626D01*
X61587355Y-70432822D01*
X61337252Y-70283843D01*
X61062891Y-70186519D01*
X60833000Y-70307186D01*
X60833000Y-71501000D01*
X60853000Y-71501000D01*
X60853000Y-71755000D01*
X60833000Y-71755000D01*
X60833000Y-74041000D01*
X60853000Y-74041000D01*
X60853000Y-74295000D01*
X60833000Y-74295000D01*
X60833000Y-75488814D01*
X61062891Y-75609481D01*
X61337252Y-75512157D01*
X61587355Y-75363178D01*
X61803588Y-75168269D01*
X61974900Y-74938594D01*
X62092525Y-75114632D01*
X62299368Y-75321475D01*
X62542589Y-75483990D01*
X62812842Y-75595932D01*
X63099740Y-75653000D01*
X63392260Y-75653000D01*
X63679158Y-75595932D01*
X63949411Y-75483990D01*
X64184365Y-75326999D01*
X65500247Y-75326999D01*
X65555999Y-75332490D01*
X65611750Y-75326999D01*
X76837001Y-75326999D01*
X76837000Y-80322289D01*
X76793063Y-80366226D01*
X76679795Y-80535744D01*
X76601774Y-80724102D01*
X76562000Y-80924061D01*
X76562000Y-81127939D01*
X76601774Y-81327898D01*
X76679795Y-81516256D01*
X76793063Y-81685774D01*
X76837000Y-81729711D01*
X76837001Y-85402288D01*
X76793063Y-85446226D01*
X76679795Y-85615744D01*
X76601774Y-85804102D01*
X76562000Y-86004061D01*
X76562000Y-86207939D01*
X76601774Y-86407898D01*
X76679795Y-86596256D01*
X76793063Y-86765774D01*
X76837000Y-86809711D01*
X76837001Y-90482288D01*
X76793063Y-90526226D01*
X76679795Y-90695744D01*
X76601774Y-90884102D01*
X76562000Y-91084061D01*
X76562000Y-91287939D01*
X76601774Y-91487898D01*
X76679795Y-91676256D01*
X76793063Y-91845774D01*
X76837000Y-91889711D01*
X76837001Y-95562288D01*
X76793063Y-95606226D01*
X76679795Y-95775744D01*
X76601774Y-95964102D01*
X76562000Y-96164061D01*
X76562000Y-96367939D01*
X76601774Y-96567898D01*
X76679795Y-96756256D01*
X76793063Y-96925774D01*
X76837000Y-96969711D01*
X76837001Y-103436288D01*
X76793063Y-103480226D01*
X76679795Y-103649744D01*
X76601774Y-103838102D01*
X76562000Y-104038061D01*
X76562000Y-104241939D01*
X76601774Y-104441898D01*
X76679795Y-104630256D01*
X76793063Y-104799774D01*
X76837000Y-104843711D01*
X76837001Y-108516288D01*
X76793063Y-108560226D01*
X76679795Y-108729744D01*
X76601774Y-108918102D01*
X76562000Y-109118061D01*
X76562000Y-109321939D01*
X76601774Y-109521898D01*
X76679795Y-109710256D01*
X76793063Y-109879774D01*
X76837000Y-109923711D01*
X76837001Y-113596288D01*
X76793063Y-113640226D01*
X76679795Y-113809744D01*
X76601774Y-113998102D01*
X76562000Y-114198061D01*
X76562000Y-114401939D01*
X76601774Y-114601898D01*
X76679795Y-114790256D01*
X76793063Y-114959774D01*
X76837000Y-115003711D01*
X76837001Y-118676288D01*
X76793063Y-118720226D01*
X76679795Y-118889744D01*
X76601774Y-119078102D01*
X76562000Y-119278061D01*
X76562000Y-119481939D01*
X76601774Y-119681898D01*
X76679795Y-119870256D01*
X76793063Y-120039774D01*
X76837000Y-120083711D01*
X76837001Y-120835288D01*
X76793063Y-120879226D01*
X76679795Y-121048744D01*
X76601774Y-121237102D01*
X76562000Y-121437061D01*
X76562000Y-121640939D01*
X76601774Y-121840898D01*
X76679795Y-122029256D01*
X76793063Y-122198774D01*
X76937226Y-122342937D01*
X77106744Y-122456205D01*
X77295102Y-122534226D01*
X77495061Y-122574000D01*
X77698939Y-122574000D01*
X77898898Y-122534226D01*
X78087256Y-122456205D01*
X78256774Y-122342937D01*
X78400937Y-122198774D01*
X78514205Y-122029256D01*
X78592226Y-121840898D01*
X78632000Y-121640939D01*
X78632000Y-121437061D01*
X78592226Y-121237102D01*
X78514205Y-121048744D01*
X78400937Y-120879226D01*
X78357000Y-120835289D01*
X78357000Y-120083711D01*
X78400937Y-120039774D01*
X78514205Y-119870256D01*
X78592226Y-119681898D01*
X78632000Y-119481939D01*
X78632000Y-119278061D01*
X78592226Y-119078102D01*
X78514205Y-118889744D01*
X78400937Y-118720226D01*
X78357000Y-118676289D01*
X78357000Y-115003711D01*
X78400937Y-114959774D01*
X78514205Y-114790256D01*
X78592226Y-114601898D01*
X78632000Y-114401939D01*
X78632000Y-114198061D01*
X78592226Y-113998102D01*
X78514205Y-113809744D01*
X78400937Y-113640226D01*
X78357000Y-113596289D01*
X78357000Y-109923711D01*
X78400937Y-109879774D01*
X78514205Y-109710256D01*
X78592226Y-109521898D01*
X78632000Y-109321939D01*
X78632000Y-109118061D01*
X78592226Y-108918102D01*
X78514205Y-108729744D01*
X78400937Y-108560226D01*
X78357000Y-108516289D01*
X78357000Y-104843711D01*
X78400937Y-104799774D01*
X78514205Y-104630256D01*
X78592226Y-104441898D01*
X78632000Y-104241939D01*
X78632000Y-104179801D01*
X81086802Y-101725000D01*
X82265789Y-101725000D01*
X82309726Y-101768937D01*
X82479244Y-101882205D01*
X82667602Y-101960226D01*
X82867561Y-102000000D01*
X83071439Y-102000000D01*
X83271398Y-101960226D01*
X83459756Y-101882205D01*
X83629274Y-101768937D01*
X83773437Y-101624774D01*
X83886705Y-101455256D01*
X83964726Y-101266898D01*
X84004500Y-101066939D01*
X84004500Y-100863061D01*
X83964726Y-100663102D01*
X83886705Y-100474744D01*
X83773437Y-100305226D01*
X83629274Y-100161063D01*
X83459756Y-100047795D01*
X83271398Y-99969774D01*
X83071439Y-99930000D01*
X82867561Y-99930000D01*
X82667602Y-99969774D01*
X82479244Y-100047795D01*
X82309726Y-100161063D01*
X82265789Y-100205000D01*
X80809322Y-100205000D01*
X80771999Y-100201324D01*
X80734676Y-100205000D01*
X80734667Y-100205000D01*
X80623014Y-100215997D01*
X80479753Y-100259454D01*
X80347723Y-100330026D01*
X80264083Y-100398668D01*
X80231999Y-100424999D01*
X80208201Y-100453997D01*
X78357000Y-102305199D01*
X78357000Y-96969711D01*
X78400937Y-96925774D01*
X78514205Y-96756256D01*
X78592226Y-96567898D01*
X78632000Y-96367939D01*
X78632000Y-96164061D01*
X78592226Y-95964102D01*
X78514205Y-95775744D01*
X78400937Y-95606226D01*
X78357000Y-95562289D01*
X78357000Y-91889711D01*
X78400937Y-91845774D01*
X78514205Y-91676256D01*
X78592226Y-91487898D01*
X78632000Y-91287939D01*
X78632000Y-91084061D01*
X78592226Y-90884102D01*
X78514205Y-90695744D01*
X78400937Y-90526226D01*
X78357000Y-90482289D01*
X78357000Y-86809711D01*
X78400937Y-86765774D01*
X78514205Y-86596256D01*
X78592226Y-86407898D01*
X78632000Y-86207939D01*
X78632000Y-86004061D01*
X78592226Y-85804102D01*
X78514205Y-85615744D01*
X78400937Y-85446226D01*
X78357000Y-85402289D01*
X78357000Y-81729711D01*
X78400937Y-81685774D01*
X78514205Y-81516256D01*
X78592226Y-81327898D01*
X78632000Y-81127939D01*
X78632000Y-80924061D01*
X78592226Y-80724102D01*
X78514205Y-80535744D01*
X78400937Y-80366226D01*
X78357000Y-80322289D01*
X78357000Y-75326999D01*
X84876501Y-75326999D01*
X84876500Y-76169789D01*
X84832563Y-76213726D01*
X84719295Y-76383244D01*
X84641274Y-76571602D01*
X84601500Y-76771561D01*
X84601500Y-76975439D01*
X84641274Y-77175398D01*
X84719295Y-77363756D01*
X84832563Y-77533274D01*
X84976726Y-77677437D01*
X85146244Y-77790705D01*
X85334602Y-77868726D01*
X85534561Y-77908500D01*
X85738439Y-77908500D01*
X85938398Y-77868726D01*
X86126756Y-77790705D01*
X86296274Y-77677437D01*
X86440437Y-77533274D01*
X86553705Y-77363756D01*
X86631726Y-77175398D01*
X86671500Y-76975439D01*
X86671500Y-76771561D01*
X86631726Y-76571602D01*
X86553705Y-76383244D01*
X86440437Y-76213726D01*
X86396500Y-76169789D01*
X86396500Y-75326999D01*
X95980248Y-75326999D01*
X96035999Y-75332490D01*
X96091750Y-75326999D01*
X96091751Y-75326999D01*
X96258498Y-75310576D01*
X96472446Y-75245675D01*
X96669622Y-75140283D01*
X96842448Y-74998448D01*
X96877995Y-74955134D01*
X99832130Y-72001000D01*
X108339869Y-72001000D01*
X127103010Y-90764142D01*
X127103010Y-93174207D01*
X123968806Y-90040003D01*
X123945003Y-90010999D01*
X123829278Y-89916026D01*
X123697249Y-89845454D01*
X123553988Y-89801997D01*
X123442335Y-89791000D01*
X123442324Y-89791000D01*
X123405002Y-89787324D01*
X123367680Y-89791000D01*
X89984711Y-89791000D01*
X89940774Y-89747063D01*
X89771256Y-89633795D01*
X89582898Y-89555774D01*
X89382939Y-89516000D01*
X89179061Y-89516000D01*
X88979102Y-89555774D01*
X88790744Y-89633795D01*
X88621226Y-89747063D01*
X88477063Y-89891226D01*
X88363795Y-90060744D01*
X88285774Y-90249102D01*
X88246000Y-90449061D01*
X88246000Y-90652939D01*
X88285774Y-90852898D01*
X88363795Y-91041256D01*
X88477063Y-91210774D01*
X88621226Y-91354937D01*
X88790744Y-91468205D01*
X88979102Y-91546226D01*
X89179061Y-91586000D01*
X89382939Y-91586000D01*
X89582898Y-91546226D01*
X89771256Y-91468205D01*
X89940774Y-91354937D01*
X89984711Y-91311000D01*
X123090201Y-91311000D01*
X125576225Y-93797025D01*
X125356645Y-93927822D01*
X125140412Y-94122731D01*
X124969100Y-94352406D01*
X124851475Y-94176368D01*
X124644632Y-93969525D01*
X124401411Y-93807010D01*
X124131158Y-93695068D01*
X123844260Y-93638000D01*
X123551740Y-93638000D01*
X123264842Y-93695068D01*
X122994589Y-93807010D01*
X122751368Y-93969525D01*
X122544525Y-94176368D01*
X122382010Y-94419589D01*
X122270068Y-94689842D01*
X122213000Y-94976740D01*
X122213000Y-95269260D01*
X122270068Y-95556158D01*
X122341247Y-95727999D01*
X121570621Y-95727999D01*
X118232124Y-92389503D01*
X118208321Y-92360499D01*
X118092596Y-92265526D01*
X117960567Y-92194954D01*
X117817306Y-92151497D01*
X117705653Y-92140500D01*
X117705642Y-92140500D01*
X117668320Y-92136824D01*
X117630998Y-92140500D01*
X114863699Y-92140500D01*
X114846721Y-92117270D01*
X114845475Y-92115286D01*
X114822760Y-92072790D01*
X114782034Y-92023165D01*
X114742720Y-91972422D01*
X114706337Y-91940814D01*
X114704691Y-91939168D01*
X114673083Y-91902785D01*
X114622339Y-91863470D01*
X114572715Y-91822744D01*
X114530208Y-91800024D01*
X114528240Y-91798787D01*
X114489333Y-91770352D01*
X114431126Y-91743319D01*
X114373667Y-91714649D01*
X114327174Y-91701958D01*
X114324968Y-91701186D01*
X114280706Y-91682121D01*
X114217932Y-91668717D01*
X114155559Y-91653557D01*
X114115984Y-91651890D01*
X114073289Y-91647685D01*
X114041493Y-91644103D01*
X114036159Y-91644028D01*
X114030837Y-91643504D01*
X113998774Y-91643504D01*
X113956783Y-91642915D01*
X113954694Y-91642530D01*
X113942003Y-91642708D01*
X113929312Y-91642530D01*
X113927223Y-91642915D01*
X113885230Y-91643504D01*
X113853167Y-91643504D01*
X113847845Y-91644028D01*
X113842511Y-91644103D01*
X113810717Y-91647685D01*
X113768020Y-91651890D01*
X113728444Y-91653557D01*
X113666075Y-91668716D01*
X113603299Y-91682120D01*
X113559035Y-91701186D01*
X113556827Y-91701958D01*
X113510336Y-91714649D01*
X113452880Y-91743318D01*
X113394671Y-91770352D01*
X113355768Y-91798784D01*
X113353784Y-91800030D01*
X113341251Y-91806729D01*
X113328706Y-91800024D01*
X113326738Y-91798787D01*
X113287831Y-91770352D01*
X113229624Y-91743319D01*
X113172165Y-91714649D01*
X113125672Y-91701958D01*
X113123466Y-91701186D01*
X113079204Y-91682121D01*
X113016430Y-91668717D01*
X112954057Y-91653557D01*
X112914482Y-91651890D01*
X112871787Y-91647685D01*
X112839991Y-91644103D01*
X112834657Y-91644028D01*
X112829335Y-91643504D01*
X112797272Y-91643504D01*
X112755281Y-91642915D01*
X112753192Y-91642530D01*
X112740501Y-91642708D01*
X112727810Y-91642530D01*
X112725721Y-91642915D01*
X112683728Y-91643504D01*
X112651665Y-91643504D01*
X112646343Y-91644028D01*
X112641009Y-91644103D01*
X112609215Y-91647685D01*
X112566518Y-91651890D01*
X112526942Y-91653557D01*
X112464573Y-91668716D01*
X112401797Y-91682120D01*
X112357533Y-91701186D01*
X112355325Y-91701958D01*
X112308834Y-91714649D01*
X112251378Y-91743318D01*
X112193169Y-91770352D01*
X112154266Y-91798784D01*
X112152282Y-91800030D01*
X112140500Y-91806328D01*
X112128706Y-91800024D01*
X112126738Y-91798787D01*
X112087831Y-91770352D01*
X112029624Y-91743319D01*
X111972165Y-91714649D01*
X111925672Y-91701958D01*
X111923466Y-91701186D01*
X111879204Y-91682121D01*
X111816430Y-91668717D01*
X111754057Y-91653557D01*
X111714482Y-91651890D01*
X111671787Y-91647685D01*
X111639991Y-91644103D01*
X111634657Y-91644028D01*
X111629335Y-91643504D01*
X111597272Y-91643504D01*
X111555281Y-91642915D01*
X111553192Y-91642530D01*
X111540501Y-91642708D01*
X111527810Y-91642530D01*
X111525721Y-91642915D01*
X111483728Y-91643504D01*
X111451665Y-91643504D01*
X111446343Y-91644028D01*
X111441009Y-91644103D01*
X111409215Y-91647685D01*
X111366518Y-91651890D01*
X111326942Y-91653557D01*
X111264573Y-91668716D01*
X111201797Y-91682120D01*
X111157533Y-91701186D01*
X111155325Y-91701958D01*
X111108834Y-91714649D01*
X111051378Y-91743318D01*
X110993169Y-91770352D01*
X110954266Y-91798784D01*
X110952282Y-91800030D01*
X110940500Y-91806328D01*
X110928706Y-91800024D01*
X110926738Y-91798787D01*
X110887831Y-91770352D01*
X110829624Y-91743319D01*
X110772165Y-91714649D01*
X110725672Y-91701958D01*
X110723466Y-91701186D01*
X110679204Y-91682121D01*
X110616430Y-91668717D01*
X110554057Y-91653557D01*
X110514482Y-91651890D01*
X110471787Y-91647685D01*
X110439991Y-91644103D01*
X110434657Y-91644028D01*
X110429335Y-91643504D01*
X110397272Y-91643504D01*
X110355281Y-91642915D01*
X110353192Y-91642530D01*
X110340501Y-91642708D01*
X110327810Y-91642530D01*
X110325721Y-91642915D01*
X110283728Y-91643504D01*
X110251665Y-91643504D01*
X110246343Y-91644028D01*
X110241009Y-91644103D01*
X110209215Y-91647685D01*
X110166518Y-91651890D01*
X110126942Y-91653557D01*
X110064573Y-91668716D01*
X110001797Y-91682120D01*
X109957533Y-91701186D01*
X109955325Y-91701958D01*
X109908834Y-91714649D01*
X109851378Y-91743318D01*
X109793169Y-91770352D01*
X109754266Y-91798784D01*
X109752282Y-91800030D01*
X109740500Y-91806328D01*
X109728706Y-91800024D01*
X109726738Y-91798787D01*
X109687831Y-91770352D01*
X109629624Y-91743319D01*
X109572165Y-91714649D01*
X109525672Y-91701958D01*
X109523466Y-91701186D01*
X109479204Y-91682121D01*
X109416430Y-91668717D01*
X109354057Y-91653557D01*
X109314482Y-91651890D01*
X109271787Y-91647685D01*
X109239991Y-91644103D01*
X109234657Y-91644028D01*
X109229335Y-91643504D01*
X109197272Y-91643504D01*
X109155281Y-91642915D01*
X109153192Y-91642530D01*
X109140501Y-91642708D01*
X109127810Y-91642530D01*
X109125721Y-91642915D01*
X109083728Y-91643504D01*
X109051665Y-91643504D01*
X109046343Y-91644028D01*
X109041009Y-91644103D01*
X109009215Y-91647685D01*
X108966518Y-91651890D01*
X108926942Y-91653557D01*
X108864573Y-91668716D01*
X108801797Y-91682120D01*
X108757533Y-91701186D01*
X108755325Y-91701958D01*
X108708834Y-91714649D01*
X108651378Y-91743318D01*
X108593169Y-91770352D01*
X108554266Y-91798784D01*
X108552282Y-91800030D01*
X108540500Y-91806328D01*
X108528706Y-91800024D01*
X108526738Y-91798787D01*
X108487831Y-91770352D01*
X108429624Y-91743319D01*
X108372165Y-91714649D01*
X108325672Y-91701958D01*
X108323466Y-91701186D01*
X108279204Y-91682121D01*
X108216430Y-91668717D01*
X108154057Y-91653557D01*
X108114482Y-91651890D01*
X108071787Y-91647685D01*
X108039991Y-91644103D01*
X108034657Y-91644028D01*
X108029335Y-91643504D01*
X107997272Y-91643504D01*
X107955281Y-91642915D01*
X107953192Y-91642530D01*
X107940501Y-91642708D01*
X107927810Y-91642530D01*
X107925721Y-91642915D01*
X107883728Y-91643504D01*
X107851665Y-91643504D01*
X107846343Y-91644028D01*
X107841009Y-91644103D01*
X107809215Y-91647685D01*
X107766518Y-91651890D01*
X107726942Y-91653557D01*
X107664573Y-91668716D01*
X107601797Y-91682120D01*
X107557533Y-91701186D01*
X107555325Y-91701958D01*
X107508834Y-91714649D01*
X107451378Y-91743318D01*
X107393169Y-91770352D01*
X107354266Y-91798784D01*
X107352282Y-91800030D01*
X107340500Y-91806328D01*
X107328706Y-91800024D01*
X107326738Y-91798787D01*
X107287831Y-91770352D01*
X107229624Y-91743319D01*
X107172165Y-91714649D01*
X107125672Y-91701958D01*
X107123466Y-91701186D01*
X107079204Y-91682121D01*
X107016430Y-91668717D01*
X106954057Y-91653557D01*
X106914482Y-91651890D01*
X106871787Y-91647685D01*
X106839991Y-91644103D01*
X106834657Y-91644028D01*
X106829335Y-91643504D01*
X106797272Y-91643504D01*
X106755281Y-91642915D01*
X106753192Y-91642530D01*
X106740501Y-91642708D01*
X106727810Y-91642530D01*
X106725721Y-91642915D01*
X106683728Y-91643504D01*
X106651665Y-91643504D01*
X106646343Y-91644028D01*
X106641009Y-91644103D01*
X106609215Y-91647685D01*
X106566518Y-91651890D01*
X106526942Y-91653557D01*
X106464573Y-91668716D01*
X106401797Y-91682120D01*
X106357533Y-91701186D01*
X106355325Y-91701958D01*
X106308834Y-91714649D01*
X106251378Y-91743318D01*
X106193169Y-91770352D01*
X106154266Y-91798784D01*
X106152282Y-91800030D01*
X106140500Y-91806328D01*
X106128706Y-91800024D01*
X106126738Y-91798787D01*
X106087831Y-91770352D01*
X106029624Y-91743319D01*
X105972165Y-91714649D01*
X105925672Y-91701958D01*
X105923466Y-91701186D01*
X105879204Y-91682121D01*
X105816430Y-91668717D01*
X105754057Y-91653557D01*
X105714482Y-91651890D01*
X105671787Y-91647685D01*
X105639991Y-91644103D01*
X105634657Y-91644028D01*
X105629335Y-91643504D01*
X105597272Y-91643504D01*
X105555281Y-91642915D01*
X105553192Y-91642530D01*
X105540501Y-91642708D01*
X105527810Y-91642530D01*
X105525721Y-91642915D01*
X105483728Y-91643504D01*
X105451665Y-91643504D01*
X105446343Y-91644028D01*
X105441009Y-91644103D01*
X105409215Y-91647685D01*
X105366518Y-91651890D01*
X105326942Y-91653557D01*
X105264573Y-91668716D01*
X105201797Y-91682120D01*
X105157533Y-91701186D01*
X105155325Y-91701958D01*
X105108834Y-91714649D01*
X105051378Y-91743318D01*
X104993169Y-91770352D01*
X104954266Y-91798784D01*
X104952282Y-91800030D01*
X104940500Y-91806328D01*
X104928706Y-91800024D01*
X104926738Y-91798787D01*
X104887831Y-91770352D01*
X104829624Y-91743319D01*
X104772165Y-91714649D01*
X104725672Y-91701958D01*
X104723466Y-91701186D01*
X104679204Y-91682121D01*
X104616430Y-91668717D01*
X104554057Y-91653557D01*
X104514482Y-91651890D01*
X104471787Y-91647685D01*
X104439991Y-91644103D01*
X104434657Y-91644028D01*
X104429335Y-91643504D01*
X104397272Y-91643504D01*
X104355281Y-91642915D01*
X104353192Y-91642530D01*
X104340501Y-91642708D01*
X104327810Y-91642530D01*
X104325721Y-91642915D01*
X104283728Y-91643504D01*
X104251665Y-91643504D01*
X104246343Y-91644028D01*
X104241009Y-91644103D01*
X104209215Y-91647685D01*
X104166518Y-91651890D01*
X104126942Y-91653557D01*
X104064573Y-91668716D01*
X104001797Y-91682120D01*
X103957533Y-91701186D01*
X103955325Y-91701958D01*
X103908834Y-91714649D01*
X103851378Y-91743318D01*
X103793169Y-91770352D01*
X103754266Y-91798784D01*
X103752282Y-91800030D01*
X103740500Y-91806328D01*
X103728706Y-91800024D01*
X103726738Y-91798787D01*
X103687831Y-91770352D01*
X103629624Y-91743319D01*
X103572165Y-91714649D01*
X103525672Y-91701958D01*
X103523466Y-91701186D01*
X103479204Y-91682121D01*
X103416430Y-91668717D01*
X103354057Y-91653557D01*
X103314482Y-91651890D01*
X103271787Y-91647685D01*
X103239991Y-91644103D01*
X103234657Y-91644028D01*
X103229335Y-91643504D01*
X103197272Y-91643504D01*
X103155281Y-91642915D01*
X103153192Y-91642530D01*
X103140501Y-91642708D01*
X103127810Y-91642530D01*
X103125721Y-91642915D01*
X103083728Y-91643504D01*
X103051665Y-91643504D01*
X103046343Y-91644028D01*
X103041009Y-91644103D01*
X103009215Y-91647685D01*
X102966518Y-91651890D01*
X102926942Y-91653557D01*
X102864573Y-91668716D01*
X102801797Y-91682120D01*
X102757533Y-91701186D01*
X102755325Y-91701958D01*
X102708834Y-91714649D01*
X102651378Y-91743318D01*
X102593169Y-91770352D01*
X102554266Y-91798784D01*
X102552282Y-91800030D01*
X102509786Y-91822745D01*
X102460161Y-91863471D01*
X102409418Y-91902785D01*
X102377810Y-91939168D01*
X102376164Y-91940814D01*
X102339781Y-91972422D01*
X102300466Y-92023166D01*
X102259740Y-92072790D01*
X102237020Y-92115297D01*
X102235783Y-92117265D01*
X102218802Y-92140500D01*
X90048211Y-92140500D01*
X90004274Y-92096563D01*
X89834756Y-91983295D01*
X89646398Y-91905274D01*
X89446439Y-91865500D01*
X89242561Y-91865500D01*
X89042602Y-91905274D01*
X88854244Y-91983295D01*
X88684726Y-92096563D01*
X88540563Y-92240726D01*
X88427295Y-92410244D01*
X88349274Y-92598602D01*
X88309500Y-92798561D01*
X88309500Y-92865501D01*
X86066303Y-92865501D01*
X85109000Y-91908199D01*
X85109000Y-91846061D01*
X85069226Y-91646102D01*
X84991205Y-91457744D01*
X84877937Y-91288226D01*
X84733774Y-91144063D01*
X84564256Y-91030795D01*
X84479047Y-90995500D01*
X84564256Y-90960205D01*
X84733774Y-90846937D01*
X84877937Y-90702774D01*
X84991205Y-90533256D01*
X85069226Y-90344898D01*
X85109000Y-90144939D01*
X85109000Y-89941061D01*
X85069226Y-89741102D01*
X84991205Y-89552744D01*
X84877937Y-89383226D01*
X84733774Y-89239063D01*
X84564256Y-89125795D01*
X84375898Y-89047774D01*
X84175939Y-89008000D01*
X83972061Y-89008000D01*
X83772102Y-89047774D01*
X83583744Y-89125795D01*
X83414226Y-89239063D01*
X83270063Y-89383226D01*
X83156795Y-89552744D01*
X83078774Y-89741102D01*
X83039000Y-89941061D01*
X83039000Y-90003199D01*
X82837997Y-90204202D01*
X82808999Y-90228000D01*
X82785201Y-90256998D01*
X82785200Y-90256999D01*
X82714025Y-90343725D01*
X82643453Y-90475755D01*
X82599997Y-90619016D01*
X82585323Y-90768001D01*
X82589000Y-90805333D01*
X82588999Y-92258678D01*
X82585323Y-92296001D01*
X82588999Y-92333323D01*
X82588999Y-92333333D01*
X82599996Y-92444986D01*
X82641051Y-92580329D01*
X82643453Y-92588247D01*
X82714025Y-92720277D01*
X82746593Y-92759961D01*
X82808998Y-92836002D01*
X82838002Y-92859805D01*
X89517197Y-99539001D01*
X89540996Y-99568000D01*
X89569994Y-99591798D01*
X89656720Y-99662973D01*
X89788750Y-99733545D01*
X89932011Y-99777002D01*
X90043664Y-99787999D01*
X90043674Y-99787999D01*
X90080997Y-99791675D01*
X90118320Y-99787999D01*
X93818456Y-99787999D01*
X93765000Y-100056740D01*
X93765000Y-100349260D01*
X93822068Y-100636158D01*
X93934010Y-100906411D01*
X94096525Y-101149632D01*
X94303368Y-101356475D01*
X94477760Y-101473000D01*
X94303368Y-101589525D01*
X94096525Y-101796368D01*
X93934010Y-102039589D01*
X93822068Y-102309842D01*
X93765000Y-102596740D01*
X93765000Y-102889260D01*
X93822068Y-103176158D01*
X93934010Y-103446411D01*
X94096525Y-103689632D01*
X94303368Y-103896475D01*
X94477760Y-104013000D01*
X94303368Y-104129525D01*
X94096525Y-104336368D01*
X93971822Y-104523000D01*
X89007320Y-104523000D01*
X88969997Y-104519324D01*
X88932674Y-104523000D01*
X88932665Y-104523000D01*
X88821012Y-104533997D01*
X88677751Y-104577454D01*
X88545722Y-104648026D01*
X88429997Y-104742999D01*
X88406199Y-104771997D01*
X81879988Y-111298209D01*
X81850990Y-111322007D01*
X81827192Y-111351005D01*
X81827191Y-111351006D01*
X81756016Y-111437732D01*
X81685444Y-111569762D01*
X81663084Y-111643475D01*
X81643566Y-111707822D01*
X81641988Y-111713023D01*
X81627314Y-111862008D01*
X81630991Y-111899340D01*
X81630990Y-122399207D01*
X74279198Y-129751001D01*
X64714862Y-129751001D01*
X64722011Y-129733743D01*
X64781000Y-129437184D01*
X64781000Y-129134816D01*
X64722011Y-128838257D01*
X64606299Y-128558905D01*
X64438312Y-128307495D01*
X64224505Y-128093688D01*
X63973095Y-127925701D01*
X63693743Y-127809989D01*
X63397184Y-127751000D01*
X63094816Y-127751000D01*
X62798257Y-127809989D01*
X62518905Y-127925701D01*
X62267495Y-128093688D01*
X62201056Y-128160127D01*
X62195502Y-128141820D01*
X62136537Y-128031506D01*
X62057185Y-127934815D01*
X61960494Y-127855463D01*
X61850180Y-127796498D01*
X61730482Y-127760188D01*
X61606000Y-127747928D01*
X59842000Y-127747928D01*
X59842000Y-126251892D01*
X60420250Y-126249000D01*
X60579000Y-126090250D01*
X60579000Y-124841000D01*
X60559000Y-124841000D01*
X60559000Y-124587000D01*
X60579000Y-124587000D01*
X60579000Y-123337750D01*
X60833000Y-123337750D01*
X60833000Y-124587000D01*
X60853000Y-124587000D01*
X60853000Y-124841000D01*
X60833000Y-124841000D01*
X60833000Y-126090250D01*
X60991750Y-126249000D01*
X61606000Y-126252072D01*
X61730482Y-126239812D01*
X61850180Y-126203502D01*
X61960494Y-126144537D01*
X62057185Y-126065185D01*
X62136537Y-125968494D01*
X62195502Y-125858180D01*
X62201056Y-125839873D01*
X62267495Y-125906312D01*
X62518905Y-126074299D01*
X62798257Y-126190011D01*
X63094816Y-126249000D01*
X63397184Y-126249000D01*
X63693743Y-126190011D01*
X63973095Y-126074299D01*
X64224505Y-125906312D01*
X64438312Y-125692505D01*
X64606299Y-125441095D01*
X64722011Y-125161743D01*
X64781000Y-124865184D01*
X64781000Y-124562816D01*
X64722011Y-124266257D01*
X64606299Y-123986905D01*
X64438312Y-123735495D01*
X64224505Y-123521688D01*
X63973095Y-123353701D01*
X63693743Y-123237989D01*
X63397184Y-123179000D01*
X63094816Y-123179000D01*
X62798257Y-123237989D01*
X62518905Y-123353701D01*
X62267495Y-123521688D01*
X62201056Y-123588127D01*
X62195502Y-123569820D01*
X62136537Y-123459506D01*
X62057185Y-123362815D01*
X61960494Y-123283463D01*
X61850180Y-123224498D01*
X61730482Y-123188188D01*
X61606000Y-123175928D01*
X60991750Y-123179000D01*
X60833000Y-123337750D01*
X60579000Y-123337750D01*
X60420250Y-123179000D01*
X59842000Y-123176108D01*
X59842000Y-121855516D01*
X60074748Y-121994157D01*
X60349109Y-122091481D01*
X60579000Y-121970814D01*
X60579000Y-120777000D01*
X60559000Y-120777000D01*
X60559000Y-120523000D01*
X60579000Y-120523000D01*
X60579000Y-118237000D01*
X60559000Y-118237000D01*
X60559000Y-117983000D01*
X60579000Y-117983000D01*
X60579000Y-115697000D01*
X60559000Y-115697000D01*
X60559000Y-115443000D01*
X60579000Y-115443000D01*
X60579000Y-113157000D01*
X60559000Y-113157000D01*
X60559000Y-112903000D01*
X60579000Y-112903000D01*
X60579000Y-110617000D01*
X60559000Y-110617000D01*
X60559000Y-110363000D01*
X60579000Y-110363000D01*
X60579000Y-108077000D01*
X60559000Y-108077000D01*
X60559000Y-107823000D01*
X60579000Y-107823000D01*
X60579000Y-105537000D01*
X60559000Y-105537000D01*
X60559000Y-105283000D01*
X60579000Y-105283000D01*
X60579000Y-102997000D01*
X60559000Y-102997000D01*
X60559000Y-102743000D01*
X60579000Y-102743000D01*
X60579000Y-101549186D01*
X60833000Y-101549186D01*
X60833000Y-102743000D01*
X60853000Y-102743000D01*
X60853000Y-102997000D01*
X60833000Y-102997000D01*
X60833000Y-105283000D01*
X60853000Y-105283000D01*
X60853000Y-105537000D01*
X60833000Y-105537000D01*
X60833000Y-107823000D01*
X60853000Y-107823000D01*
X60853000Y-108077000D01*
X60833000Y-108077000D01*
X60833000Y-110363000D01*
X60853000Y-110363000D01*
X60853000Y-110617000D01*
X60833000Y-110617000D01*
X60833000Y-112903000D01*
X60853000Y-112903000D01*
X60853000Y-113157000D01*
X60833000Y-113157000D01*
X60833000Y-115443000D01*
X60853000Y-115443000D01*
X60853000Y-115697000D01*
X60833000Y-115697000D01*
X60833000Y-117983000D01*
X60853000Y-117983000D01*
X60853000Y-118237000D01*
X60833000Y-118237000D01*
X60833000Y-120523000D01*
X60853000Y-120523000D01*
X60853000Y-120777000D01*
X60833000Y-120777000D01*
X60833000Y-121970814D01*
X61062891Y-122091481D01*
X61337252Y-121994157D01*
X61587355Y-121845178D01*
X61803588Y-121650269D01*
X61974900Y-121420594D01*
X62092525Y-121596632D01*
X62299368Y-121803475D01*
X62542589Y-121965990D01*
X62812842Y-122077932D01*
X63099740Y-122135000D01*
X63392260Y-122135000D01*
X63679158Y-122077932D01*
X63949411Y-121965990D01*
X64192632Y-121803475D01*
X64399475Y-121596632D01*
X64561990Y-121353411D01*
X64673932Y-121083158D01*
X64731000Y-120796260D01*
X64731000Y-120503740D01*
X64673932Y-120216842D01*
X64561990Y-119946589D01*
X64399475Y-119703368D01*
X64192632Y-119496525D01*
X64018240Y-119380000D01*
X64192632Y-119263475D01*
X64399475Y-119056632D01*
X64561990Y-118813411D01*
X64673932Y-118543158D01*
X64731000Y-118256260D01*
X64731000Y-117963740D01*
X64673932Y-117676842D01*
X64561990Y-117406589D01*
X64399475Y-117163368D01*
X64192632Y-116956525D01*
X64018240Y-116840000D01*
X64192632Y-116723475D01*
X64399475Y-116516632D01*
X64561990Y-116273411D01*
X64673932Y-116003158D01*
X64731000Y-115716260D01*
X64731000Y-115423740D01*
X64673932Y-115136842D01*
X64561990Y-114866589D01*
X64399475Y-114623368D01*
X64192632Y-114416525D01*
X64018240Y-114300000D01*
X64192632Y-114183475D01*
X64399475Y-113976632D01*
X64561990Y-113733411D01*
X64673932Y-113463158D01*
X64731000Y-113176260D01*
X64731000Y-112883740D01*
X64673932Y-112596842D01*
X64561990Y-112326589D01*
X64399475Y-112083368D01*
X64192632Y-111876525D01*
X64018240Y-111760000D01*
X64192632Y-111643475D01*
X64399475Y-111436632D01*
X64561990Y-111193411D01*
X64673932Y-110923158D01*
X64731000Y-110636260D01*
X64731000Y-110343740D01*
X64673932Y-110056842D01*
X64561990Y-109786589D01*
X64399475Y-109543368D01*
X64192632Y-109336525D01*
X64018240Y-109220000D01*
X64192632Y-109103475D01*
X64399475Y-108896632D01*
X64561990Y-108653411D01*
X64673932Y-108383158D01*
X64731000Y-108096260D01*
X64731000Y-107803740D01*
X64673932Y-107516842D01*
X64561990Y-107246589D01*
X64399475Y-107003368D01*
X64192632Y-106796525D01*
X64018240Y-106680000D01*
X64192632Y-106563475D01*
X64399475Y-106356632D01*
X64561990Y-106113411D01*
X64673932Y-105843158D01*
X64731000Y-105556260D01*
X64731000Y-105263740D01*
X64673932Y-104976842D01*
X64561990Y-104706589D01*
X64399475Y-104463368D01*
X64267620Y-104331513D01*
X64340180Y-104309502D01*
X64450494Y-104250537D01*
X64547185Y-104171185D01*
X64626537Y-104074494D01*
X64685502Y-103964180D01*
X64721812Y-103844482D01*
X64734072Y-103720000D01*
X64734072Y-102020000D01*
X64721812Y-101895518D01*
X64685502Y-101775820D01*
X64626537Y-101665506D01*
X64547185Y-101568815D01*
X64450494Y-101489463D01*
X64340180Y-101430498D01*
X64220482Y-101394188D01*
X64096000Y-101381928D01*
X62396000Y-101381928D01*
X62271518Y-101394188D01*
X62151820Y-101430498D01*
X62041506Y-101489463D01*
X61944815Y-101568815D01*
X61865463Y-101665506D01*
X61806498Y-101775820D01*
X61783502Y-101851626D01*
X61587355Y-101674822D01*
X61337252Y-101525843D01*
X61062891Y-101428519D01*
X60833000Y-101549186D01*
X60579000Y-101549186D01*
X60349109Y-101428519D01*
X60074748Y-101525843D01*
X59842000Y-101664484D01*
X59842000Y-98741516D01*
X60074748Y-98880157D01*
X60349109Y-98977481D01*
X60579000Y-98856814D01*
X60579000Y-97663000D01*
X60559000Y-97663000D01*
X60559000Y-97409000D01*
X60579000Y-97409000D01*
X60579000Y-95123000D01*
X60559000Y-95123000D01*
X60559000Y-94869000D01*
X60579000Y-94869000D01*
X60579000Y-92583000D01*
X60559000Y-92583000D01*
X60559000Y-92329000D01*
X60579000Y-92329000D01*
X60579000Y-90043000D01*
X60559000Y-90043000D01*
X60559000Y-89789000D01*
X60579000Y-89789000D01*
X60579000Y-87503000D01*
X60559000Y-87503000D01*
X60559000Y-87249000D01*
X60579000Y-87249000D01*
X60579000Y-84963000D01*
X60559000Y-84963000D01*
X60559000Y-84709000D01*
X60579000Y-84709000D01*
X60579000Y-82423000D01*
X60559000Y-82423000D01*
X60559000Y-82169000D01*
X60579000Y-82169000D01*
X60579000Y-79883000D01*
X60559000Y-79883000D01*
X60559000Y-79629000D01*
X60579000Y-79629000D01*
X60579000Y-78435186D01*
X60833000Y-78435186D01*
X60833000Y-79629000D01*
X60853000Y-79629000D01*
X60853000Y-79883000D01*
X60833000Y-79883000D01*
X60833000Y-82169000D01*
X60853000Y-82169000D01*
X60853000Y-82423000D01*
X60833000Y-82423000D01*
X60833000Y-84709000D01*
X60853000Y-84709000D01*
X60853000Y-84963000D01*
X60833000Y-84963000D01*
X60833000Y-87249000D01*
X60853000Y-87249000D01*
X60853000Y-87503000D01*
X60833000Y-87503000D01*
X60833000Y-89789000D01*
X60853000Y-89789000D01*
X60853000Y-90043000D01*
X60833000Y-90043000D01*
X60833000Y-92329000D01*
X60853000Y-92329000D01*
X60853000Y-92583000D01*
X60833000Y-92583000D01*
X60833000Y-94869000D01*
X60853000Y-94869000D01*
X60853000Y-95123000D01*
X60833000Y-95123000D01*
X60833000Y-97409000D01*
X60853000Y-97409000D01*
X60853000Y-97663000D01*
X60833000Y-97663000D01*
X60833000Y-98856814D01*
X61062891Y-98977481D01*
X61337252Y-98880157D01*
X61587355Y-98731178D01*
X61803588Y-98536269D01*
X61974900Y-98306594D01*
X62092525Y-98482632D01*
X62299368Y-98689475D01*
X62542589Y-98851990D01*
X62812842Y-98963932D01*
X63099740Y-99021000D01*
X63392260Y-99021000D01*
X63679158Y-98963932D01*
X63949411Y-98851990D01*
X64192632Y-98689475D01*
X64399475Y-98482632D01*
X64561990Y-98239411D01*
X64673932Y-97969158D01*
X64731000Y-97682260D01*
X64731000Y-97389740D01*
X64673932Y-97102842D01*
X64561990Y-96832589D01*
X64399475Y-96589368D01*
X64192632Y-96382525D01*
X64018240Y-96266000D01*
X64192632Y-96149475D01*
X64399475Y-95942632D01*
X64561990Y-95699411D01*
X64673932Y-95429158D01*
X64731000Y-95142260D01*
X64731000Y-94849740D01*
X64673932Y-94562842D01*
X64561990Y-94292589D01*
X64399475Y-94049368D01*
X64192632Y-93842525D01*
X64018240Y-93726000D01*
X64192632Y-93609475D01*
X64399475Y-93402632D01*
X64561990Y-93159411D01*
X64673932Y-92889158D01*
X64731000Y-92602260D01*
X64731000Y-92309740D01*
X64673932Y-92022842D01*
X64561990Y-91752589D01*
X64399475Y-91509368D01*
X64192632Y-91302525D01*
X64018240Y-91186000D01*
X64192632Y-91069475D01*
X64399475Y-90862632D01*
X64561990Y-90619411D01*
X64673932Y-90349158D01*
X64731000Y-90062260D01*
X64731000Y-89769740D01*
X64673932Y-89482842D01*
X64561990Y-89212589D01*
X64399475Y-88969368D01*
X64192632Y-88762525D01*
X64018240Y-88646000D01*
X64192632Y-88529475D01*
X64399475Y-88322632D01*
X64561990Y-88079411D01*
X64673932Y-87809158D01*
X64731000Y-87522260D01*
X64731000Y-87229740D01*
X64673932Y-86942842D01*
X64561990Y-86672589D01*
X64399475Y-86429368D01*
X64192632Y-86222525D01*
X64018240Y-86106000D01*
X64192632Y-85989475D01*
X64399475Y-85782632D01*
X64561990Y-85539411D01*
X64673932Y-85269158D01*
X64731000Y-84982260D01*
X64731000Y-84689740D01*
X64673932Y-84402842D01*
X64561990Y-84132589D01*
X64399475Y-83889368D01*
X64192632Y-83682525D01*
X64018240Y-83566000D01*
X64192632Y-83449475D01*
X64399475Y-83242632D01*
X64561990Y-82999411D01*
X64673932Y-82729158D01*
X64731000Y-82442260D01*
X64731000Y-82149740D01*
X64673932Y-81862842D01*
X64561990Y-81592589D01*
X64399475Y-81349368D01*
X64267620Y-81217513D01*
X64340180Y-81195502D01*
X64450494Y-81136537D01*
X64547185Y-81057185D01*
X64626537Y-80960494D01*
X64685502Y-80850180D01*
X64721812Y-80730482D01*
X64734072Y-80606000D01*
X64734072Y-78906000D01*
X64721812Y-78781518D01*
X64685502Y-78661820D01*
X64626537Y-78551506D01*
X64547185Y-78454815D01*
X64450494Y-78375463D01*
X64340180Y-78316498D01*
X64220482Y-78280188D01*
X64096000Y-78267928D01*
X62396000Y-78267928D01*
X62271518Y-78280188D01*
X62151820Y-78316498D01*
X62041506Y-78375463D01*
X61944815Y-78454815D01*
X61865463Y-78551506D01*
X61806498Y-78661820D01*
X61783502Y-78737626D01*
X61587355Y-78560822D01*
X61337252Y-78411843D01*
X61062891Y-78314519D01*
X60833000Y-78435186D01*
X60579000Y-78435186D01*
X60349109Y-78314519D01*
X60074748Y-78411843D01*
X59842000Y-78550484D01*
X59842000Y-75373516D01*
X60074748Y-75512157D01*
X60349109Y-75609481D01*
X60579000Y-75488814D01*
X60579000Y-74295000D01*
X60559000Y-74295000D01*
X60559000Y-74041000D01*
X60579000Y-74041000D01*
X60579000Y-71755000D01*
X60559000Y-71755000D01*
X60559000Y-71501000D01*
X60579000Y-71501000D01*
X60579000Y-70307186D01*
X60349109Y-70186519D01*
X60074748Y-70283843D01*
X59842000Y-70422484D01*
X59842000Y-70002000D01*
X65613860Y-70002000D01*
X65370837Y-70245023D01*
G37*
G04 #@! TD.AperFunction*
D20*
X126365000Y-94996000D02*
X126385000Y-94996000D01*
X126385000Y-95250000D01*
X126365000Y-95250000D01*
X126365000Y-95270000D01*
X126111000Y-95270000D01*
X126111000Y-95250000D01*
X126091000Y-95250000D01*
X126091000Y-94996000D01*
X126111000Y-94996000D01*
X126111000Y-94976000D01*
X126365000Y-94976000D01*
X126365000Y-94996000D01*
G04 #@! TA.AperFunction,Conductor*
D21*
G36*
X126365000Y-94996000D02*
G01*
X126385000Y-94996000D01*
X126385000Y-95250000D01*
X126365000Y-95250000D01*
X126365000Y-95270000D01*
X126111000Y-95270000D01*
X126111000Y-95250000D01*
X126091000Y-95250000D01*
X126091000Y-94996000D01*
X126111000Y-94996000D01*
X126111000Y-94976000D01*
X126365000Y-94976000D01*
X126365000Y-94996000D01*
G37*
G04 #@! TD.AperFunction*
M02*
